SplineFontDB: 1.0
FontName: THK2DJuly8-Italic
FullName: THK2DJuly8-Italic
FamilyName: TH K2D July8
Weight: Book
Copyright: Copyright (c) 2006 by Department of Intellectual Property (DIP), Ministry of Commerce and Software Industry Promotion Agency (Public Organization) (SIPA). All rights reserved.
Version: 1.1
ItalicAngle: -12
UnderlinePosition: -55
UnderlineWidth: 50
Ascent: 800
Descent: 200
Order2: 1
XUID: [1021 375 425136265 5951318]
FSType: 0
OS2Version: 3
OS2_WeightWidthSlopeOnly: 0
OS2_UseTypoMetrics: 1
CreationTime: 1158666240
ModificationTime: 1174405809
PfmFamily: 17
TTFWeight: 400
TTFWidth: 5
LineGap: 60
VLineGap: 0
Panose: 2 0 5 6 0 0 0 2 0 4
OS2TypoAscent: 0
OS2TypoAOffset: 1
OS2TypoDescent: 0
OS2TypoDOffset: 1
OS2TypoLinegap: 0
OS2WinAscent: -21
OS2WinAOffset: 1
OS2WinDescent: -178
OS2WinDOffset: 1
HheadAscent: -21
HheadAOffset: 1
HheadDescent: 178
HheadDOffset: 1
OS2SubXSize: 700
OS2SubYSize: 650
OS2SubXOff: 0
OS2SubYOff: 140
OS2SupXSize: 700
OS2SupYSize: 650
OS2SupXOff: 0
OS2SupYOff: 477
OS2StrikeYSize: 50
OS2StrikeYPos: 250
OS2FamilyClass: 773
OS2Vendor: 'K2D '
ScriptLang: 2
 1 latn 1 dflt 
 0 
ChainSub: coverage 0 0 'liga' 0 0 0 1
 1 0 1
  Coverage: 64 uni0E48.alt2 uni0E49.alt2 uni0E4A.alt2 uni0E4B.alt2 uni0E4C.alt2
  FCoverage: 7 uni0E33
 1
  SeqLookup: 0 'L027'
EndFPST
ChainSub: coverage 0 0 'liga' 0 0 0 1
 1 1 0
  Coverage: 7 uni0E47
  BCoverage: 12 uni0E2C.alt1
 1
  SeqLookup: 0 'L026'
EndFPST
ChainSub: coverage 0 0 'liga' 0 0 0 1
 1 0 1
  Coverage: 7 uni0E2C
  FCoverage: 39 uni0E34 uni0E35 uni0E36 uni0E37 uni0E47
 1
  SeqLookup: 0 'L026'
EndFPST
ChainSub: coverage 0 0 'liga' 0 0 0 1
 1 0 1
  Coverage: 15 uni0E0E uni0E0F
  FCoverage: 38 uni0E38.alt1 uni0E39.alt1 uni0E3A.alt1
 1
  SeqLookup: 0 'L026'
EndFPST
ChainSub: coverage 0 0 'liga' 0 0 0 1
 1 1 0
  Coverage: 5 a b c
  BCoverage: 23 uni0E1B uni0E1D uni0E1F
 1
  SeqLookup: 0 'L026'
EndFPST
ChainSub: coverage 0 0 'liga' 0 0 0 1
 1 0 1
  Coverage: 5 a b c

StartChar: .notdef
Encoding: 65536 -1 0
Width: 500
Flags: W
Fore
409 35 m 1,0,-1
 542 660 l 1,1,-1
 237 660 l 1,2,-1
 104 35 l 1,3,-1
 409 35 l 1,0,-1
436 0 m 1,4,-1
 63 0 l 1,5,-1
 210 695 l 1,6,-1
 583 695 l 1,7,-1
 436 0 l 1,4,-1
EndSplineSet
EndChar
StartChar: numbersign
Encoding: 35 35 4
Width: 413
Flags: W
Fore
367 451 m 2,0,1
 379 485 379 485 412 481 c 1,2,-1
 359 322 l 1,3,-1
 450 322 l 1,4,5
 442 290 442 290 411 290 c 2,6,-1
 348 290 l 1,7,-1
 312 179 l 1,8,-1
 404 179 l 1,9,10
 396 147 396 147 365 147 c 2,11,-1
 301 147 l 1,12,-1
 260 23 l 2,13,14
 249 -11 249 -11 216 -6 c 1,15,-1
 267 147 l 1,16,-1
 185 147 l 1,17,-1
 144 23 l 2,18,19
 133 -11 133 -11 100 -6 c 1,20,-1
 151 147 l 1,21,-1
 62 147 l 1,22,23
 68 179 68 179 101 179 c 2,24,-1
 162 179 l 1,25,-1
 198 290 l 1,26,-1
 108 290 l 1,27,28
 115 322 115 322 147 322 c 2,29,-1
 209 322 l 1,30,-1
 251 451 l 2,31,32
 263 485 263 485 296 481 c 1,33,-1
 243 322 l 1,34,-1
 325 322 l 1,35,-1
 367 451 l 2,0,1
196 179 m 1,36,-1
 278 179 l 1,37,-1
 314 290 l 1,38,-1
 232 290 l 1,39,-1
 196 179 l 1,36,-1
EndSplineSet
EndChar
StartChar: dollar
Encoding: 36 36 5
Width: 453
Flags: W
Fore
109 150 m 2,0,1
 104 127 104 127 110 107 c 128,-1,2
 116 87 116 87 130.5 71 c 128,-1,3
 145 55 145 55 166.5 44.5 c 128,-1,4
 188 34 188 34 215 31 c 1,5,-1
 257 229 l 1,6,7
 223 236 223 236 198 244.5 c 128,-1,8
 173 253 173 253 157.5 265.5 c 128,-1,9
 142 278 142 278 135.5 295.5 c 128,-1,10
 129 313 129 313 132 339 c 256,11,12
 135 365 135 365 149.5 389 c 128,-1,13
 164 413 164 413 187.5 432.5 c 128,-1,14
 211 452 211 452 242.5 464.5 c 128,-1,15
 274 477 274 477 311 480 c 1,16,-1
 314 497 l 2,17,18
 322 531 322 531 355 531 c 1,19,-1
 345 480 l 1,20,21
 407 475 407 475 436.5 439.5 c 128,-1,22
 466 404 466 404 464 353 c 0,23,24
 462 328 462 328 446 317 c 128,-1,25
 430 306 430 306 415 306 c 1,26,27
 417 311 417 311 418 316 c 128,-1,28
 420 326 l 0,29,30
 429 371 429 371 408 404.5 c 128,-1,31
 387 438 387 438 337 444 c 1,32,-1
 298 260 l 1,33,34
 332 253 332 253 361 246 c 128,-1,35
 390 239 390 239 410 227 c 128,-1,36
 430 215 430 215 439.5 197 c 128,-1,37
 449 179 449 179 445 151 c 0,38,39
 440 121 440 121 421.5 94 c 128,-1,40
 403 67 403 67 375 46 c 128,-1,41
 347 25 347 25 312 11.5 c 128,-1,42
 277 -2 277 -2 241 -5 c 1,43,-1
 238 -22 l 2,44,45
 230 -56 230 -56 197 -56 c 1,46,-1
 207 -5 l 1,47,48
 144 0 144 0 105.5 35 c 128,-1,49
 67 70 67 70 66 122 c 0,50,51
 67 148 67 148 83 159 c 128,-1,52
 99 170 99 170 115 170 c 1,53,54
 113 165 113 165 112 160 c 2,55,-1
 109 150 l 2,0,1
404 148 m 0,56,57
 406 164 406 164 398 175.5 c 128,-1,58
 390 187 390 187 374.5 196 c 128,-1,59
 359 205 359 205 337.5 211 c 128,-1,60
 316 217 316 217 290 223 c 1,61,-1
 249 31 l 1,62,63
 277 34 277 34 303.5 44.5 c 128,-1,64
 330 55 330 55 351 71 c 128,-1,65
 372 87 372 87 386.5 107 c 128,-1,66
 401 127 401 127 404 148 c 0,56,57
172 343 m 0,67,68
 167 310 167 310 190.5 294.5 c 128,-1,69
 214 279 214 279 265 267 c 1,70,-1
 303 444 l 1,71,72
 276 441 276 441 253 431.5 c 128,-1,73
 230 422 230 422 212.5 408.5 c 128,-1,74
 195 395 195 395 184.5 378 c 128,-1,75
 174 361 174 361 172 343 c 0,67,68
EndSplineSet
EndChar
StartChar: percent
Encoding: 37 37 6
Width: 567
Flags: W
Fore
302 283 m 2,0,1
 299 267 299 267 288 252.5 c 128,-1,2
 277 238 277 238 261 227.5 c 128,-1,3
 245 217 245 217 226 211 c 128,-1,4
 207 205 207 205 186 205 c 256,5,6
 165 205 165 205 148.5 211 c 128,-1,7
 132 217 132 217 120.5 227.5 c 128,-1,8
 109 238 109 238 104.5 252.5 c 128,-1,9
 100 267 100 267 103 283 c 2,10,-1
 128 400 l 2,11,12
 131 416 131 416 142 430.5 c 128,-1,13
 153 445 153 445 168.5 455.5 c 128,-1,14
 184 466 184 466 203.5 472 c 128,-1,15
 223 478 223 478 244 478 c 0,16,17
 285 478 285 478 309.5 455.5 c 128,-1,18
 334 433 334 433 327 400 c 2,19,-1
 302 283 l 2,0,1
136 283 m 2,20,21
 131 263 131 263 147.5 248.5 c 128,-1,22
 164 234 164 234 192 234 c 0,23,24
 219 234 219 234 241.5 248.5 c 128,-1,25
 264 263 264 263 269 283 c 2,26,-1
 294 400 l 2,27,28
 298 420 298 420 281.5 434.5 c 128,-1,29
 265 449 265 449 238 449 c 0,30,31
 210 449 210 449 187.5 434.5 c 128,-1,32
 165 420 165 420 161 400 c 2,33,-1
 136 283 l 2,20,21
539 75 m 2,34,35
 536 59 536 59 525 44.5 c 128,-1,36
 514 30 514 30 498.5 19.5 c 128,-1,37
 483 9 483 9 464 3 c 128,-1,38
 445 -3 445 -3 424 -3 c 256,39,40
 403 -3 403 -3 386 3 c 128,-1,41
 369 9 369 9 358 19.5 c 128,-1,42
 347 30 347 30 342 44.5 c 128,-1,43
 337 59 337 59 340 75 c 2,44,-1
 365 192 l 2,45,46
 373 225 373 225 406.5 247.5 c 128,-1,47
 440 270 440 270 482 270 c 0,48,49
 503 270 503 270 519.5 264 c 128,-1,50
 536 258 536 258 547.5 247.5 c 128,-1,51
 559 237 559 237 563.5 222.5 c 128,-1,52
 568 208 568 208 564 192 c 2,53,-1
 539 75 l 2,34,35
373 75 m 2,54,55
 369 55 369 55 385.5 40.5 c 128,-1,56
 402 26 402 26 430 26 c 0,57,58
 457 26 457 26 479.5 40.5 c 128,-1,59
 502 55 502 55 506 75 c 2,60,-1
 531 192 l 2,61,62
 536 212 536 212 519.5 226.5 c 128,-1,63
 503 241 503 241 476 241 c 0,64,65
 448 241 448 241 425.5 226.5 c 128,-1,66
 403 212 403 212 398 192 c 2,67,-1
 373 75 l 2,54,55
486 479 m 2,68,69
 509 511 509 511 538 495 c 1,70,-1
 181 -4 l 2,71,72
 157 -36 157 -36 129 -20 c 1,73,-1
 486 479 l 2,68,69
EndSplineSet
EndChar
StartChar: ampersand
Encoding: 38 38 7
Width: 430
Flags: W
Fore
336 51 m 1,0,1
 293 22 293 22 249 8 c 128,-1,2
 205 -6 205 -6 165 -6 c 0,3,4
 135 -6 135 -6 111 4 c 128,-1,5
 87 14 87 14 71.5 31.5 c 128,-1,6
 56 49 56 49 49.5 73 c 128,-1,7
 43 97 43 97 49 126 c 0,8,9
 60 179 60 179 96.5 214 c 128,-1,10
 133 249 133 249 178 269 c 1,11,12
 148 322 148 322 158 368 c 0,13,14
 162 390 162 390 174.5 410.5 c 128,-1,15
 187 431 187 431 205.5 446.5 c 128,-1,16
 224 462 224 462 248 471.5 c 128,-1,17
 272 481 272 481 301 481 c 0,18,19
 345 481 345 481 367.5 456 c 128,-1,20
 390 431 390 431 381 387 c 0,21,22
 372 347 372 347 333 313.5 c 128,-1,23
 294 280 294 280 234 255 c 1,24,25
 266 207 266 207 295 166.5 c 128,-1,26
 324 126 324 126 344 103 c 1,27,28
 370 126 370 126 387.5 150 c 128,-1,29
 405 174 405 174 414 217 c 1,30,31
 448 217 448 217 440 180 c 0,32,33
 435 154 435 154 414 128.5 c 128,-1,34
 393 103 393 103 367 80 c 1,35,36
 380 62 380 62 395.5 41.5 c 128,-1,37
 411 21 411 21 425 7 c 1,38,39
 412 -4 412 -4 397.5 -5 c 128,-1,40
 383 -6 383 -6 373 5 c 2,41,-1
 336 51 l 1,0,1
341 383 m 0,42,43
 346 407 346 407 335 426.5 c 128,-1,44
 324 446 324 446 289 446 c 0,45,46
 253 446 253 446 229 423.5 c 128,-1,47
 205 401 205 401 199 372 c 0,48,49
 193 344 193 344 200.5 324 c 128,-1,50
 208 304 208 304 218 287 c 1,51,-1
 219 282 l 1,52,53
 267 303 267 303 300 325.5 c 128,-1,54
 333 348 333 348 341 383 c 0,42,43
181 30 m 0,55,56
 219 30 219 30 253 43 c 128,-1,57
 287 56 287 56 315 77 c 1,58,59
 308 86 308 86 295 103 c 128,-1,60
 282 120 282 120 266 141.5 c 128,-1,61
 250 163 250 163 231.5 189 c 128,-1,62
 213 215 213 215 195 242 c 1,63,64
 181 236 181 236 165 226 c 128,-1,65
 149 216 149 216 134 202.5 c 128,-1,66
 119 189 119 189 107 171.5 c 128,-1,67
 95 154 95 154 90 131 c 0,68,69
 80 83 80 83 106.5 56.5 c 128,-1,70
 133 30 133 30 181 30 c 0,55,56
EndSplineSet
EndChar
StartChar: quotesingle
Encoding: 39 39 8
Width: 146
Flags: W
Fore
142 433 m 2,0,1
 146 458 146 458 161.5 469.5 c 128,-1,2
 177 481 177 481 200 481 c 1,3,-1
 171 375 l 2,4,5
 168 361 168 361 155.5 349 c 128,-1,6
 143 337 143 337 127 337 c 1,7,-1
 142 433 l 2,0,1
EndSplineSet
EndChar
StartChar: parenleft
Encoding: 40 40 9
Width: 191
Flags: W
Fore
90 204 m 0,0,1
 100 253 100 253 117 293.5 c 128,-1,2
 134 334 134 334 154.5 368 c 128,-1,3
 175 402 175 402 198.5 430.5 c 128,-1,4
 222 459 222 459 246 483 c 0,5,6
 257 494 257 494 268.5 493.5 c 128,-1,7
 280 493 280 493 285 482 c 1,8,9
 228 427 228 427 188.5 360 c 128,-1,10
 149 293 149 293 130 204 c 256,11,12
 111 115 111 115 122.5 48 c 128,-1,13
 134 -19 134 -19 167 -74 c 1,14,15
 157 -85 157 -85 145.5 -85.5 c 128,-1,16
 134 -86 134 -86 128 -75 c 0,17,18
 114 -51 114 -51 102.5 -22.5 c 128,-1,19
 91 6 91 6 84.5 40 c 128,-1,20
 78 74 78 74 78.5 114.5 c 128,-1,21
 79 155 79 155 90 204 c 0,0,1
EndSplineSet
EndChar
StartChar: asterisk
Encoding: 42 42 11
Width: 288
Flags: W
Fore
238 362 m 1,0,1
 250 342 250 342 261.5 320.5 c 128,-1,2
 273 299 273 299 285 279 c 1,3,-1
 241 258 l 1,4,-1
 215 352 l 1,5,6
 198 329 198 329 181 305 c 128,-1,7
 164 281 164 281 146 258 c 1,8,-1
 118 279 l 1,9,-1
 200 365 l 1,10,-1
 95 356 l 1,11,-1
 103 394 l 1,12,-1
 205 387 l 1,13,14
 194 408 194 408 182 430 c 128,-1,15
 170 452 170 452 159 472 c 1,16,-1
 202 494 l 1,17,-1
 229 402 l 1,18,19
 244 424 244 424 261 448 c 128,-1,20
 278 472 278 472 294 494 c 1,21,-1
 326 473 l 1,22,-1
 244 386 l 1,23,24
 270 388 270 388 296.5 390 c 128,-1,25
 323 392 323 392 349 394 c 1,26,-1
 341 356 l 1,27,-1
 238 362 l 1,0,1
EndSplineSet
EndChar
StartChar: plus
Encoding: 43 43 12
Width: 400
Flags: W
Fore
219 181 m 1,0,-1
 68 181 l 1,1,2
 76 215 76 215 109 215 c 2,3,-1
 226 215 l 1,4,-1
 251 330 l 2,5,6
 258 368 258 368 297 368 c 1,7,-1
 264 215 l 1,8,-1
 415 215 l 1,9,10
 409 181 409 181 374 181 c 2,11,-1
 257 181 l 1,12,-1
 233 66 l 2,13,14
 224 28 224 28 186 28 c 1,15,-1
 219 181 l 1,0,-1
EndSplineSet
EndChar
StartChar: comma
Encoding: 44 44 13
Width: 128
Flags: W
Fore
34 31 m 0,0,1
 38 47 38 47 50.5 58 c 128,-1,2
 63 69 63 69 79 69 c 256,3,4
 95 69 95 69 104 58 c 128,-1,5
 113 47 113 47 109 31 c 0,6,7
 103 1 103 1 93.5 -20 c 128,-1,8
 84 -41 84 -41 73.5 -55.5 c 128,-1,9
 63 -70 63 -70 52 -79.5 c 128,-1,10
 41 -89 41 -89 31 -96 c 0,11,12
 26 -99 26 -99 20.5 -99 c 128,-1,13
 15 -99 15 -99 13 -96 c 1,14,15
 37 -78 37 -78 53.5 -55.5 c 128,-1,16
 70 -33 70 -33 76 -4 c 1,17,18
 70 -6 70 -6 63 -6 c 0,19,20
 47 -6 47 -6 39 4.5 c 128,-1,21
 31 15 31 15 34 31 c 0,0,1
EndSplineSet
EndChar
StartChar: hyphen
Encoding: 45 45 14
Width: 235
Flags: W
Fore
68 180 m 1,0,1
 75 216 75 216 109 216 c 2,2,-1
 250 216 l 1,3,4
 246 198 246 198 236.5 189 c 128,-1,5
 227 180 227 180 209 180 c 2,6,-1
 68 180 l 1,0,1
EndSplineSet
EndChar
StartChar: period
Encoding: 46 46 15
Width: 131
Flags: W
Fore
34 31 m 0,0,1
 38 47 38 47 50.5 58 c 128,-1,2
 63 69 63 69 79 69 c 256,3,4
 95 69 95 69 104 58 c 128,-1,5
 113 47 113 47 109 31 c 0,6,7
 106 15 106 15 92.5 4.5 c 128,-1,8
 79 -6 79 -6 63 -6 c 256,9,10
 47 -6 47 -6 39 4.5 c 128,-1,11
 31 15 31 15 34 31 c 0,0,1
EndSplineSet
EndChar
StartChar: slash
Encoding: 47 47 16
Width: 279
Flags: W
Fore
342 479 m 2,0,1
 365 511 365 511 394 495 c 1,2,-1
 37 -4 l 2,3,4
 13 -37 13 -37 -14 -20 c 1,5,-1
 342 479 l 2,0,1
EndSplineSet
EndChar
StartChar: zero
Encoding: 48 48 17
Width: 460
Flags: W
Fore
431 129 m 2,0,1
 425 101 425 101 406 76.5 c 128,-1,2
 387 52 387 52 359.5 33.5 c 128,-1,3
 332 15 332 15 298 4.5 c 128,-1,4
 264 -6 264 -6 228 -6 c 256,5,6
 192 -6 192 -6 162.5 4.5 c 128,-1,7
 133 15 133 15 113.5 33.5 c 128,-1,8
 94 52 94 52 85.5 76.5 c 128,-1,9
 77 101 77 101 83 129 c 2,10,-1
 129 346 l 2,11,12
 135 374 135 374 154 398.5 c 128,-1,13
 173 423 173 423 200.5 441.5 c 128,-1,14
 228 460 228 460 262 470.5 c 128,-1,15
 296 481 296 481 332 481 c 256,16,17
 368 481 368 481 397.5 470.5 c 128,-1,18
 427 460 427 460 446.5 441.5 c 128,-1,19
 466 423 466 423 474.5 398.5 c 128,-1,20
 483 374 483 374 477 346 c 2,21,-1
 431 129 l 2,0,1
123 129 m 2,22,23
 118 108 118 108 125 90 c 128,-1,24
 132 72 132 72 147.5 58.5 c 128,-1,25
 163 45 163 45 185.5 37.5 c 128,-1,26
 208 30 208 30 236 30 c 256,27,28
 264 30 264 30 290 37.5 c 128,-1,29
 316 45 316 45 337 58.5 c 128,-1,30
 358 72 358 72 372 90 c 128,-1,31
 386 108 386 108 391 129 c 2,32,-1
 437 346 l 2,33,34
 441 367 441 367 434.5 385 c 128,-1,35
 428 403 428 403 412.5 416.5 c 128,-1,36
 397 430 397 430 374.5 437.5 c 128,-1,37
 352 445 352 445 324 445 c 256,38,39
 296 445 296 445 270 437.5 c 128,-1,40
 244 430 244 430 223 416.5 c 128,-1,41
 202 403 202 403 187.5 385 c 128,-1,42
 173 367 173 367 169 346 c 2,43,-1
 123 129 l 2,22,23
EndSplineSet
EndChar
StartChar: one
Encoding: 49 49 18
Width: 460
Flags: W
Fore
351 475 m 1,0,1
 359 475 359 475 363.5 469.5 c 128,-1,2
 368 464 368 464 366 456 c 2,3,-1
 277 34 l 2,4,5
 268 -6 268 -6 228 -6 c 1,6,-1
 323 439 l 1,7,-1
 279 439 l 2,8,9
 242 439 242 439 250 475 c 1,10,-1
 351 475 l 1,11,-1
 351 475 l 1,0,1
EndSplineSet
EndChar
StartChar: two
Encoding: 50 50 19
Width: 460
Flags: W
Fore
372 36 m 2,0,1
 390 36 390 36 399 27 c 128,-1,2
 408 18 408 18 404 0 c 1,3,-1
 76 0 l 2,4,5
 69 0 69 0 64 4 c 128,-1,6
 59 8 59 8 61 16 c 0,7,8
 73 75 73 75 124.5 125.5 c 128,-1,9
 176 176 176 176 261 212 c 0,10,11
 281 221 281 221 308.5 231.5 c 128,-1,12
 336 242 336 242 362.5 257 c 128,-1,13
 389 272 389 272 409.5 291.5 c 128,-1,14
 430 311 430 311 436 337 c 0,15,16
 440 359 440 359 434 378.5 c 128,-1,17
 428 398 428 398 413 413 c 128,-1,18
 398 428 398 428 375.5 436.5 c 128,-1,19
 353 445 353 445 325 445 c 256,20,21
 297 445 297 445 270.5 436.5 c 128,-1,22
 244 428 244 428 222.5 413 c 128,-1,23
 201 398 201 398 186 378.5 c 128,-1,24
 171 359 171 359 167 337 c 0,25,26
 166 332 166 332 165.5 328 c 128,-1,27
 165 324 165 324 165 317 c 1,28,29
 148 317 148 317 138 329 c 128,-1,30
 128 341 128 341 134 357 c 0,31,32
 145 386 145 386 167 409 c 128,-1,33
 189 432 189 432 216 448 c 128,-1,34
 243 464 243 464 273.5 472.5 c 128,-1,35
 304 481 304 481 333 481 c 0,36,37
 363 481 363 481 391.5 471.5 c 128,-1,38
 420 462 420 462 441 443.5 c 128,-1,39
 462 425 462 425 472 398 c 128,-1,40
 482 371 482 371 475 337 c 0,41,42
 469 307 469 307 448.5 283.5 c 128,-1,43
 428 260 428 260 399.5 241.5 c 128,-1,44
 371 223 371 223 337 208 c 128,-1,45
 303 193 303 193 270 179 c 0,46,47
 204 151 204 151 163 114.5 c 128,-1,48
 122 78 122 78 106 36 c 1,49,-1
 372 36 l 2,0,1
EndSplineSet
EndChar
StartChar: three
Encoding: 51 51 20
Width: 460
Flags: W
Fore
165 381 m 0,0,1
 172 399 172 399 187.5 417 c 128,-1,2
 203 435 203 435 225 449 c 128,-1,3
 247 463 247 463 274.5 472 c 128,-1,4
 302 481 302 481 332 481 c 256,5,6
 362 481 362 481 387 471.5 c 128,-1,7
 412 462 412 462 428.5 445.5 c 128,-1,8
 445 429 445 429 451.5 407.5 c 128,-1,9
 458 386 458 386 453 361 c 0,10,11
 446 329 446 329 422 303 c 128,-1,12
 398 277 398 277 365 260 c 1,13,14
 403 243 403 243 422 209.5 c 128,-1,15
 441 176 441 176 432 135 c 0,16,17
 426 106 426 106 407 80 c 128,-1,18
 388 54 388 54 360 35 c 128,-1,19
 332 16 332 16 298 5 c 128,-1,20
 264 -6 264 -6 228 -6 c 256,21,22
 192 -6 192 -6 164 4.5 c 128,-1,23
 136 15 136 15 117 32.5 c 128,-1,24
 98 50 98 50 89 71.5 c 128,-1,25
 80 93 80 93 83 115 c 0,26,27
 85 134 85 134 96.5 145 c 128,-1,28
 108 156 108 156 130 155 c 1,29,30
 128 150 128 150 127 145 c 128,-1,31
 126 140 126 140 124 135 c 1,32,33
 119 113 119 113 126 94 c 128,-1,34
 133 75 133 75 148 60.5 c 128,-1,35
 163 46 163 46 185.5 38 c 128,-1,36
 208 30 208 30 236 30 c 256,37,38
 264 30 264 30 290 38 c 128,-1,39
 316 46 316 46 337 60.5 c 128,-1,40
 358 75 358 75 372.5 94 c 128,-1,41
 387 113 387 113 392 135 c 256,42,43
 397 157 397 157 390.5 176 c 128,-1,44
 384 195 384 195 369 209 c 128,-1,45
 354 223 354 223 331.5 231.5 c 128,-1,46
 309 240 309 240 281 240 c 0,47,48
 273 240 273 240 268 245.5 c 128,-1,49
 263 251 263 251 265 259 c 256,50,51
 267 267 267 267 273.5 272 c 128,-1,52
 280 277 280 277 288 277 c 0,53,54
 333 277 333 277 369 301.5 c 128,-1,55
 405 326 405 326 413 361 c 0,56,57
 417 378 417 378 411.5 393.5 c 128,-1,58
 406 409 406 409 394 420.5 c 128,-1,59
 382 432 382 432 364 438.5 c 128,-1,60
 346 445 346 445 324 445 c 0,61,62
 279 445 279 445 243 420.5 c 128,-1,63
 207 396 207 396 199 361 c 0,64,65
 198 358 198 358 197 352 c 128,-1,66
 196 346 196 346 197 341 c 1,67,68
 180 339 180 339 168.5 350 c 128,-1,69
 157 361 157 361 165 381 c 0,0,1
EndSplineSet
EndChar
StartChar: four
Encoding: 52 52 21
Width: 460
Flags: W
Fore
463 155 m 1,0,1
 455 119 455 119 420 119 c 2,2,-1
 354 119 l 1,3,-1
 357 118 l 1,4,-1
 374 116 l 1,5,-1
 357 34 l 2,6,7
 348 -6 348 -6 308 -6 c 1,8,-1
 335 119 l 1,9,-1
 79 119 l 2,10,11
 67 119 67 119 63 128.5 c 128,-1,12
 59 138 59 138 70 149 c 2,13,-1
 416 475 l 2,14,15
 427 485 427 485 438.5 480.5 c 128,-1,16
 450 476 450 476 448 462 c 2,17,-1
 382 155 l 1,18,-1
 463 155 l 1,0,1
342 155 m 1,19,-1
 396 406 l 1,20,-1
 416 427 l 1,21,-1
 416 430 l 1,22,-1
 124 155 l 1,23,-1
 342 155 l 1,19,-1
EndSplineSet
EndChar
StartChar: five
Encoding: 53 53 22
Width: 460
Flags: W
Fore
218 327 m 1,0,1
 211 323 211 323 206 320 c 128,-1,2
 201 317 201 317 196 313 c 1,3,-1
 199 312 l 1,4,5
 223 326 223 326 249 334 c 128,-1,6
 275 342 275 342 302 342 c 0,7,8
 338 342 338 342 367 328.5 c 128,-1,9
 396 315 396 315 414.5 291 c 128,-1,10
 433 267 433 267 440 235.5 c 128,-1,11
 447 204 447 204 439 168 c 256,12,13
 431 132 431 132 411 100.5 c 128,-1,14
 391 69 391 69 362 45 c 128,-1,15
 333 21 333 21 298.5 7.5 c 128,-1,16
 264 -6 264 -6 228 -6 c 256,17,18
 192 -6 192 -6 164.5 6.5 c 128,-1,19
 137 19 137 19 119 40.5 c 128,-1,20
 101 62 101 62 93.5 90 c 128,-1,21
 86 118 86 118 90 148 c 0,22,23
 92 167 92 167 103.5 178 c 128,-1,24
 115 189 115 189 137 188 c 1,25,26
 135 183 135 183 134 178 c 128,-1,27
 133 173 133 173 131 168 c 1,28,29
 125 139 125 139 130 114 c 128,-1,30
 135 89 135 89 149.5 70.5 c 128,-1,31
 164 52 164 52 186 41 c 128,-1,32
 208 30 208 30 236 30 c 256,33,34
 264 30 264 30 290.5 41 c 128,-1,35
 317 52 317 52 339 70.5 c 128,-1,36
 361 89 361 89 377 114 c 128,-1,37
 393 139 393 139 399 168 c 0,38,39
 405 196 405 196 400 221.5 c 128,-1,40
 395 247 395 247 381 265.5 c 128,-1,41
 367 284 367 284 345 295 c 128,-1,42
 323 306 323 306 295 306 c 0,43,44
 263 306 263 306 233 292 c 128,-1,45
 203 278 203 278 180 255 c 0,46,47
 173 249 173 249 166 248.5 c 128,-1,48
 159 248 159 248 154 251 c 128,-1,49
 149 254 149 254 147 260.5 c 128,-1,50
 145 267 145 267 150 275 c 2,51,-1
 251 460 l 2,52,53
 258 475 258 475 273 475 c 2,54,-1
 472 475 l 1,55,56
 464 439 464 439 429 439 c 2,57,-1
 279 439 l 1,58,59
 263 412 263 412 251 389 c 0,60,61
 240 369 240 369 230.5 351 c 128,-1,62
 221 333 221 333 218 327 c 1,0,1
EndSplineSet
EndChar
StartChar: six
Encoding: 54 54 23
Width: 460
Flags: W
Fore
253 335 m 1,0,1
 265 338 265 338 277.5 340 c 128,-1,2
 290 342 290 342 302 342 c 0,3,4
 338 342 338 342 367 328.5 c 128,-1,5
 396 315 396 315 414.5 291 c 128,-1,6
 433 267 433 267 440 235.5 c 128,-1,7
 447 204 447 204 439 168 c 256,8,9
 431 132 431 132 411 100.5 c 128,-1,10
 391 69 391 69 362 45 c 128,-1,11
 333 21 333 21 298.5 7.5 c 128,-1,12
 264 -6 264 -6 228 -6 c 256,13,14
 192 -6 192 -6 163.5 7.5 c 128,-1,15
 135 21 135 21 116 45 c 128,-1,16
 97 69 97 69 90 100.5 c 128,-1,17
 83 132 83 132 91 168 c 0,18,19
 99 205 99 205 120.5 236.5 c 128,-1,20
 142 268 142 268 171 293 c 2,21,-1
 371 468 l 2,22,23
 401 495 401 495 422 470 c 1,24,-1
 279 344 l 1,25,26
 265 341 265 341 250 337 c 1,27,-1
 253 335 l 1,0,1
399 168 m 0,28,29
 405 196 405 196 400 221.5 c 128,-1,30
 395 247 395 247 381 265.5 c 128,-1,31
 367 284 367 284 345 295 c 128,-1,32
 323 306 323 306 295 306 c 256,33,34
 267 306 267 306 240.5 295 c 128,-1,35
 214 284 214 284 191.5 265.5 c 128,-1,36
 169 247 169 247 153 221.5 c 128,-1,37
 137 196 137 196 131 168 c 0,38,39
 125 139 125 139 130 114 c 128,-1,40
 135 89 135 89 149.5 70.5 c 128,-1,41
 164 52 164 52 186 41 c 128,-1,42
 208 30 208 30 236 30 c 256,43,44
 264 30 264 30 290.5 41 c 128,-1,45
 317 52 317 52 339 70.5 c 128,-1,46
 361 89 361 89 377 114 c 128,-1,47
 393 139 393 139 399 168 c 0,28,29
EndSplineSet
EndChar
StartChar: seven
Encoding: 55 55 24
Width: 460
Flags: W
Fore
455 439 m 1,0,-1
 192 439 l 2,1,2
 155 439 155 439 163 475 c 1,3,-1
 490 475 l 2,4,5
 500 475 500 475 504.5 466 c 128,-1,6
 509 457 509 457 502 446 c 2,7,-1
 188 14 l 2,8,9
 166 -18 166 -18 137 0 c 1,10,-1
 455 439 l 1,0,-1
EndSplineSet
EndChar
StartChar: eight
Encoding: 56 56 25
Width: 460
Flags: W
Fore
159 361 m 0,0,1
 164 386 164 386 180.5 407.5 c 128,-1,2
 197 429 197 429 220.5 445.5 c 128,-1,3
 244 462 244 462 273 471.5 c 128,-1,4
 302 481 302 481 332 481 c 256,5,6
 362 481 362 481 387 471.5 c 128,-1,7
 412 462 412 462 428.5 445.5 c 128,-1,8
 445 429 445 429 451.5 407.5 c 128,-1,9
 458 386 458 386 453 361 c 0,10,11
 446 329 446 329 422 303 c 128,-1,12
 398 277 398 277 365 260 c 1,13,14
 403 243 403 243 422 209.5 c 128,-1,15
 441 176 441 176 432 135 c 0,16,17
 426 106 426 106 407 80 c 128,-1,18
 388 54 388 54 360 35 c 128,-1,19
 332 16 332 16 298 5 c 128,-1,20
 264 -6 264 -6 228 -6 c 256,21,22
 192 -6 192 -6 162.5 5 c 128,-1,23
 133 16 133 16 113.5 35 c 128,-1,24
 94 54 94 54 86 80 c 128,-1,25
 78 106 78 106 84 135 c 0,26,27
 93 176 93 176 126 209.5 c 128,-1,28
 159 243 159 243 205 260 c 1,29,30
 177 277 177 277 164.5 303 c 128,-1,31
 152 329 152 329 159 361 c 0,0,1
124 135 m 256,32,33
 119 113 119 113 126 94 c 128,-1,34
 133 75 133 75 148 60.5 c 128,-1,35
 163 46 163 46 185.5 38 c 128,-1,36
 208 30 208 30 236 30 c 256,37,38
 264 30 264 30 290 38 c 128,-1,39
 316 46 316 46 337 60.5 c 128,-1,40
 358 75 358 75 372.5 94 c 128,-1,41
 387 113 387 113 392 135 c 256,42,43
 397 157 397 157 390.5 176 c 128,-1,44
 384 195 384 195 369 209 c 128,-1,45
 354 223 354 223 331.5 231.5 c 128,-1,46
 309 240 309 240 281 240 c 256,47,48
 253 240 253 240 227 231.5 c 128,-1,49
 201 223 201 223 179.5 209 c 128,-1,50
 158 195 158 195 143.5 176 c 128,-1,51
 129 157 129 157 124 135 c 256,32,33
199 361 m 0,52,53
 195 344 195 344 200.5 328.5 c 128,-1,54
 206 313 206 313 218 301.5 c 128,-1,55
 230 290 230 290 248 283.5 c 128,-1,56
 266 277 266 277 288 277 c 0,57,58
 333 277 333 277 369 301.5 c 128,-1,59
 405 326 405 326 413 361 c 0,60,61
 417 378 417 378 411.5 393.5 c 128,-1,62
 406 409 406 409 394 420.5 c 128,-1,63
 382 432 382 432 364 438.5 c 128,-1,64
 346 445 346 445 324 445 c 0,65,66
 279 445 279 445 243 420.5 c 128,-1,67
 207 396 207 396 199 361 c 0,52,53
EndSplineSet
EndChar
StartChar: nine
Encoding: 57 57 26
Width: 460
Flags: W
Fore
307 140 m 1,0,1
 295 137 295 137 282.5 135 c 128,-1,2
 270 133 270 133 258 133 c 0,3,4
 222 133 222 133 193 146.5 c 128,-1,5
 164 160 164 160 145.5 184 c 128,-1,6
 127 208 127 208 120 239.5 c 128,-1,7
 113 271 113 271 121 307 c 0,8,9
 128 343 128 343 148.5 374.5 c 128,-1,10
 169 406 169 406 198 430 c 128,-1,11
 227 454 227 454 261.5 467.5 c 128,-1,12
 296 481 296 481 332 481 c 256,13,14
 368 481 368 481 396.5 467.5 c 128,-1,15
 425 454 425 454 444 430 c 128,-1,16
 463 406 463 406 469.5 374.5 c 128,-1,17
 476 343 476 343 469 307 c 0,18,19
 461 270 461 270 439.5 238.5 c 128,-1,20
 418 207 418 207 389 182 c 2,21,-1
 189 7 l 2,22,23
 159 -20 159 -20 138 5 c 1,24,-1
 281 131 l 1,25,26
 295 134 295 134 310 138 c 1,27,-1
 307 140 l 1,0,1
161 307 m 0,28,29
 155 278 155 278 160 253 c 128,-1,30
 165 228 165 228 179 209.5 c 128,-1,31
 193 191 193 191 215 180 c 128,-1,32
 237 169 237 169 265 169 c 256,33,34
 293 169 293 169 319.5 180 c 128,-1,35
 346 191 346 191 368.5 209.5 c 128,-1,36
 391 228 391 228 407 253 c 128,-1,37
 423 278 423 278 429 307 c 0,38,39
 435 335 435 335 429.5 360.5 c 128,-1,40
 424 386 424 386 410 404.5 c 128,-1,41
 396 423 396 423 374 434 c 128,-1,42
 352 445 352 445 324 445 c 256,43,44
 296 445 296 445 269.5 434 c 128,-1,45
 243 423 243 423 221 404.5 c 128,-1,46
 199 386 199 386 183 360.5 c 128,-1,47
 167 335 167 335 161 307 c 0,28,29
EndSplineSet
EndChar
StartChar: less
Encoding: 60 60 29
Width: 400
Flags: W
Fore
84 211 m 2,0,-1
 450 391 l 1,1,2
 456 360 456 360 428 346 c 2,3,-1
 128 198 l 1,4,-1
 365 50 l 2,5,6
 387 36 387 36 368 5 c 1,7,-1
 79 185 l 2,8,9
 72 189 72 189 74 198 c 0,10,11
 76 206 76 206 84 211 c 2,0,-1
EndSplineSet
EndChar
StartChar: equal
Encoding: 61 61 30
Width: 400
Flags: W
Fore
81 241 m 1,0,1
 87 275 87 275 122 275 c 2,2,-1
 428 275 l 1,3,4
 420 241 420 241 387 241 c 2,5,-1
 81 241 l 1,0,1
55 121 m 1,6,7
 63 155 63 155 96 155 c 2,8,-1
 402 155 l 1,9,10
 396 121 396 121 361 121 c 2,11,-1
 55 121 l 1,6,7
EndSplineSet
EndChar
StartChar: question
Encoding: 63 63 32
Width: 334
Flags: W
Fore
210 134 m 2,0,1
 201 96 201 96 164 96 c 1,2,-1
 176 155 l 2,3,4
 184 190 184 190 207.5 212 c 128,-1,5
 231 234 231 234 258 253 c 128,-1,6
 285 272 285 272 308 293 c 128,-1,7
 331 314 331 314 339 349 c 0,8,9
 348 391 348 391 325.5 419 c 128,-1,10
 303 447 303 447 258 447 c 0,11,12
 237 447 237 447 217 440 c 128,-1,13
 197 433 197 433 180 420 c 128,-1,14
 163 407 163 407 151 389 c 128,-1,15
 139 371 139 371 135 349 c 2,16,17
 133 343 133 343 132.5 339.5 c 128,-1,18
 132 336 132 336 132 330 c 1,19,20
 116 330 116 330 106 341 c 128,-1,21
 96 352 96 352 102 368 c 0,22,23
 111 394 111 394 127 415 c 128,-1,24
 143 436 143 436 165 450.5 c 128,-1,25
 187 465 187 465 212.5 473 c 128,-1,26
 238 481 238 481 265 481 c 0,27,28
 293 481 293 481 316.5 472 c 128,-1,29
 340 463 340 463 355.5 446 c 128,-1,30
 371 429 371 429 377 404.5 c 128,-1,31
 383 380 383 380 377 349 c 0,32,33
 368 308 368 308 343.5 282.5 c 128,-1,34
 319 257 319 257 292.5 238 c 128,-1,35
 266 219 266 219 243 200.5 c 128,-1,36
 220 182 220 182 214 155 c 2,37,-1
 210 134 l 2,0,1
132 31 m 0,38,39
 136 47 136 47 148.5 58 c 128,-1,40
 161 69 161 69 177 69 c 256,41,42
 193 69 193 69 202 58 c 128,-1,43
 211 47 211 47 207 31 c 0,44,45
 204 15 204 15 190.5 4.5 c 128,-1,46
 177 -6 177 -6 161 -6 c 256,47,48
 145 -6 145 -6 137 4.5 c 128,-1,49
 129 15 129 15 132 31 c 0,38,39
EndSplineSet
EndChar
StartChar: at
Encoding: 64 64 33
Width: 562
Flags: W
Fore
266 123 m 0,0,1
 289 123 289 123 313 140 c 128,-1,2
 337 157 337 157 357 182 c 128,-1,3
 377 207 377 207 391.5 235 c 128,-1,4
 406 263 406 263 411 286 c 0,5,6
 414 297 414 297 412.5 309 c 128,-1,7
 411 321 411 321 405.5 330 c 128,-1,8
 400 339 400 339 391.5 344 c 128,-1,9
 383 349 383 349 373 349 c 0,10,11
 347 349 347 349 322 334 c 128,-1,12
 297 319 297 319 277 295 c 128,-1,13
 257 271 257 271 242 243.5 c 128,-1,14
 227 216 227 216 222 191 c 0,15,16
 216 161 216 161 228 142 c 128,-1,17
 240 123 240 123 266 123 c 0,0,1
468 369 m 1,18,-1
 502 369 l 1,19,-1
 399 176 l 2,20,21
 393 165 393 165 388 156 c 128,-1,22
 383 147 383 147 381 139 c 0,23,24
 377 121 377 121 396 121 c 256,25,26
 415 121 415 121 436.5 135 c 128,-1,27
 458 149 458 149 478.5 172 c 128,-1,28
 499 195 499 195 515 224 c 128,-1,29
 531 253 531 253 537 281 c 0,30,31
 546 321 546 321 537 351.5 c 128,-1,32
 528 382 528 382 507.5 404.5 c 128,-1,33
 487 427 487 427 456 439.5 c 128,-1,34
 425 452 425 452 388 452 c 0,35,36
 343 452 343 452 301 434.5 c 128,-1,37
 259 417 259 417 225.5 387.5 c 128,-1,38
 192 358 192 358 167.5 319 c 128,-1,39
 143 280 143 280 133 235 c 0,40,41
 124 191 124 191 132.5 153 c 128,-1,42
 141 115 141 115 162.5 86.5 c 128,-1,43
 184 58 184 58 219 41 c 128,-1,44
 254 24 254 24 298 24 c 0,45,46
 349 24 349 24 401 48 c 128,-1,47
 453 72 453 72 491 115 c 0,48,49
 512 138 512 138 525 115 c 1,50,51
 503 87 503 87 476.5 65 c 128,-1,52
 450 43 450 43 419.5 27 c 128,-1,53
 389 11 389 11 356 2.5 c 128,-1,54
 323 -6 323 -6 291 -6 c 0,55,56
 238 -6 238 -6 199 13.5 c 128,-1,57
 160 33 160 33 134.5 67 c 128,-1,58
 109 101 109 101 99.5 145 c 128,-1,59
 90 189 90 189 101 240 c 0,60,61
 111 290 111 290 140 333.5 c 128,-1,62
 169 377 169 377 209 410 c 128,-1,63
 249 443 249 443 296 462 c 128,-1,64
 343 481 343 481 393 481 c 0,65,66
 440 481 440 481 476 466 c 128,-1,67
 512 451 512 451 537 424 c 128,-1,68
 562 397 562 397 571 360.5 c 128,-1,69
 580 324 580 324 571 280 c 0,70,71
 563 241 563 241 541.5 206.5 c 128,-1,72
 520 172 520 172 493 145.5 c 128,-1,73
 466 119 466 119 437 105 c 128,-1,74
 408 91 408 91 383 91 c 0,75,76
 365 91 365 91 354.5 103 c 128,-1,77
 344 115 344 115 347 136 c 1,78,-1
 346 136 l 1,79,80
 327 119 327 119 301 105 c 128,-1,81
 275 91 275 91 250 91 c 0,82,83
 207 91 207 91 189.5 120 c 128,-1,84
 172 149 172 149 180 187 c 0,85,86
 188 223 188 223 207.5 258 c 128,-1,87
 227 293 227 293 252.5 320.5 c 128,-1,88
 278 348 278 348 312.5 365 c 128,-1,89
 347 382 347 382 383 382 c 0,90,91
 405 382 405 382 421.5 370 c 128,-1,92
 438 358 438 358 442 327 c 1,93,-1
 468 369 l 1,18,-1
EndSplineSet
EndChar
StartChar: A
Encoding: 65 65 34
Width: 420
Flags: W
Fore
406 46 m 2,0,1
 409 30 409 30 399 15 c 128,-1,2
 389 0 389 0 372 -6 c 1,3,-1
 344 155 l 1,4,-1
 141 155 l 1,5,-1
 44 -6 l 1,6,7
 30 0 30 0 26.5 15 c 128,-1,8
 23 30 23 30 32 46 c 2,9,-1
 290 469 l 2,10,11
 297 481 297 481 312 481 c 0,12,13
 326 481 326 481 328 469 c 2,14,-1
 406 46 l 2,0,1
163 191 m 1,15,-1
 338 191 l 1,16,-1
 295 436 l 1,17,-1
 294 433 l 1,18,-1
 295 413 l 1,19,-1
 163 191 l 1,15,-1
EndSplineSet
EndChar
StartChar: B
Encoding: 66 66 35
Width: 465
Flags: W
Fore
393 250 m 1,0,1
 436 240 436 240 453.5 206 c 128,-1,2
 471 172 471 172 462 129 c 0,3,4
 456 103 456 103 443 79.5 c 128,-1,5
 430 56 430 56 411 38.5 c 128,-1,6
 392 21 392 21 367.5 10.5 c 128,-1,7
 343 0 343 0 315 0 c 2,8,-1
 80 0 l 2,9,10
 72 0 72 0 67 6 c 128,-1,11
 62 12 62 12 64 20 c 2,12,-1
 156 455 l 2,13,14
 161 475 161 475 180 475 c 2,15,-1
 375 475 l 2,16,17
 400 475 400 475 419.5 464.5 c 128,-1,18
 439 454 439 454 451.5 436.5 c 128,-1,19
 464 419 464 419 468.5 396 c 128,-1,20
 473 373 473 373 468 348 c 0,21,22
 465 334 465 334 458.5 320 c 128,-1,23
 452 306 452 306 442 292.5 c 128,-1,24
 432 279 432 279 419.5 268 c 128,-1,25
 407 257 407 257 393 250 c 1,0,1
154 256 m 1,26,-1
 329 256 l 2,27,28
 346 256 346 256 362 264.5 c 128,-1,29
 378 273 378 273 391.5 286 c 128,-1,30
 405 299 405 299 415 315.5 c 128,-1,31
 425 332 425 332 428 348 c 0,32,33
 432 364 432 364 429.5 380.5 c 128,-1,34
 427 397 427 397 419 410 c 128,-1,35
 411 423 411 423 398 431 c 128,-1,36
 385 439 385 439 368 439 c 2,37,-1
 193 439 l 1,38,-1
 154 256 l 1,26,-1
322 36 m 2,39,40
 356 36 356 36 384.5 60.5 c 128,-1,41
 413 85 413 85 422 129 c 0,42,43
 431 171 431 171 413 195.5 c 128,-1,44
 395 220 395 220 361 220 c 2,45,-1
 146 220 l 1,46,-1
 107 36 l 1,47,-1
 322 36 l 2,39,40
EndSplineSet
EndChar
StartChar: C
Encoding: 67 67 36
Width: 464
Flags: W
Fore
121 150 m 2,0,1
 116 126 116 126 123 104 c 128,-1,2
 130 82 130 82 146.5 65.5 c 128,-1,3
 163 49 163 49 187.5 39.5 c 128,-1,4
 212 30 212 30 243 30 c 256,5,6
 274 30 274 30 303 39.5 c 128,-1,7
 332 49 332 49 355.5 65.5 c 128,-1,8
 379 82 379 82 395 104 c 128,-1,9
 411 126 411 126 416 150 c 2,10,11
 418 155 418 155 418.5 160 c 128,-1,12
 419 165 419 165 420 170 c 1,13,14
 436 170 436 170 447 159 c 128,-1,15
 458 148 458 148 447 122 c 0,16,17
 435 92 435 92 412 68 c 128,-1,18
 389 44 389 44 360 27.5 c 128,-1,19
 331 11 331 11 298.5 2.5 c 128,-1,20
 266 -6 266 -6 235 -6 c 0,21,22
 202 -6 202 -6 171 4.5 c 128,-1,23
 140 15 140 15 117.5 35 c 128,-1,24
 95 55 95 55 84 84 c 128,-1,25
 73 113 73 113 81 150 c 2,26,-1
 119 326 l 2,27,28
 126 362 126 362 149 390.5 c 128,-1,29
 172 419 172 419 203 439 c 128,-1,30
 234 459 234 459 269.5 470 c 128,-1,31
 305 481 305 481 339 481 c 0,32,33
 369 481 369 481 397 473.5 c 128,-1,34
 425 466 425 466 447 450 c 128,-1,35
 469 434 469 434 482.5 410.5 c 128,-1,36
 496 387 496 387 497 355 c 0,37,38
 497 328 497 328 481 317 c 128,-1,39
 465 306 465 306 449 306 c 1,40,41
 451 311 451 311 452 316 c 128,-1,42
 454 326 l 0,43,44
 459 350 459 350 452 372 c 128,-1,45
 445 394 445 394 428.5 410 c 128,-1,46
 412 426 412 426 387 435.5 c 128,-1,47
 362 445 362 445 331 445 c 256,48,49
 300 445 300 445 271.5 435.5 c 128,-1,50
 243 426 243 426 219.5 410 c 128,-1,51
 196 394 196 394 180 372 c 128,-1,52
 164 350 164 350 159 326 c 2,53,-1
 121 150 l 2,0,1
EndSplineSet
EndChar
StartChar: D
Encoding: 68 68 37
Width: 484
Flags: W
Fore
347 475 m 2,0,1
 380 475 380 475 411 464.5 c 128,-1,2
 442 454 442 454 465 434.5 c 128,-1,3
 488 415 488 415 499 386 c 128,-1,4
 510 357 510 357 502 320 c 2,5,-1
 467 156 l 2,6,7
 459 120 459 120 436.5 91.5 c 128,-1,8
 414 63 414 63 383 42.5 c 128,-1,9
 352 22 352 22 316.5 11 c 128,-1,10
 281 0 281 0 247 0 c 2,11,-1
 80 0 l 2,12,13
 71 0 71 0 66.5 6 c 128,-1,14
 62 12 62 12 64 20 c 2,15,-1
 156 455 l 2,16,17
 161 475 161 475 180 475 c 2,18,-1
 347 475 l 2,0,1
193 439 m 1,19,-1
 107 36 l 1,20,-1
 254 36 l 2,21,22
 284 36 284 36 313 45.5 c 128,-1,23
 342 55 342 55 366 71.5 c 128,-1,24
 390 88 390 88 406.5 110 c 128,-1,25
 423 132 423 132 428 156 c 2,26,-1
 463 320 l 2,27,28
 468 344 468 344 460.5 366 c 128,-1,29
 453 388 453 388 436.5 404 c 128,-1,30
 420 420 420 420 395 429.5 c 128,-1,31
 370 439 370 439 340 439 c 2,32,-1
 193 439 l 1,19,-1
EndSplineSet
EndChar
StartChar: E
Encoding: 69 69 38
Width: 464
Flags: W
Fore
144 256 m 1,0,-1
 342 256 l 1,1,2
 334 220 334 220 298 220 c 2,3,-1
 136 220 l 1,4,-1
 121 150 l 2,5,6
 116 126 116 126 123 104 c 128,-1,7
 130 82 130 82 146.5 65.5 c 128,-1,8
 163 49 163 49 187.5 39.5 c 128,-1,9
 212 30 212 30 243 30 c 256,10,11
 274 30 274 30 303 39.5 c 128,-1,12
 332 49 332 49 355.5 65.5 c 128,-1,13
 379 82 379 82 395 104 c 128,-1,14
 411 126 411 126 416 150 c 2,15,16
 418 155 418 155 418.5 160 c 128,-1,17
 419 165 419 165 420 170 c 1,18,19
 436 170 436 170 447 159 c 128,-1,20
 458 148 458 148 447 122 c 0,21,22
 435 92 435 92 412 68 c 128,-1,23
 389 44 389 44 360 27.5 c 128,-1,24
 331 11 331 11 298.5 2.5 c 128,-1,25
 266 -6 266 -6 235 -6 c 0,26,27
 202 -6 202 -6 171 4.5 c 128,-1,28
 140 15 140 15 117.5 35 c 128,-1,29
 95 55 95 55 84 84 c 128,-1,30
 73 113 73 113 81 150 c 2,31,-1
 119 326 l 2,32,33
 126 362 126 362 149 390.5 c 128,-1,34
 172 419 172 419 203 439 c 128,-1,35
 234 459 234 459 269.5 470 c 128,-1,36
 305 481 305 481 339 481 c 0,37,38
 369 481 369 481 397 473.5 c 128,-1,39
 425 466 425 466 447 450 c 128,-1,40
 469 434 469 434 482.5 410.5 c 128,-1,41
 496 387 496 387 497 355 c 0,42,43
 497 328 497 328 481 317 c 128,-1,44
 465 306 465 306 449 306 c 1,45,46
 451 311 451 311 452 316 c 128,-1,47
 454 326 l 0,48,49
 459 350 459 350 452 372 c 128,-1,50
 445 394 445 394 428.5 410 c 128,-1,51
 412 426 412 426 387 435.5 c 128,-1,52
 362 445 362 445 331 445 c 256,53,54
 300 445 300 445 271.5 435.5 c 128,-1,55
 243 426 243 426 219.5 410 c 128,-1,56
 196 394 196 394 180 372 c 128,-1,57
 164 350 164 350 159 326 c 2,58,-1
 144 256 l 1,0,-1
EndSplineSet
EndChar
StartChar: F
Encoding: 70 70 39
Width: 464
Flags: W
Fore
119 326 m 2,0,1
 126 362 126 362 149 390.5 c 128,-1,2
 172 419 172 419 203 439 c 128,-1,3
 234 459 234 459 269.5 470 c 128,-1,4
 305 481 305 481 339 481 c 0,5,6
 369 481 369 481 396.5 473.5 c 128,-1,7
 424 466 424 466 445.5 450 c 128,-1,8
 467 434 467 434 481 410.5 c 128,-1,9
 495 387 495 387 497 355 c 0,10,11
 496 328 496 328 480.5 317 c 128,-1,12
 465 306 465 306 449 306 c 1,13,14
 451 311 451 311 452 316 c 128,-1,15
 454 326 l 0,16,17
 459 350 459 350 452 372 c 128,-1,18
 445 394 445 394 428.5 410 c 128,-1,19
 412 426 412 426 387 435.5 c 128,-1,20
 362 445 362 445 331 445 c 256,21,22
 300 445 300 445 271.5 435.5 c 128,-1,23
 243 426 243 426 219.5 410 c 128,-1,24
 196 394 196 394 180 372 c 128,-1,25
 164 350 164 350 159 326 c 2,26,-1
 144 256 l 1,27,-1
 342 256 l 1,28,29
 334 220 334 220 298 220 c 2,30,-1
 136 220 l 1,31,-1
 97 34 l 2,32,33
 88 -6 88 -6 48 -6 c 1,34,-1
 119 326 l 2,0,1
EndSplineSet
EndChar
StartChar: G
Encoding: 71 71 40
Width: 474
Flags: W
Fore
455 150 m 0,0,1
 447 113 447 113 424 84 c 128,-1,2
 401 55 401 55 370 35 c 128,-1,3
 339 15 339 15 303.5 4.5 c 128,-1,4
 268 -6 268 -6 235 -6 c 256,5,6
 202 -6 202 -6 171 4.5 c 128,-1,7
 140 15 140 15 117.5 35 c 128,-1,8
 95 55 95 55 84 84 c 128,-1,9
 73 113 73 113 81 150 c 2,10,-1
 119 326 l 2,11,12
 126 362 126 362 149 390.5 c 128,-1,13
 172 419 172 419 203 439 c 128,-1,14
 234 459 234 459 269.5 470 c 128,-1,15
 305 481 305 481 339 481 c 0,16,17
 369 481 369 481 397 473.5 c 128,-1,18
 425 466 425 466 447 450 c 128,-1,19
 469 434 469 434 482.5 410.5 c 128,-1,20
 496 387 496 387 497 355 c 0,21,22
 497 328 497 328 481 317 c 128,-1,23
 465 306 465 306 449 306 c 1,24,25
 451 311 451 311 452 316 c 128,-1,26
 454 326 l 0,27,28
 459 350 459 350 452 372 c 128,-1,29
 445 394 445 394 428.5 410 c 128,-1,30
 412 426 412 426 387 435.5 c 128,-1,31
 362 445 362 445 331 445 c 256,32,33
 300 445 300 445 271.5 435.5 c 128,-1,34
 243 426 243 426 219.5 410 c 128,-1,35
 196 394 196 394 180 372 c 128,-1,36
 164 350 164 350 159 326 c 2,37,-1
 121 150 l 2,38,39
 116 126 116 126 123 104 c 128,-1,40
 130 82 130 82 146.5 65.5 c 128,-1,41
 163 49 163 49 187.5 39.5 c 128,-1,42
 212 30 212 30 243 30 c 256,43,44
 274 30 274 30 303 39.5 c 128,-1,45
 332 49 332 49 355 65.5 c 128,-1,46
 378 82 378 82 394 104 c 128,-1,47
 410 126 410 126 415 150 c 2,48,-1
 430 220 l 1,49,-1
 284 220 l 1,50,51
 291 256 291 256 328 256 c 2,52,-1
 458 256 l 2,53,54
 466 256 466 256 471 250 c 128,-1,55
 476 244 476 244 474 236 c 0,56,57
 472 231 472 231 469 217.5 c 128,-1,58
 466 204 466 204 463 189 c 0,59,60
 459 171 459 171 455 150 c 0,0,1
EndSplineSet
EndChar
StartChar: H
Encoding: 72 72 41
Width: 494
Flags: W
Fore
441 34 m 2,0,1
 432 -6 432 -6 392 -6 c 1,2,-1
 440 220 l 1,3,-1
 146 220 l 1,4,-1
 107 34 l 2,5,6
 98 -6 98 -6 58 -6 c 1,7,-1
 153 441 l 2,8,9
 162 481 162 481 202 481 c 1,10,-1
 154 256 l 1,11,-1
 448 256 l 1,12,-1
 487 441 l 2,13,14
 496 481 496 481 536 481 c 1,15,-1
 441 34 l 2,0,1
EndSplineSet
EndChar
StartChar: I
Encoding: 73 73 42
Width: 160
Flags: W
Fore
107 34 m 2,0,1
 98 -6 98 -6 58 -6 c 1,2,-1
 153 441 l 2,3,4
 162 481 162 481 202 481 c 1,5,-1
 107 34 l 2,0,1
EndSplineSet
EndChar
StartChar: J
Encoding: 74 74 43
Width: 425
Flags: W
Fore
111 150 m 1,0,1
 106 126 106 126 111.5 104 c 128,-1,2
 117 82 117 82 131 65.5 c 128,-1,3
 145 49 145 49 166 39.5 c 128,-1,4
 187 30 187 30 214 30 c 0,5,6
 240 30 240 30 265.5 39.5 c 128,-1,7
 291 49 291 49 311.5 65.5 c 128,-1,8
 332 82 332 82 346.5 104 c 128,-1,9
 361 126 361 126 366 150 c 0,10,11
 381 222 381 222 394 282 c 0,12,13
 400 307 400 307 405.5 332.5 c 128,-1,14
 411 358 411 358 415.5 379.5 c 128,-1,15
 420 401 420 401 423 417 c 128,-1,16
 426 433 426 433 428 439 c 1,17,-1
 334 439 l 2,18,19
 297 439 297 439 305 475 c 1,20,-1
 456 475 l 2,21,22
 464 475 464 475 468.5 469.5 c 128,-1,23
 473 464 473 464 471 455 c 2,24,-1
 406 150 l 2,25,26
 399 118 399 118 380 89.5 c 128,-1,27
 361 61 361 61 334 40 c 128,-1,28
 307 19 307 19 273.5 6.5 c 128,-1,29
 240 -6 240 -6 206 -6 c 0,30,31
 175 -6 175 -6 149.5 3.5 c 128,-1,32
 124 13 124 13 106 30.5 c 128,-1,33
 88 48 88 48 78 71.5 c 128,-1,34
 68 95 68 95 68 122 c 0,35,36
 69 148 69 148 85 159 c 128,-1,37
 101 170 101 170 118 170 c 1,38,39
 116 165 116 165 114.5 160 c 128,-1,40
 113 155 113 155 111 150 c 1,0,1
EndSplineSet
EndChar
StartChar: K
Encoding: 75 75 44
Width: 454
Flags: W
Fore
153 441 m 2,0,1
 162 481 162 481 202 481 c 1,2,-1
 148 227 l 1,3,-1
 468 481 l 1,4,5
 487 455 487 455 456 430 c 2,6,-1
 273 285 l 1,7,8
 260 281 260 281 251.5 277.5 c 128,-1,9
 243 274 243 274 236 270 c 1,10,-1
 239 269 l 1,11,12
 250 274 250 274 262.5 277 c 128,-1,13
 275 280 275 280 286 280 c 0,14,15
 320 280 320 280 348 267.5 c 128,-1,16
 376 255 376 255 394 234 c 128,-1,17
 412 213 412 213 419.5 184.5 c 128,-1,18
 427 156 427 156 420 124 c 2,19,-1
 401 34 l 2,20,21
 392 -6 392 -6 352 -6 c 1,22,-1
 380 124 l 2,23,24
 385 148 385 148 379.5 170 c 128,-1,25
 374 192 374 192 360.5 208.5 c 128,-1,26
 347 225 347 225 325.5 234.5 c 128,-1,27
 304 244 304 244 278 244 c 256,28,29
 252 244 252 244 227 234.5 c 128,-1,30
 202 225 202 225 181 208.5 c 128,-1,31
 160 192 160 192 145.5 170 c 128,-1,32
 131 148 131 148 126 124 c 2,33,-1
 107 34 l 2,34,35
 98 -6 98 -6 58 -6 c 1,36,-1
 153 441 l 2,0,1
EndSplineSet
EndChar
StartChar: L
Encoding: 76 76 45
Width: 414
Flags: W
Fore
365 36 m 2,0,1
 401 36 401 36 394 0 c 1,2,-1
 80 0 l 2,3,4
 71 0 71 0 66.5 6 c 128,-1,5
 62 12 62 12 64 20 c 2,6,-1
 153 441 l 2,7,8
 162 481 162 481 202 481 c 1,9,-1
 107 36 l 1,10,-1
 365 36 l 2,0,1
EndSplineSet
EndChar
StartChar: M
Encoding: 77 77 46
Width: 568
Flags: W
Fore
153 441 m 2,0,1
 162 481 162 481 202 481 c 1,2,-1
 295 62 l 1,3,-1
 285 44 l 1,4,-1
 285 41 l 1,5,-1
 570 481 l 1,6,7
 610 481 610 481 601 441 c 2,8,-1
 515 34 l 2,9,10
 506 -6 506 -6 466 -6 c 1,11,-1
 548 377 l 1,12,-1
 566 411 l 1,13,-1
 565 414 l 1,14,-1
 303 7 l 2,15,16
 296 -6 296 -6 282 -6 c 0,17,18
 271 -6 271 -6 267 7 c 2,19,-1
 177 414 l 1,20,-1
 176 411 l 1,21,-1
 180 377 l 1,22,-1
 107 34 l 2,23,24
 98 -6 98 -6 58 -6 c 1,25,-1
 153 441 l 2,0,1
EndSplineSet
EndChar
StartChar: N
Encoding: 78 78 47
Width: 494
Flags: W
Fore
153 441 m 2,0,1
 162 481 162 481 202 481 c 1,2,3
 211 462 l 130,-1,4
 220 443 220 443 234.5 412 c 128,-1,5
 249 381 249 381 268 342 c 128,-1,6
 287 303 287 303 307 262 c 2,7,-1
 413 44 l 1,8,-1
 414 47 l 1,9,-1
 408 68 l 1,10,-1
 496 481 l 1,11,12
 536 481 536 481 527 441 c 2,13,-1
 441 34 l 2,14,15
 432 -6 432 -6 392 -6 c 1,16,17
 382.5 12.5 l 130,-1,18
 373 31 373 31 358.5 61.5 c 128,-1,19
 344 92 344 92 325 131.5 c 128,-1,20
 306 171 306 171 286 212 c 0,21,22
 239 308 239 308 181 431 c 1,23,-1
 179 428 l 1,24,-1
 186 407 l 1,25,-1
 107 34 l 2,26,27
 98 -6 98 -6 58 -6 c 1,28,-1
 153 441 l 2,0,1
EndSplineSet
EndChar
StartChar: O
Encoding: 79 79 48
Width: 567
Flags: W
Fore
90 237 m 256,0,1
 101 288 101 288 129.5 332.5 c 128,-1,2
 158 377 158 377 198 410 c 128,-1,3
 238 443 238 443 286 462 c 128,-1,4
 334 481 334 481 385 481 c 256,5,6
 436 481 436 481 476 462 c 128,-1,7
 516 443 516 443 542.5 410 c 128,-1,8
 569 377 569 377 578.5 332.5 c 128,-1,9
 588 288 588 288 577 237 c 256,10,11
 566 186 566 186 537.5 142 c 128,-1,12
 509 98 509 98 469 65 c 128,-1,13
 429 32 429 32 380.5 13 c 128,-1,14
 332 -6 332 -6 281 -6 c 256,15,16
 230 -6 230 -6 190 13 c 128,-1,17
 150 32 150 32 124 65 c 128,-1,18
 98 98 98 98 88.5 142 c 128,-1,19
 79 186 79 186 90 237 c 256,0,1
130 237 m 256,20,21
 121 194 121 194 128.5 156 c 128,-1,22
 136 118 136 118 157.5 90 c 128,-1,23
 179 62 179 62 213 46 c 128,-1,24
 247 30 247 30 289 30 c 256,25,26
 331 30 331 30 371.5 46 c 128,-1,27
 412 62 412 62 446 90 c 128,-1,28
 480 118 480 118 504 156 c 128,-1,29
 528 194 528 194 537 237 c 256,30,31
 546 280 546 280 538 318 c 128,-1,32
 530 356 530 356 508.5 384 c 128,-1,33
 487 412 487 412 453 428.5 c 128,-1,34
 419 445 419 445 377 445 c 256,35,36
 335 445 335 445 294.5 428.5 c 128,-1,37
 254 412 254 412 220.5 384 c 128,-1,38
 187 356 187 356 163 318 c 128,-1,39
 139 280 139 280 130 237 c 256,20,21
EndSplineSet
EndChar
StartChar: P
Encoding: 80 80 49
Width: 474
Flags: W
Fore
156 455 m 2,0,1
 161 475 161 475 180 475 c 2,2,-1
 414 475 l 2,3,4
 439 475 439 475 458.5 464.5 c 128,-1,5
 478 454 478 454 490.5 436.5 c 128,-1,6
 503 419 503 419 507.5 396 c 128,-1,7
 512 373 512 373 507 348 c 256,8,9
 502 323 502 323 487.5 300 c 128,-1,10
 473 277 473 277 453 259 c 128,-1,11
 433 241 433 241 409 230.5 c 128,-1,12
 385 220 385 220 360 220 c 2,13,-1
 146 220 l 1,14,-1
 107 34 l 2,15,16
 98 -6 98 -6 58 -6 c 1,17,-1
 156 455 l 2,0,1
368 256 m 2,18,19
 385 256 385 256 401 264.5 c 128,-1,20
 417 273 417 273 430.5 286 c 128,-1,21
 444 299 444 299 454 315.5 c 128,-1,22
 464 332 464 332 467 348 c 0,23,24
 471 364 471 364 468.5 380.5 c 128,-1,25
 466 397 466 397 458 410 c 128,-1,26
 450 423 450 423 437 431 c 128,-1,27
 424 439 424 439 407 439 c 2,28,-1
 193 439 l 1,29,-1
 154 256 l 1,30,-1
 368 256 l 2,18,19
EndSplineSet
EndChar
StartChar: Q
Encoding: 81 81 50
Width: 567
Flags: W
Fore
532 25 m 1,0,1
 523 -17 523 -17 482 -3 c 0,2,3
 465 2 465 2 452.5 12.5 c 128,-1,4
 440 23 440 23 427 35 c 1,5,6
 393 15 393 15 356 4.5 c 128,-1,7
 319 -6 319 -6 281 -6 c 0,8,9
 230 -6 230 -6 190 13 c 128,-1,10
 150 32 150 32 124 65 c 128,-1,11
 98 98 98 98 88.5 142 c 128,-1,12
 79 186 79 186 90 237 c 256,13,14
 101 288 101 288 129.5 332.5 c 128,-1,15
 158 377 158 377 198 410 c 128,-1,16
 238 443 238 443 286 462 c 128,-1,17
 334 481 334 481 385 481 c 256,18,19
 436 481 436 481 476 462 c 128,-1,20
 516 443 516 443 542.5 410 c 128,-1,21
 569 377 569 377 578.5 332.5 c 128,-1,22
 588 288 588 288 577 237 c 0,23,24
 566 183 566 183 535 137.5 c 128,-1,25
 504 92 504 92 462 59 c 1,26,27
 477 45 477 45 494 35 c 128,-1,28
 511 25 511 25 532 25 c 1,0,1
130 237 m 0,29,30
 124 207 124 207 125 183 c 1,31,32
 171 198 171 198 218 198 c 0,33,34
 301 198 301 198 365 152 c 0,35,36
 385 138 385 138 399.5 123.5 c 128,-1,37
 414 109 414 109 428 95 c 1,38,39
 434 87 434 87 438 84 c 1,40,41
 474 112 474 112 500.5 151.5 c 128,-1,42
 527 191 527 191 537 237 c 0,43,44
 546 280 546 280 538 318 c 128,-1,45
 530 356 530 356 508.5 384 c 128,-1,46
 487 412 487 412 453 428.5 c 128,-1,47
 419 445 419 445 377 445 c 256,48,49
 335 445 335 445 294.5 428.5 c 128,-1,50
 254 412 254 412 220.5 384 c 128,-1,51
 187 356 187 356 163 318 c 128,-1,52
 139 280 139 280 130 237 c 0,29,30
289 30 m 0,53,54
 347 30 347 30 403 61 c 1,55,-1
 398 67 l 2,56,57
 384 81 384 81 368.5 96 c 128,-1,58
 353 111 353 111 338 122 c 0,59,60
 312 141 312 141 278.5 151.5 c 128,-1,61
 245 162 245 162 210 162 c 0,62,63
 191 162 191 162 171 158.5 c 128,-1,64
 151 155 151 155 131 146 c 1,65,66
 144 94 144 94 186 62 c 128,-1,67
 228 30 228 30 289 30 c 0,53,54
EndSplineSet
EndChar
StartChar: R
Encoding: 82 82 51
Width: 485
Flags: W
Fore
368 256 m 2,0,1
 385 256 385 256 401 264.5 c 128,-1,2
 417 273 417 273 430.5 286 c 128,-1,3
 444 299 444 299 454 315.5 c 128,-1,4
 464 332 464 332 467 348 c 0,5,6
 471 364 471 364 468.5 380.5 c 128,-1,7
 466 397 466 397 458 410 c 128,-1,8
 450 423 450 423 437 431 c 128,-1,9
 424 439 424 439 407 439 c 2,10,-1
 193 439 l 1,11,-1
 154 256 l 1,12,-1
 368 256 l 2,0,1
107 34 m 2,13,14
 98 -6 98 -6 58 -6 c 1,15,-1
 156 455 l 2,16,17
 161 475 161 475 180 475 c 2,18,-1
 414 475 l 2,19,20
 439 475 439 475 458.5 464.5 c 128,-1,21
 478 454 478 454 490.5 436.5 c 128,-1,22
 503 419 503 419 507.5 396 c 128,-1,23
 512 373 512 373 507 348 c 0,24,25
 504 331 504 331 495.5 314.5 c 128,-1,26
 487 298 487 298 475 283 c 128,-1,27
 463 268 463 268 449 255.5 c 128,-1,28
 435 243 435 243 420 236 c 1,29,30
 447 222 447 222 458 192.5 c 128,-1,31
 469 163 469 163 462 129 c 2,32,-1
 442 34 l 2,33,34
 433 -6 433 -6 393 -6 c 1,35,-1
 422 129 l 2,36,37
 431 171 431 171 412.5 195.5 c 128,-1,38
 394 220 394 220 360 220 c 2,39,-1
 146 220 l 1,40,-1
 107 34 l 2,13,14
EndSplineSet
EndChar
StartChar: S
Encoding: 83 83 52
Width: 454
Flags: W
Fore
109 150 m 0,0,1
 104 126 104 126 111 104 c 128,-1,2
 118 82 118 82 134.5 65.5 c 128,-1,3
 151 49 151 49 176 39.5 c 128,-1,4
 201 30 201 30 232 30 c 0,5,6
 262 30 262 30 291.5 40 c 128,-1,7
 321 50 321 50 345 66.5 c 128,-1,8
 369 83 369 83 385 104 c 128,-1,9
 401 125 401 125 404 148 c 0,10,11
 406 166 406 166 396.5 178 c 128,-1,12
 387 190 387 190 369 199 c 128,-1,13
 351 208 351 208 325.5 214.5 c 128,-1,14
 300 221 300 221 270 227 c 0,15,16
 233 234 233 234 205.5 242.5 c 128,-1,17
 178 251 178 251 160.5 263.5 c 128,-1,18
 143 276 143 276 136 294 c 128,-1,19
 129 312 129 312 132 339 c 256,20,21
 135 366 135 366 151 392 c 128,-1,22
 167 418 167 418 193 437.5 c 128,-1,23
 219 457 219 457 253.5 469 c 128,-1,24
 288 481 288 481 328 481 c 0,25,26
 399 481 399 481 433 444.5 c 128,-1,27
 467 408 467 408 464 353 c 0,28,29
 462 328 462 328 446 317 c 128,-1,30
 430 306 430 306 415 306 c 1,31,32
 417 311 417 311 418 316 c 128,-1,33
 420 326 l 0,34,35
 425 350 425 350 421 371.5 c 128,-1,36
 417 393 417 393 404.5 409.5 c 128,-1,37
 392 426 392 426 371 435.5 c 128,-1,38
 350 445 350 445 320 445 c 256,39,40
 290 445 290 445 264 436 c 128,-1,41
 238 427 238 427 218.5 413 c 128,-1,42
 199 399 199 399 186.5 380.5 c 128,-1,43
 174 362 174 362 172 343 c 0,44,45
 167 307 167 307 195 291.5 c 128,-1,46
 223 276 223 276 285 263 c 0,47,48
 322 255 322 255 353 248 c 128,-1,49
 384 241 384 241 406 229 c 128,-1,50
 428 217 428 217 438.5 199 c 128,-1,51
 449 181 449 181 445 151 c 0,52,53
 440 120 440 120 419.5 91.5 c 128,-1,54
 399 63 399 63 368.5 41.5 c 128,-1,55
 338 20 338 20 300.5 7 c 128,-1,56
 263 -6 263 -6 224 -6 c 0,57,58
 189 -6 189 -6 160.5 3.5 c 128,-1,59
 132 13 132 13 111 30.5 c 128,-1,60
 90 48 90 48 78 71.5 c 128,-1,61
 66 95 66 95 66 122 c 0,62,63
 67 148 67 148 83 159 c 128,-1,64
 99 170 99 170 115 170 c 1,65,66
 113 165 113 165 111.5 160 c 128,-1,67
 110 155 110 155 109 150 c 0,0,1
EndSplineSet
EndChar
StartChar: T
Encoding: 84 84 53
Width: 373
Flags: W
Fore
473 475 m 1,0,1
 465 439 465 439 430 439 c 2,2,-1
 300 439 l 1,3,-1
 214 34 l 2,4,5
 205 -6 205 -6 165 -6 c 1,6,-1
 260 439 l 1,7,-1
 93 439 l 1,8,9
 100 475 100 475 136 475 c 2,10,-1
 473 475 l 1,0,1
EndSplineSet
EndChar
StartChar: U
Encoding: 85 85 54
Width: 494
Flags: W
Fore
131 150 m 2,0,1
 126 126 126 126 133 104 c 128,-1,2
 140 82 140 82 156.5 65.5 c 128,-1,3
 173 49 173 49 197.5 39.5 c 128,-1,4
 222 30 222 30 253 30 c 256,5,6
 284 30 284 30 313 39.5 c 128,-1,7
 342 49 342 49 365 65.5 c 128,-1,8
 388 82 388 82 404 104 c 128,-1,9
 420 126 420 126 425 150 c 2,10,-1
 487 441 l 2,11,12
 496 481 496 481 536 481 c 1,13,-1
 465 150 l 2,14,15
 457 113 457 113 434 84 c 128,-1,16
 411 55 411 55 380 35 c 128,-1,17
 349 15 349 15 313.5 4.5 c 128,-1,18
 278 -6 278 -6 245 -6 c 256,19,20
 212 -6 212 -6 181 4.5 c 128,-1,21
 150 15 150 15 127.5 35 c 128,-1,22
 105 55 105 55 94 84 c 128,-1,23
 83 113 83 113 91 150 c 2,24,-1
 153 441 l 2,25,26
 162 481 162 481 202 481 c 1,27,-1
 131 150 l 2,0,1
EndSplineSet
EndChar
StartChar: V
Encoding: 86 86 55
Width: 432
Flags: W
Fore
227 62 m 1,0,-1
 216 42 l 1,1,-1
 217 39 l 1,2,-1
 466 456 l 2,3,4
 476 472 476 472 492.5 479 c 128,-1,5
 509 486 509 486 523 479 c 1,6,-1
 236 6 l 2,7,8
 227 -6 227 -6 214 -6 c 0,9,10
 200 -6 200 -6 198 6 c 2,11,-1
 111 479 l 1,12,13
 128 486 128 486 142 479 c 128,-1,14
 156 472 156 472 158 456 c 2,15,-1
 227 62 l 1,0,-1
EndSplineSet
EndChar
StartChar: W
Encoding: 87 87 56
Width: 638
Flags: W
Fore
198 -6 m 1,0,1
 182 -6 182 -6 174.5 2.5 c 128,-1,2
 167 11 167 11 165 27 c 2,3,-1
 112 480 l 1,4,5
 129 485 129 485 142 477.5 c 128,-1,6
 155 470 155 470 157 454 c 2,7,-1
 199 73 l 1,8,-1
 190 52 l 1,9,-1
 190 49 l 1,10,-1
 388 422 l 2,11,12
 396 435 396 435 410 435 c 256,13,14
 424 435 424 435 426 422 c 2,15,-1
 463 73 l 1,16,-1
 454 52 l 1,17,-1
 454 49 l 1,18,-1
 671 454 l 2,19,20
 679 470 679 470 696 477.5 c 128,-1,21
 713 485 713 485 728 480 c 1,22,-1
 481 27 l 2,23,24
 464 -6 464 -6 434 -6 c 1,25,-1
 392 381 l 1,26,-1
 391 378 l 1,27,-1
 391 356 l 1,28,-1
 198 -6 l 1,0,1
EndSplineSet
EndChar
StartChar: X
Encoding: 88 88 57
Width: 420
Flags: W
Fore
120 475 m 1,0,1
 136 485 136 485 150 481.5 c 128,-1,2
 164 478 164 478 170 465 c 2,3,-1
 268 275 l 1,4,-1
 446 465 l 2,5,6
 458 478 458 478 473.5 481.5 c 128,-1,7
 489 485 489 485 500 475 c 1,8,-1
 284 245 l 1,9,-1
 410 1 l 1,10,11
 394 -9 394 -9 380.5 -5.5 c 128,-1,12
 367 -2 367 -2 360 12 c 2,13,-1
 255 215 l 1,14,-1
 64 12 l 2,15,16
 51 -2 51 -2 36 -5.5 c 128,-1,17
 21 -9 21 -9 10 1 c 1,18,-1
 240 245 l 1,19,-1
 120 475 l 1,0,1
EndSplineSet
EndChar
StartChar: Y
Encoding: 89 89 58
Width: 400
Flags: W
Fore
227 34 m 2,0,1
 218 -6 218 -6 178 -6 c 1,2,-1
 231 242 l 1,3,-1
 110 475 l 1,4,5
 126 485 126 485 140 481.5 c 128,-1,6
 154 478 154 478 160 465 c 2,7,-1
 258 275 l 1,8,-1
 436 465 l 2,9,10
 448 478 448 478 463.5 481.5 c 128,-1,11
 479 485 479 485 490 475 c 1,12,-1
 271 242 l 1,13,-1
 227 34 l 2,0,1
EndSplineSet
EndChar
StartChar: Z
Encoding: 90 90 59
Width: 420
Flags: W
Fore
149 439 m 2,0,1
 112 439 112 439 120 475 c 1,2,-1
 480 475 l 2,3,4
 492 475 492 475 495 464 c 128,-1,5
 498 453 498 453 490 444 c 2,6,-1
 67 22 l 1,7,-1
 70 23 l 1,8,-1
 85 36 l 1,9,-1
 371 36 l 2,10,11
 407 36 407 36 400 0 c 1,12,-1
 40 0 l 2,13,14
 28 0 28 0 25 11 c 128,-1,15
 22 22 22 22 30 31 c 2,16,-1
 453 453 l 1,17,-1
 450 452 l 1,18,-1
 435 439 l 1,19,-1
 149 439 l 2,0,1
EndSplineSet
EndChar
StartChar: bracketleft
Encoding: 91 91 60
Width: 191
Flags: W
Fore
41 -86 m 1,0,-1
 164 493 l 1,1,-1
 300 493 l 1,2,3
 293 457 293 457 257 457 c 2,4,-1
 195 457 l 1,5,-1
 87 -50 l 1,6,-1
 149 -50 l 2,7,8
 186 -50 186 -50 177 -86 c 1,9,-1
 41 -86 l 1,0,-1
EndSplineSet
EndChar
StartChar: backslash
Encoding: 92 92 61
Width: 279
Flags: W
Fore
284 -20 m 1,0,1
 249 -37 249 -37 240 -4 c 2,2,-1
 95 495 l 1,3,4
 131 512 131 512 139 479 c 2,5,-1
 284 -20 l 1,0,1
EndSplineSet
EndChar
StartChar: asciicircum
Encoding: 94 94 63
Width: 426
Flags: W
Fore
313 478 m 1,0,1
 327 478 327 478 330 467 c 2,2,-1
 407 140 l 1,3,4
 394 134 394 134 380.5 138 c 128,-1,5
 367 142 367 142 364 154 c 2,6,-1
 302 423 l 1,7,-1
 126 154 l 2,8,9
 118 142 118 142 103 138 c 128,-1,10
 88 134 88 134 77 140 c 1,11,-1
 294 467 l 2,12,13
 300 478 300 478 315 478 c 1,14,-1
 313 478 l 1,0,1
EndSplineSet
EndChar
StartChar: underscore
Encoding: 95 95 64
Width: 360
Flags: W
Fore
-39 -187 m 1,0,-1
 -32 -155 l 1,1,-1
 327 -155 l 1,2,-1
 320 -187 l 1,3,-1
 -39 -187 l 1,0,-1
EndSplineSet
EndChar
StartChar: grave
Encoding: 96 96 65
Width: 216
Flags: W
Fore
248 373 m 1,0,1
 231 373 231 373 222 375.5 c 128,-1,2
 213 378 213 378 208 384 c 2,3,-1
 144 477 l 1,4,-1
 167 477 l 2,5,6
 202 477 202 477 210 459 c 2,7,-1
 248 373 l 1,0,1
EndSplineSet
EndChar
StartChar: a
Encoding: 97 97 66
Width: 370
Flags: W
Fore
221 221 m 0,0,1
 256 221 256 221 282 208 c 128,-1,2
 308 195 308 195 322 172 c 1,3,-1
 324 175 l 1,4,5
 320 183 320 183 314 189 c 1,6,-1
 323 232 l 2,7,8
 330 264 330 264 306.5 288 c 128,-1,9
 283 312 283 312 241 312 c 0,10,11
 208 312 208 312 176.5 293 c 128,-1,12
 145 274 145 274 125 247 c 1,13,14
 115 256 115 256 114.5 270.5 c 128,-1,15
 114 285 114 285 128 297 c 0,16,17
 151 320 151 320 183 332.5 c 128,-1,18
 215 345 215 345 248 345 c 0,19,20
 272 345 272 345 294.5 337.5 c 128,-1,21
 317 330 317 330 333 315.5 c 128,-1,22
 349 301 349 301 357 280 c 128,-1,23
 365 259 365 259 359 232 c 2,24,-1
 316 30 l 2,25,26
 308 -6 308 -6 272 -6 c 1,27,-1
 279 26 l 1,28,29
 283 28 283 28 287.5 32.5 c 128,-1,30
 292 37 292 37 295 40 c 1,31,-1
 295 43 l 1,32,33
 272 20 272 20 240 7 c 128,-1,34
 208 -6 208 -6 173 -6 c 0,35,36
 145 -6 145 -6 122 3 c 128,-1,37
 99 12 99 12 84 27 c 128,-1,38
 69 42 69 42 63 62.5 c 128,-1,39
 57 83 57 83 62 107 c 256,40,41
 67 131 67 131 82 151.5 c 128,-1,42
 97 172 97 172 118.5 187.5 c 128,-1,43
 140 203 140 203 166.5 212 c 128,-1,44
 193 221 193 221 221 221 c 0,0,1
180 27 m 0,45,46
 201 27 201 27 220.5 33.5 c 128,-1,47
 240 40 240 40 256 51 c 128,-1,48
 272 62 272 62 282.5 76.5 c 128,-1,49
 293 91 293 91 296 107 c 256,50,51
 299 123 299 123 295 137.5 c 128,-1,52
 291 152 291 152 280 163.5 c 128,-1,53
 269 175 269 175 252 181.5 c 128,-1,54
 235 188 235 188 214 188 c 256,55,56
 193 188 193 188 173.5 181.5 c 128,-1,57
 154 175 154 175 138 163.5 c 128,-1,58
 122 152 122 152 111.5 137.5 c 128,-1,59
 101 123 101 123 98 107 c 0,60,61
 91 75 91 75 114 51 c 128,-1,62
 137 27 137 27 180 27 c 0,45,46
EndSplineSet
Substitution: 0 65534 'L026' uni0E38
Substitution: 0 65534 'L026' uni0E38
EndChar
StartChar: b
Encoding: 98 98 67
Width: 380
Flags: W
Fore
118 108 m 2,0,1
 115 92 115 92 119 77.5 c 128,-1,2
 123 63 123 63 134 51.5 c 128,-1,3
 145 40 145 40 162 33.5 c 128,-1,4
 179 27 179 27 200 27 c 256,5,6
 221 27 221 27 240.5 33.5 c 128,-1,7
 260 40 260 40 276 51.5 c 128,-1,8
 292 63 292 63 302.5 77.5 c 128,-1,9
 313 92 313 92 316 108 c 2,10,-1
 343 232 l 2,11,12
 350 264 350 264 327 288 c 128,-1,13
 304 312 304 312 261 312 c 0,14,15
 240 312 240 312 220.5 305.5 c 128,-1,16
 201 299 201 299 185 288 c 128,-1,17
 169 277 169 277 158.5 262.5 c 128,-1,18
 148 248 148 248 145 232 c 2,19,-1
 118 108 l 2,0,1
162 313 m 1,20,21
 158 311 158 311 153.5 306.5 c 128,-1,22
 149 302 149 302 146 299 c 1,23,-1
 146 296 l 1,24,25
 169 319 169 319 201 332 c 128,-1,26
 233 345 233 345 268 345 c 0,27,28
 296 345 296 345 318.5 336 c 128,-1,29
 341 327 341 327 356 312 c 128,-1,30
 371 297 371 297 377.5 276.5 c 128,-1,31
 384 256 384 256 379 232 c 2,32,-1
 352 108 l 2,33,34
 347 84 347 84 332 63.5 c 128,-1,35
 317 43 317 43 295.5 27.5 c 128,-1,36
 274 12 274 12 247.5 3 c 128,-1,37
 221 -6 221 -6 193 -6 c 0,38,39
 158 -6 158 -6 132 7 c 128,-1,40
 106 20 106 20 93 43 c 1,41,-1
 91 40 l 1,42,43
 95 32 95 32 101 26 c 1,44,45
 97 11 97 11 87.5 2.5 c 128,-1,46
 78 -6 78 -6 58 -6 c 1,47,-1
 154 445 l 2,48,49
 161 481 161 481 198 481 c 1,50,-1
 162 313 l 1,20,21
EndSplineSet
Substitution: 0 65534 'L026' uni0E39
Substitution: 0 65534 'L026' uni0E39
EndChar
StartChar: c
Encoding: 99 99 68
Width: 344
Flags: W
Fore
258 345 m 0,0,1
 301 345 301 345 330.5 325.5 c 128,-1,2
 360 306 360 306 368 274 c 0,3,4
 370 265 370 265 367 257 c 128,-1,5
 364 249 364 249 358.5 243.5 c 128,-1,6
 353 238 353 238 346 234.5 c 128,-1,7
 339 231 339 231 333 231 c 1,8,9
 336 247 336 247 332 261.5 c 128,-1,10
 328 276 328 276 317 287.5 c 128,-1,11
 306 299 306 299 289 305.5 c 128,-1,12
 272 312 272 312 251 312 c 256,13,14
 230 312 230 312 210.5 305.5 c 128,-1,15
 191 299 191 299 175 287.5 c 128,-1,16
 159 276 159 276 148.5 261.5 c 128,-1,17
 138 247 138 247 135 231 c 2,18,-1
 108 107 l 2,19,20
 101 75 101 75 124 51 c 128,-1,21
 147 27 147 27 190 27 c 0,22,23
 211 27 211 27 230.5 33.5 c 128,-1,24
 250 40 250 40 266 51.5 c 128,-1,25
 282 63 282 63 292.5 77.5 c 128,-1,26
 303 92 303 92 306 108 c 1,27,28
 317 108 317 108 326 95.5 c 128,-1,29
 335 83 335 83 323 65 c 0,30,31
 301 33 301 33 263.5 13.5 c 128,-1,32
 226 -6 226 -6 183 -6 c 0,33,34
 155 -6 155 -6 132 3 c 128,-1,35
 109 12 109 12 94 27 c 128,-1,36
 79 42 79 42 73 62.5 c 128,-1,37
 67 83 67 83 72 107 c 2,38,-1
 99 231 l 2,39,40
 104 255 104 255 119 275.5 c 128,-1,41
 134 296 134 296 155.5 311.5 c 128,-1,42
 177 327 177 327 203.5 336 c 128,-1,43
 230 345 230 345 258 345 c 0,0,1
EndSplineSet
Substitution: 0 65534 'L026' uni0E3A
Substitution: 0 65534 'L026' uni0E3A
EndChar
StartChar: d
Encoding: 100 100 69
Width: 380
Flags: W
Fore
333 231 m 2,0,1
 336 247 336 247 332 261.5 c 128,-1,2
 328 276 328 276 317 287.5 c 128,-1,3
 306 299 306 299 289 305.5 c 128,-1,4
 272 312 272 312 251 312 c 256,5,6
 230 312 230 312 210.5 305.5 c 128,-1,7
 191 299 191 299 175 287.5 c 128,-1,8
 159 276 159 276 148.5 261.5 c 128,-1,9
 138 247 138 247 135 231 c 2,10,-1
 108 107 l 2,11,12
 101 75 101 75 124 51 c 128,-1,13
 147 27 147 27 190 27 c 0,14,15
 211 27 211 27 230.5 33.5 c 128,-1,16
 250 40 250 40 266 51 c 128,-1,17
 282 62 282 62 292.5 76.5 c 128,-1,18
 303 91 303 91 306 107 c 2,19,-1
 333 231 l 2,0,1
378 445 m 2,20,21
 385 481 385 481 422 481 c 1,22,-1
 326 30 l 2,23,24
 318 -6 318 -6 282 -6 c 1,25,-1
 289 26 l 1,26,27
 293 28 293 28 297.5 32.5 c 128,-1,28
 302 37 302 37 305 40 c 1,29,-1
 305 43 l 1,30,31
 282 20 282 20 250 7 c 128,-1,32
 218 -6 218 -6 183 -6 c 0,33,34
 155 -6 155 -6 132 3 c 128,-1,35
 109 12 109 12 94 27 c 128,-1,36
 79 42 79 42 73 62.5 c 128,-1,37
 67 83 67 83 72 107 c 2,38,-1
 99 231 l 2,39,40
 104 255 104 255 119 275.5 c 128,-1,41
 134 296 134 296 155.5 311.5 c 128,-1,42
 177 327 177 327 203.5 336 c 128,-1,43
 230 345 230 345 258 345 c 0,44,45
 293 345 293 345 319 332 c 128,-1,46
 345 319 345 319 358 296 c 1,47,-1
 360 299 l 1,48,49
 356 307 356 307 350 313 c 1,50,-1
 378 445 l 2,20,21
EndSplineSet
EndChar
StartChar: e
Encoding: 101 101 70
Width: 370
Flags: W
Fore
108 107 m 2,0,1
 101 75 101 75 124 51 c 128,-1,2
 147 27 147 27 190 27 c 0,3,4
 211 27 211 27 230.5 33.5 c 128,-1,5
 250 40 250 40 266 51.5 c 128,-1,6
 282 63 282 63 292.5 77.5 c 128,-1,7
 303 92 303 92 306 108 c 1,8,9
 317 108 317 108 326 95.5 c 128,-1,10
 335 83 335 83 323 65 c 0,11,12
 301 33 301 33 263.5 13.5 c 128,-1,13
 226 -6 226 -6 183 -6 c 0,14,15
 155 -6 155 -6 132 3 c 128,-1,16
 109 12 109 12 94 27 c 128,-1,17
 79 42 79 42 73 62.5 c 128,-1,18
 67 83 67 83 72 107 c 2,19,-1
 99 231 l 2,20,21
 104 255 104 255 119 275.5 c 128,-1,22
 134 296 134 296 155.5 311.5 c 128,-1,23
 177 327 177 327 203.5 336 c 128,-1,24
 230 345 230 345 258 345 c 256,25,26
 286 345 286 345 308.5 336 c 128,-1,27
 331 327 331 327 346 311.5 c 128,-1,28
 361 296 361 296 367.5 275.5 c 128,-1,29
 374 255 374 255 369 231 c 2,30,-1
 361 195 l 2,31,32
 359 187 359 187 352.5 182 c 128,-1,33
 346 177 346 177 339 177 c 2,34,-1
 123 177 l 1,35,-1
 108 107 l 2,0,1
130 210 m 1,36,-1
 328 210 l 1,37,-1
 333 231 l 2,38,39
 336 247 336 247 332 261.5 c 128,-1,40
 328 276 328 276 317 287.5 c 128,-1,41
 306 299 306 299 289 305.5 c 128,-1,42
 272 312 272 312 251 312 c 256,43,44
 230 312 230 312 210.5 305.5 c 128,-1,45
 191 299 191 299 175 287.5 c 128,-1,46
 159 276 159 276 148.5 261.5 c 128,-1,47
 138 247 138 247 135 231 c 2,48,-1
 130 210 l 1,36,-1
EndSplineSet
EndChar
StartChar: f
Encoding: 102 102 71
Width: 200
Flags: W
Fore
133 306 m 1,0,-1
 75 306 l 1,1,2
 81 339 81 339 115 339 c 2,3,-1
 140 339 l 1,4,-1
 150 390 l 2,5,6
 158 428 158 428 190.5 454.5 c 128,-1,7
 223 481 223 481 269 481 c 0,8,9
 289 481 289 481 294.5 468.5 c 128,-1,10
 300 456 300 456 289 442 c 1,11,12
 278 448 278 448 262 448 c 0,13,14
 231 448 231 448 211 431 c 128,-1,15
 191 414 191 414 186 390 c 2,16,-1
 176 339 l 1,17,-1
 239 339 l 1,18,19
 231 306 231 306 199 306 c 2,20,-1
 169 306 l 1,21,-1
 110 30 l 2,22,23
 102 -6 102 -6 66 -6 c 1,24,-1
 133 306 l 1,0,-1
EndSplineSet
EndChar
StartChar: g
Encoding: 103 103 72
Width: 380
Flags: W
Fore
333 231 m 2,0,1
 336 247 336 247 332 261.5 c 128,-1,2
 328 276 328 276 317 287.5 c 128,-1,3
 306 299 306 299 289 305.5 c 128,-1,4
 272 312 272 312 251 312 c 256,5,6
 230 312 230 312 210.5 305.5 c 128,-1,7
 191 299 191 299 175 287.5 c 128,-1,8
 159 276 159 276 148.5 261.5 c 128,-1,9
 138 247 138 247 135 231 c 2,10,-1
 108 107 l 2,11,12
 101 75 101 75 124 51 c 128,-1,13
 147 27 147 27 190 27 c 0,14,15
 211 27 211 27 230.5 33.5 c 128,-1,16
 250 40 250 40 266 51 c 128,-1,17
 282 62 282 62 292.5 76.5 c 128,-1,18
 303 91 303 91 306 107 c 2,19,-1
 333 231 l 2,0,1
289 26 m 1,20,21
 293 28 293 28 297.5 32.5 c 128,-1,22
 302 37 302 37 305 40 c 1,23,-1
 305 43 l 1,24,25
 282 20 282 20 250 7 c 128,-1,26
 218 -6 218 -6 183 -6 c 0,27,28
 155 -6 155 -6 132 3 c 128,-1,29
 109 12 109 12 94 27 c 128,-1,30
 79 42 79 42 73 62.5 c 128,-1,31
 67 83 67 83 72 107 c 2,32,-1
 99 231 l 2,33,34
 104 255 104 255 119 275.5 c 128,-1,35
 134 296 134 296 155.5 311.5 c 128,-1,36
 177 327 177 327 203.5 336 c 128,-1,37
 230 345 230 345 258 345 c 0,38,39
 293 345 293 345 319 332 c 128,-1,40
 345 319 345 319 358 296 c 1,41,-1
 360 299 l 1,42,43
 356 307 356 307 350 313 c 1,44,45
 354 328 354 328 363.5 336.5 c 128,-1,46
 373 345 373 345 393 345 c 1,47,-1
 313 -29 l 2,48,49
 308 -53 308 -53 293 -73.5 c 128,-1,50
 278 -94 278 -94 256.5 -109 c 128,-1,51
 235 -124 235 -124 208.5 -133 c 128,-1,52
 182 -142 182 -142 154 -142 c 0,53,54
 111 -142 111 -142 81.5 -122.5 c 128,-1,55
 52 -103 52 -103 44 -71 c 0,56,57
 42 -62 42 -62 45.5 -54 c 128,-1,58
 49 -46 49 -46 54.5 -40.5 c 128,-1,59
 60 -35 60 -35 67 -31.5 c 128,-1,60
 74 -28 74 -28 80 -28 c 1,61,62
 76 -44 76 -44 80.5 -58.5 c 128,-1,63
 85 -73 85 -73 95.5 -84.5 c 128,-1,64
 106 -96 106 -96 123 -102.5 c 128,-1,65
 140 -109 140 -109 161 -109 c 256,66,67
 182 -109 182 -109 201.5 -102.5 c 128,-1,68
 221 -96 221 -96 237 -85 c 128,-1,69
 253 -74 253 -74 263.5 -59.5 c 128,-1,70
 274 -45 274 -45 277 -29 c 2,71,-1
 289 26 l 1,20,21
EndSplineSet
EndChar
StartChar: h
Encoding: 104 104 73
Width: 390
Flags: W
Fore
154 445 m 2,0,1
 161 481 161 481 198 481 c 1,2,-1
 162 313 l 1,3,4
 158 311 158 311 153.5 306.5 c 128,-1,5
 149 302 149 302 146 299 c 1,6,-1
 146 296 l 1,7,8
 169 319 169 319 201 332 c 128,-1,9
 233 345 233 345 268 345 c 0,10,11
 296 345 296 345 318.5 336 c 128,-1,12
 341 327 341 327 356 311.5 c 128,-1,13
 371 296 371 296 377.5 275.5 c 128,-1,14
 384 255 384 255 379 231 c 2,15,-1
 336 30 l 2,16,17
 328 -6 328 -6 292 -6 c 1,18,-1
 343 231 l 2,19,20
 346 247 346 247 342 261.5 c 128,-1,21
 338 276 338 276 327 287.5 c 128,-1,22
 316 299 316 299 299 305.5 c 128,-1,23
 282 312 282 312 261 312 c 256,24,25
 240 312 240 312 220.5 305.5 c 128,-1,26
 201 299 201 299 185 287.5 c 128,-1,27
 169 276 169 276 158.5 261.5 c 128,-1,28
 148 247 148 247 145 231 c 2,29,-1
 102 30 l 2,30,31
 94 -6 94 -6 58 -6 c 1,32,-1
 154 445 l 2,0,1
EndSplineSet
EndChar
StartChar: i
Encoding: 105 105 74
Width: 156
Flags: W
Fore
125 309 m 2,0,1
 132 345 132 345 169 345 c 1,2,-1
 102 30 l 2,3,4
 94 -6 94 -6 58 -6 c 1,5,-1
 125 309 l 2,0,1
136 433 m 0,6,7
 139 447 139 447 151 457 c 128,-1,8
 163 467 163 467 177 467 c 256,9,10
 191 467 191 467 199 457 c 128,-1,11
 207 447 207 447 204 433 c 0,12,13
 200 419 200 419 188 409 c 128,-1,14
 176 399 176 399 162 399 c 256,15,16
 148 399 148 399 140 409 c 128,-1,17
 132 419 132 419 136 433 c 0,6,7
EndSplineSet
EndChar
StartChar: j
Encoding: 106 106 75
Width: 156
Flags: W
Fore
85 -51 m 2,0,1
 77 -89 77 -89 44.5 -115.5 c 128,-1,2
 12 -142 12 -142 -33 -142 c 0,3,4
 -53 -142 -53 -142 -58.5 -129.5 c 128,-1,5
 -64 -117 -64 -117 -53 -103 c 1,6,7
 -43 -109 -43 -109 -26 -109 c 0,8,9
 4 -109 4 -109 24 -92 c 128,-1,10
 44 -75 44 -75 49 -51 c 2,11,-1
 125 309 l 2,12,13
 132 345 132 345 169 345 c 1,14,-1
 85 -51 l 2,0,1
136 433 m 0,15,16
 139 447 139 447 151 457 c 128,-1,17
 163 467 163 467 177 467 c 256,18,19
 191 467 191 467 199 457 c 128,-1,20
 207 447 207 447 204 433 c 0,21,22
 200 419 200 419 188 409 c 128,-1,23
 176 399 176 399 162 399 c 256,24,25
 148 399 148 399 140 409 c 128,-1,26
 132 419 132 419 136 433 c 0,15,16
EndSplineSet
EndChar
StartChar: k
Encoding: 107 107 76
Width: 380
Flags: W
Fore
154 445 m 2,0,1
 161 481 161 481 198 481 c 1,2,-1
 140 209 l 1,3,-1
 381 344 l 1,4,5
 392 311 392 311 358 294 c 2,6,-1
 268 244 l 1,7,8
 260 244 260 244 255.5 244 c 128,-1,9
 251 244 251 244 243 242 c 2,10,-1
 240 241 l 1,11,-1
 246 241 l 2,12,13
 274 241 274 241 296.5 232 c 128,-1,14
 319 223 319 223 334 207.5 c 128,-1,15
 349 192 349 192 355 171.5 c 128,-1,16
 361 151 361 151 356 127 c 2,17,-1
 336 30 l 2,18,19
 328 -6 328 -6 292 -6 c 1,20,-1
 320 127 l 2,21,22
 327 159 327 159 304.5 183.5 c 128,-1,23
 282 208 282 208 239 208 c 0,24,25
 218 208 218 208 198.5 201.5 c 128,-1,26
 179 195 179 195 163 183.5 c 128,-1,27
 147 172 147 172 136.5 157.5 c 128,-1,28
 126 143 126 143 122 127 c 2,29,-1
 102 30 l 2,30,31
 94 -6 94 -6 58 -6 c 1,32,-1
 154 445 l 2,0,1
EndSplineSet
EndChar
StartChar: l
Encoding: 108 108 77
Width: 192
Flags: W
Fore
157 -6 m 0,0,1
 111 -6 111 -6 90.5 20.5 c 128,-1,2
 70 47 70 47 78 85 c 2,3,-1
 154 445 l 2,4,5
 161 481 161 481 198 481 c 1,6,-1
 114 85 l 2,7,8
 109 61 109 61 121 44 c 128,-1,9
 133 27 133 27 164 27 c 0,10,11
 181 27 181 27 195 33 c 1,12,13
 200 19 200 19 188.5 6.5 c 128,-1,14
 177 -6 177 -6 157 -6 c 0,0,1
EndSplineSet
EndChar
StartChar: m
Encoding: 109 109 78
Width: 522
Flags: W
Fore
296 254 m 2,0,1
 301 278 301 278 283.5 295 c 128,-1,2
 266 312 266 312 235 312 c 256,3,4
 204 312 204 312 179 295 c 128,-1,5
 154 278 154 278 149 254 c 2,6,-1
 102 30 l 2,7,8
 94 -6 94 -6 58 -6 c 1,9,-1
 125 309 l 2,10,11
 132 345 132 345 169 345 c 1,12,-1
 165 327 l 1,13,14
 161 325 161 325 155.5 320.5 c 128,-1,15
 150 316 150 316 147 313 c 1,16,-1
 150 312 l 1,17,18
 168 327 168 327 192 336 c 128,-1,19
 216 345 216 345 242 345 c 0,20,21
 269 345 269 345 290.5 335 c 128,-1,22
 312 325 312 325 323 308 c 1,23,24
 320 305 320 305 316.5 300 c 128,-1,25
 313 295 313 295 312 292 c 1,26,-1
 312 289 l 1,27,28
 329 314 329 314 359.5 329.5 c 128,-1,29
 390 345 390 345 425 345 c 0,30,31
 471 345 471 345 497 318.5 c 128,-1,32
 523 292 523 292 515 254 c 2,33,-1
 468 30 l 2,34,35
 460 -6 460 -6 424 -6 c 1,36,-1
 479 254 l 2,37,38
 484 278 484 278 466.5 295 c 128,-1,39
 449 312 449 312 418 312 c 256,40,41
 387 312 387 312 362 295 c 128,-1,42
 337 278 337 278 332 254 c 2,43,-1
 285 30 l 2,44,45
 277 -6 277 -6 241 -6 c 1,46,-1
 296 254 l 2,0,1
EndSplineSet
EndChar
StartChar: n
Encoding: 110 110 79
Width: 390
Flags: W
Fore
125 309 m 2,0,1
 132 345 132 345 169 345 c 1,2,-1
 162 313 l 1,3,4
 158 311 158 311 153.5 306.5 c 128,-1,5
 149 302 149 302 146 299 c 1,6,-1
 146 296 l 1,7,8
 169 319 169 319 201 332 c 128,-1,9
 233 345 233 345 268 345 c 0,10,11
 296 345 296 345 318.5 336 c 128,-1,12
 341 327 341 327 356 311.5 c 128,-1,13
 371 296 371 296 377.5 275.5 c 128,-1,14
 384 255 384 255 379 231 c 2,15,-1
 336 30 l 2,16,17
 328 -6 328 -6 292 -6 c 1,18,-1
 343 231 l 2,19,20
 346 247 346 247 342 261.5 c 128,-1,21
 338 276 338 276 327 287.5 c 128,-1,22
 316 299 316 299 299 305.5 c 128,-1,23
 282 312 282 312 261 312 c 256,24,25
 240 312 240 312 220.5 305.5 c 128,-1,26
 201 299 201 299 185 287.5 c 128,-1,27
 169 276 169 276 158.5 261.5 c 128,-1,28
 148 247 148 247 145 231 c 2,29,-1
 102 30 l 2,30,31
 94 -6 94 -6 58 -6 c 1,32,-1
 125 309 l 2,0,1
EndSplineSet
EndChar
StartChar: o
Encoding: 111 111 80
Width: 431
Flags: W
Fore
75 169 m 256,0,1
 83 205 83 205 103.5 237 c 128,-1,2
 124 269 124 269 153 293 c 128,-1,3
 182 317 182 317 217 331 c 128,-1,4
 252 345 252 345 288 345 c 256,5,6
 324 345 324 345 353 331 c 128,-1,7
 382 317 382 317 401 293 c 128,-1,8
 420 269 420 269 427 237 c 128,-1,9
 434 205 434 205 426 169 c 256,10,11
 418 133 418 133 397.5 101 c 128,-1,12
 377 69 377 69 348 45 c 128,-1,13
 319 21 319 21 284 7.5 c 128,-1,14
 249 -6 249 -6 213 -6 c 256,15,16
 177 -6 177 -6 148 7.5 c 128,-1,17
 119 21 119 21 100 45 c 128,-1,18
 81 69 81 69 74 101 c 128,-1,19
 67 133 67 133 75 169 c 256,0,1
111 169 m 256,20,21
 105 139 105 139 110.5 113.5 c 128,-1,22
 116 88 116 88 130.5 68.5 c 128,-1,23
 145 49 145 49 168 38 c 128,-1,24
 191 27 191 27 220 27 c 256,25,26
 249 27 249 27 277 38 c 128,-1,27
 305 49 305 49 328 68.5 c 128,-1,28
 351 88 351 88 367.5 113.5 c 128,-1,29
 384 139 384 139 390 169 c 256,30,31
 396 199 396 199 391 225 c 128,-1,32
 386 251 386 251 371 270.5 c 128,-1,33
 356 290 356 290 333 301 c 128,-1,34
 310 312 310 312 281 312 c 256,35,36
 252 312 252 312 224.5 301 c 128,-1,37
 197 290 197 290 173.5 270.5 c 128,-1,38
 150 251 150 251 133.5 225 c 128,-1,39
 117 199 117 199 111 169 c 256,20,21
EndSplineSet
EndChar
StartChar: p
Encoding: 112 112 81
Width: 380
Flags: W
Fore
118 107 m 2,0,1
 111 75 111 75 134 51 c 128,-1,2
 157 27 157 27 200 27 c 0,3,4
 221 27 221 27 240.5 33.5 c 128,-1,5
 260 40 260 40 276 51 c 128,-1,6
 292 62 292 62 302.5 76.5 c 128,-1,7
 313 91 313 91 316 107 c 2,8,-1
 343 231 l 2,9,10
 346 247 346 247 342 261.5 c 128,-1,11
 338 276 338 276 327 287.5 c 128,-1,12
 316 299 316 299 299 305.5 c 128,-1,13
 282 312 282 312 261 312 c 256,14,15
 240 312 240 312 220.5 305.5 c 128,-1,16
 201 299 201 299 185 287.5 c 128,-1,17
 169 276 169 276 158.5 261.5 c 128,-1,18
 148 247 148 247 145 231 c 2,19,-1
 118 107 l 2,0,1
125 309 m 2,20,21
 132 345 132 345 169 345 c 1,22,-1
 162 313 l 1,23,24
 158 311 158 311 153.5 306.5 c 128,-1,25
 149 302 149 302 146 299 c 1,26,-1
 146 296 l 1,27,28
 169 319 169 319 201 332 c 128,-1,29
 233 345 233 345 268 345 c 0,30,31
 296 345 296 345 318.5 336 c 128,-1,32
 341 327 341 327 356 311.5 c 128,-1,33
 371 296 371 296 377.5 275.5 c 128,-1,34
 384 255 384 255 379 231 c 2,35,-1
 352 107 l 2,36,37
 347 83 347 83 332 62.5 c 128,-1,38
 317 42 317 42 295.5 27 c 128,-1,39
 274 12 274 12 247.5 3 c 128,-1,40
 221 -6 221 -6 193 -6 c 0,41,42
 158 -6 158 -6 132 7 c 128,-1,43
 106 20 106 20 93 43 c 1,44,-1
 91 40 l 1,45,46
 95 32 95 32 101 26 c 1,47,-1
 73 -106 l 2,48,49
 65 -142 65 -142 29 -142 c 1,50,-1
 125 309 l 2,20,21
EndSplineSet
EndChar
StartChar: q
Encoding: 113 113 82
Width: 380
Flags: W
Fore
333 231 m 2,0,1
 336 247 336 247 332 261.5 c 128,-1,2
 328 276 328 276 317 287.5 c 128,-1,3
 306 299 306 299 289 305.5 c 128,-1,4
 272 312 272 312 251 312 c 256,5,6
 230 312 230 312 210.5 305.5 c 128,-1,7
 191 299 191 299 175 287.5 c 128,-1,8
 159 276 159 276 148.5 261.5 c 128,-1,9
 138 247 138 247 135 231 c 2,10,-1
 108 107 l 2,11,12
 101 75 101 75 124 51 c 128,-1,13
 147 27 147 27 190 27 c 0,14,15
 211 27 211 27 230.5 33.5 c 128,-1,16
 250 40 250 40 266 51 c 128,-1,17
 282 62 282 62 292.5 76.5 c 128,-1,18
 303 91 303 91 306 107 c 2,19,-1
 333 231 l 2,0,1
289 26 m 1,20,21
 293 28 293 28 297.5 32.5 c 128,-1,22
 302 37 302 37 305 40 c 1,23,-1
 305 43 l 1,24,25
 282 20 282 20 250 7 c 128,-1,26
 218 -6 218 -6 183 -6 c 0,27,28
 155 -6 155 -6 132 3 c 128,-1,29
 109 12 109 12 94 27 c 128,-1,30
 79 42 79 42 73 62.5 c 128,-1,31
 67 83 67 83 72 107 c 2,32,-1
 99 231 l 2,33,34
 104 255 104 255 119 275.5 c 128,-1,35
 134 296 134 296 155.5 311.5 c 128,-1,36
 177 327 177 327 203.5 336 c 128,-1,37
 230 345 230 345 258 345 c 0,38,39
 293 345 293 345 319 332 c 128,-1,40
 345 319 345 319 358 296 c 1,41,-1
 360 299 l 1,42,43
 356 307 356 307 350 313 c 1,44,45
 354 328 354 328 363.5 336.5 c 128,-1,46
 373 345 373 345 393 345 c 1,47,-1
 297 -106 l 2,48,49
 289 -142 289 -142 253 -142 c 1,50,-1
 289 26 l 1,20,21
EndSplineSet
EndChar
StartChar: r
Encoding: 114 114 83
Width: 251
Flags: W
Fore
303 341 m 1,0,1
 293 309 293 309 261 312 c 0,2,3
 240 312 240 312 220.5 305.5 c 128,-1,4
 201 299 201 299 185 287.5 c 128,-1,5
 169 276 169 276 158.5 261.5 c 128,-1,6
 148 247 148 247 145 231 c 2,7,-1
 102 30 l 2,8,9
 94 -6 94 -6 58 -6 c 1,10,-1
 125 309 l 2,11,12
 132 345 132 345 169 345 c 1,13,-1
 162 311 l 1,14,15
 152 302 152 302 145 294 c 1,16,-1
 145 291 l 1,17,18
 169 317 169 317 201 331 c 128,-1,19
 233 345 233 345 268 345 c 0,20,21
 277 345 277 345 286 344 c 128,-1,22
 295 343 295 343 303 341 c 1,0,1
EndSplineSet
EndChar
StartChar: s
Encoding: 115 115 84
Width: 329
Flags: W
Fore
336 250 m 0,0,1
 334 231 334 231 321.5 221.5 c 128,-1,2
 309 212 309 212 292 214 c 1,3,4
 301 233 301 233 300 250.5 c 128,-1,5
 299 268 299 268 290 281.5 c 128,-1,6
 281 295 281 295 265.5 303.5 c 128,-1,7
 250 312 250 312 230 312 c 256,8,9
 210 312 210 312 193 306 c 128,-1,10
 176 300 176 300 162.5 290.5 c 128,-1,11
 149 281 149 281 140.5 268.5 c 128,-1,12
 132 256 132 256 131 244 c 0,13,14
 129 220 129 220 147 210 c 128,-1,15
 165 200 165 200 207 191 c 0,16,17
 234 185 234 185 256.5 179.5 c 128,-1,18
 279 174 279 174 294.5 165 c 128,-1,19
 310 156 310 156 317 142.5 c 128,-1,20
 324 129 324 129 321 107 c 256,21,22
 318 85 318 85 303.5 64.5 c 128,-1,23
 289 44 289 44 267 28.5 c 128,-1,24
 245 13 245 13 217.5 3.5 c 128,-1,25
 190 -6 190 -6 162 -6 c 0,26,27
 112 -6 112 -6 80 20.5 c 128,-1,28
 48 47 48 47 49 88 c 0,29,30
 50 105 50 105 61 115.5 c 128,-1,31
 72 126 72 126 92 124 c 1,32,33
 82 103 82 103 85.5 85.5 c 128,-1,34
 89 68 89 68 101 55 c 128,-1,35
 113 42 113 42 131 34.5 c 128,-1,36
 149 27 149 27 169 27 c 0,37,38
 190 27 190 27 210 33.5 c 128,-1,39
 230 40 230 40 246 51 c 128,-1,40
 262 62 262 62 272.5 76 c 128,-1,41
 283 90 283 90 285 105 c 0,42,43
 288 128 288 128 262 138.5 c 128,-1,44
 236 149 236 149 194 158 c 0,45,46
 138 169 138 169 114 184 c 128,-1,47
 90 199 90 199 95 240 c 0,48,49
 97 260 97 260 109 279 c 128,-1,50
 121 298 121 298 140 312.5 c 128,-1,51
 159 327 159 327 183.5 336 c 128,-1,52
 208 345 208 345 237 345 c 0,53,54
 289 345 289 345 313.5 318 c 128,-1,55
 338 291 338 291 336 250 c 0,0,1
EndSplineSet
EndChar
StartChar: t
Encoding: 116 116 85
Width: 200
Flags: W
Fore
165 -6 m 0,0,1
 119 -6 119 -6 98.5 20.5 c 128,-1,2
 78 47 78 47 86 85 c 2,3,-1
 133 306 l 1,4,-1
 75 306 l 1,5,6
 81 339 81 339 115 339 c 2,7,-1
 140 339 l 1,8,-1
 162 445 l 2,9,10
 169 481 169 481 206 481 c 1,11,-1
 176 339 l 1,12,-1
 239 339 l 1,13,14
 231 306 231 306 199 306 c 2,15,-1
 169 306 l 1,16,-1
 122 85 l 2,17,18
 117 61 117 61 129 44 c 128,-1,19
 141 27 141 27 172 27 c 0,20,21
 189 27 189 27 203 33 c 1,22,23
 208 19 208 19 196.5 6.5 c 128,-1,24
 185 -6 185 -6 165 -6 c 0,0,1
EndSplineSet
EndChar
StartChar: u
Encoding: 117 117 86
Width: 390
Flags: W
Fore
336 30 m 2,0,1
 328 -6 328 -6 292 -6 c 1,2,-1
 299 26 l 1,3,4
 303 28 303 28 307.5 32.5 c 128,-1,5
 312 37 312 37 315 40 c 1,6,-1
 315 43 l 1,7,8
 292 20 292 20 260 7 c 128,-1,9
 228 -6 228 -6 193 -6 c 0,10,11
 165 -6 165 -6 142 3 c 128,-1,12
 119 12 119 12 104 27.5 c 128,-1,13
 89 43 89 43 83 63.5 c 128,-1,14
 77 84 77 84 82 108 c 2,15,-1
 125 309 l 2,16,17
 132 345 132 345 169 345 c 1,18,-1
 118 108 l 2,19,20
 115 92 115 92 119 77.5 c 128,-1,21
 123 63 123 63 134 51.5 c 128,-1,22
 145 40 145 40 162 33.5 c 128,-1,23
 179 27 179 27 200 27 c 256,24,25
 221 27 221 27 240.5 33.5 c 128,-1,26
 260 40 260 40 276 51.5 c 128,-1,27
 292 63 292 63 302.5 77.5 c 128,-1,28
 313 92 313 92 316 108 c 2,29,-1
 359 309 l 2,30,31
 366 345 366 345 403 345 c 1,32,-1
 336 30 l 2,0,1
EndSplineSet
EndChar
StartChar: v
Encoding: 118 118 87
Width: 336
Flags: W
Fore
166 -6 m 0,0,1
 153 -6 153 -6 153 5 c 1,2,-1
 87 342 l 1,3,4
 103 348 103 348 113.5 342.5 c 128,-1,5
 124 337 124 337 126 324 c 2,6,-1
 177 55 l 1,7,-1
 167 35 l 1,8,-1
 167 32 l 1,9,-1
 346 324 l 2,10,11
 354 337 354 337 367 342.5 c 128,-1,12
 380 348 380 348 393 342 c 1,13,-1
 185 5 l 2,14,15
 178 -6 178 -6 166 -6 c 0,0,1
EndSplineSet
EndChar
StartChar: w
Encoding: 119 119 88
Width: 484
Flags: W
Fore
291 243 m 1,0,-1
 157 -6 l 1,1,2
 132 -6 132 -6 129 21 c 2,3,-1
 87 342 l 1,4,5
 121 352 121 352 125 321 c 2,6,-1
 158 61 l 1,7,-1
 150 42 l 1,8,-1
 151 39 l 1,9,-1
 287 296 l 2,10,11
 295 309 295 309 307 309 c 256,12,13
 319 309 319 309 321 296 c 2,14,-1
 346 61 l 1,15,-1
 338 42 l 1,16,-1
 339 39 l 1,17,-1
 495 321 l 2,18,19
 512 353 512 353 541 342 c 1,20,-1
 363 21 l 2,21,22
 355 8 355 8 346 1 c 128,-1,23
 337 -6 337 -6 323 -6 c 1,24,-1
 293 264 l 1,25,-1
 291 261 l 1,26,-1
 291 243 l 1,0,-1
EndSplineSet
EndChar
StartChar: x
Encoding: 120 120 89
Width: 338
Flags: W
Fore
323 3 m 1,0,1
 293 -17 293 -17 278 9 c 2,2,-1
 201 153 l 1,3,-1
 62 9 l 2,4,5
 37 -18 37 -18 15 3 c 1,6,-1
 186 181 l 1,7,-1
 102 337 l 1,8,9
 132 356 132 356 148 330 c 2,10,-1
 213 209 l 1,11,-1
 330 330 l 2,12,13
 355 357 355 357 378 337 c 1,14,-1
 228 181 l 1,15,-1
 323 3 l 1,0,1
EndSplineSet
EndChar
StartChar: y
Encoding: 121 121 90
Width: 336
Flags: W
Fore
27 -140 m 0,0,1
 -12 -149 -12 -149 -9 -113 c 1,2,3
 -2 -113 -2 -113 3 -112.5 c 128,-1,4
 8 -112 8 -112 16 -110 c 0,5,6
 54 -102 54 -102 79.5 -83 c 128,-1,7
 105 -64 105 -64 129 -26 c 2,8,-1
 152 10 l 1,9,-1
 87 342 l 1,10,11
 103 348 103 348 113.5 342.5 c 128,-1,12
 124 337 124 337 126 324 c 2,13,-1
 177 55 l 1,14,-1
 167 35 l 1,15,-1
 167 32 l 1,16,-1
 346 324 l 2,17,18
 354 337 354 337 367 342.5 c 128,-1,19
 380 348 380 348 393 342 c 1,20,-1
 159 -36 l 2,21,22
 131 -81 131 -81 100.5 -105.5 c 128,-1,23
 70 -130 70 -130 27 -140 c 0,0,1
EndSplineSet
EndChar
StartChar: z
Encoding: 122 122 91
Width: 302
Flags: W
Fore
113 306 m 2,0,1
 79 306 79 306 87 339 c 1,2,-1
 341 339 l 2,3,4
 352 339 352 339 355 328.5 c 128,-1,5
 358 318 358 318 348 309 c 2,6,-1
 56 19 l 1,7,-1
 59 20 l 1,8,-1
 74 33 l 1,9,-1
 261 33 l 2,10,11
 293 33 293 33 287 0 c 1,12,-1
 33 0 l 2,13,14
 22 0 22 0 18.5 10.5 c 128,-1,15
 15 21 15 21 25 30 c 2,16,-1
 318 320 l 1,17,-1
 314 319 l 1,18,-1
 300 306 l 1,19,-1
 113 306 l 2,0,1
EndSplineSet
EndChar
StartChar: braceleft
Encoding: 123 123 92
Width: 191
Flags: W
Fore
67 204 m 256,0,1
 70 217 70 217 82 217 c 0,2,3
 108 217 108 217 121.5 233.5 c 128,-1,4
 135 250 135 250 141 279 c 2,5,-1
 168 406 l 2,6,7
 177 448 177 448 199 470.5 c 128,-1,8
 221 493 221 493 253 493 c 2,9,-1
 300 493 l 1,10,11
 294 461 294 461 261 461 c 2,12,-1
 255 461 l 2,13,14
 240 461 240 461 228 452 c 128,-1,15
 216 443 216 443 210 415 c 2,16,-1
 182 286 l 2,17,18
 174 248 174 248 158.5 229.5 c 128,-1,19
 143 211 143 211 116 204 c 1,20,21
 140 197 140 197 148 178.5 c 128,-1,22
 156 160 156 160 147 122 c 2,23,-1
 120 -7 l 2,24,25
 114 -35 114 -35 122.5 -44 c 128,-1,26
 131 -53 131 -53 146 -53 c 2,27,-1
 152 -53 l 2,28,29
 184 -53 184 -53 177 -85 c 1,30,-1
 130 -85 l 2,31,32
 98 -85 98 -85 85.5 -62.5 c 128,-1,33
 73 -40 73 -40 82 2 c 2,34,-1
 109 129 l 2,35,36
 115 158 115 158 108.5 174.5 c 128,-1,37
 102 191 102 191 76 191 c 0,38,39
 64 191 64 191 67 204 c 256,0,1
EndSplineSet
EndChar
StartChar: bar
Encoding: 124 124 93
Width: 154
Flags: W
Fore
164 493 m 2,0,1
 172 527 172 527 206 527 c 1,2,-1
 79 -70 l 2,3,4
 71 -104 71 -104 37 -104 c 1,5,-1
 164 493 l 2,0,1
EndSplineSet
EndChar
StartChar: asciitilde
Encoding: 126 126 95
Width: 433
Flags: W
Fore
80 176 m 1,0,1
 63 209 63 209 100 227 c 0,2,3
 132 240 132 240 169 240 c 0,4,5
 211 240 211 240 261.5 215.5 c 128,-1,6
 312 191 312 191 343 191 c 0,7,8
 392 191 392 191 439 234 c 1,9,10
 450 223 450 223 448 210 c 128,-1,11
 446 197 446 197 430 186 c 0,12,13
 408 170 408 170 384.5 163 c 128,-1,14
 361 156 361 156 336 156 c 0,15,16
 298 156 298 156 238 183 c 0,17,18
 217 194 217 194 197.5 199 c 128,-1,19
 178 204 178 204 161 204 c 0,20,21
 136 204 136 204 115.5 196 c 128,-1,22
 95 188 95 188 80 176 c 1,0,1
EndSplineSet
EndChar
StartChar: quotedbl
Encoding: 34 34 97
Width: 232
Flags: W
Fore
142 433 m 2,0,1
 146 458 146 458 161.5 469.5 c 128,-1,2
 177 481 177 481 200 481 c 1,3,-1
 171 375 l 2,4,5
 168 361 168 361 155.5 349 c 128,-1,6
 143 337 143 337 127 337 c 1,7,-1
 142 433 l 2,0,1
229 433 m 2,8,9
 233 458 233 458 248.5 469.5 c 128,-1,10
 264 481 264 481 287 481 c 1,11,-1
 258 375 l 2,12,13
 255 361 255 361 242.5 349 c 128,-1,14
 230 337 230 337 214 337 c 1,15,-1
 229 433 l 2,8,9
EndSplineSet
EndChar
StartChar: exclam
Encoding: 33 33 98
Width: 147
Flags: W
Fore
136 426 m 2,0,1
 141 452 141 452 159 466.5 c 128,-1,2
 177 481 177 481 206 481 c 1,3,-1
 120 134 l 2,4,5
 110 96 110 96 76 96 c 1,6,-1
 136 426 l 2,0,1
42 31 m 0,7,8
 46 47 46 47 58.5 58 c 128,-1,9
 71 69 71 69 87 69 c 256,10,11
 103 69 103 69 112 58 c 128,-1,12
 121 47 121 47 117 31 c 0,13,14
 114 15 114 15 100.5 4.5 c 128,-1,15
 87 -6 87 -6 71 -6 c 256,16,17
 55 -6 55 -6 47 4.5 c 128,-1,18
 39 15 39 15 42 31 c 0,7,8
EndSplineSet
EndChar
StartChar: exclamdown
Encoding: 161 161 100
Width: 147
Flags: W
Fore
83 -87 m 2,0,1
 78 -113 78 -113 60 -127.5 c 128,-1,2
 42 -142 42 -142 13 -142 c 1,3,-1
 99 205 l 2,4,5
 108 243 108 243 143 243 c 1,6,-1
 83 -87 l 2,0,1
177 308 m 256,7,8
 174 292 174 292 161 281 c 128,-1,9
 148 270 148 270 132 270 c 256,10,11
 116 270 116 270 107.5 281 c 128,-1,12
 99 292 99 292 102 308 c 256,13,14
 105 324 105 324 118.5 334.5 c 128,-1,15
 132 345 132 345 148 345 c 256,16,17
 164 345 164 345 172 334.5 c 128,-1,18
 180 324 180 324 177 308 c 256,7,8
EndSplineSet
EndChar
StartChar: cent
Encoding: 162 162 101
Width: 344
Flags: W
Fore
244 361 m 2,0,1
 251 395 251 395 285 395 c 1,2,-1
 275 344 l 1,3,4
 311 340 311 340 335.5 321.5 c 128,-1,5
 360 303 360 303 368 274 c 0,6,7
 370 265 370 265 367 257 c 128,-1,8
 364 249 364 249 358.5 243.5 c 128,-1,9
 353 238 353 238 346 234.5 c 128,-1,10
 339 231 339 231 333 231 c 1,11,12
 339 260 339 260 321 283 c 128,-1,13
 303 306 303 306 268 311 c 1,14,-1
 207 28 l 1,15,16
 245 33 245 33 272.5 56 c 128,-1,17
 300 79 300 79 306 108 c 1,18,19
 317 108 317 108 326 95.5 c 128,-1,20
 335 83 335 83 323 65 c 0,21,22
 303 36 303 36 270.5 17.5 c 128,-1,23
 238 -1 238 -1 200 -5 c 1,24,-1
 197 -22 l 2,25,26
 190 -56 190 -56 156 -56 c 1,27,-1
 166 -5 l 1,28,29
 142 -2 142 -2 122.5 7.5 c 128,-1,30
 103 17 103 17 90 32 c 128,-1,31
 77 47 77 47 72 66 c 128,-1,32
 67 85 67 85 72 107 c 2,33,-1
 99 231 l 2,34,35
 103 253 103 253 116.5 272.5 c 128,-1,36
 130 292 130 292 149 307 c 128,-1,37
 168 322 168 322 191.5 331.5 c 128,-1,38
 215 341 215 341 241 344 c 1,39,-1
 244 361 l 2,0,1
135 231 m 2,40,-1
 108 107 l 2,41,42
 102 78 102 78 120 55.5 c 128,-1,43
 138 33 138 33 173 28 c 1,44,-1
 234 311 l 1,45,46
 196 306 196 306 168.5 283 c 128,-1,47
 141 260 141 260 135 231 c 2,40,-1
EndSplineSet
EndChar
StartChar: sterling
Encoding: 163 163 102
Width: 382
Flags: W
Fore
87 220 m 1,0,1
 94 256 94 256 131 256 c 2,2,-1
 179 256 l 1,3,4
 181 279 181 279 183.5 300.5 c 128,-1,5
 186 322 186 322 191 345 c 0,6,7
 197 375 197 375 212.5 400 c 128,-1,8
 228 425 228 425 249 443 c 128,-1,9
 270 461 270 461 296.5 471 c 128,-1,10
 323 481 323 481 352 481 c 0,11,12
 378 481 378 481 396 475 c 128,-1,13
 414 469 414 469 423 459 c 0,14,15
 431 451 431 451 428 439.5 c 128,-1,16
 425 428 425 428 416 421 c 1,17,18
 394 446 394 446 341 446 c 0,19,20
 296 446 296 446 268 419 c 128,-1,21
 240 392 240 392 230 344 c 0,22,23
 226 328 226 328 222.5 304.5 c 128,-1,24
 219 281 219 281 216 256 c 1,25,-1
 333 256 l 1,26,27
 325 220 325 220 289 220 c 2,28,-1
 212 220 l 1,29,30
 210 197 210 197 208 179 c 128,-1,31
 206 161 206 161 204 153 c 0,32,33
 195 110 195 110 175 83 c 128,-1,34
 155 56 155 56 122 36 c 1,35,-1
 322 36 l 2,36,37
 358 36 358 36 351 0 c 1,38,-1
 51 0 l 1,39,40
 56 26 56 26 74 37 c 0,41,42
 86 44 86 44 100.5 54.5 c 128,-1,43
 115 65 115 65 128 79 c 128,-1,44
 141 93 141 93 151.5 110 c 128,-1,45
 162 127 162 127 166 146 c 256,46,47
 170 165 170 165 172 183.5 c 128,-1,48
 174 202 174 202 176 220 c 1,49,-1
 87 220 l 1,0,1
EndSplineSet
EndChar
StartChar: currency
Encoding: 164 164 103
Width: 493
Flags: W
Fore
126 124 m 1,0,1
 96 174 96 174 110 238 c 0,2,3
 117 269 117 269 132.5 299 c 128,-1,4
 148 329 148 329 175 354 c 1,5,-1
 143 395 l 1,6,-1
 180 426 l 1,7,-1
 212 384 l 1,8,9
 241 404 241 404 274 414.5 c 128,-1,10
 307 425 307 425 336 425 c 0,11,12
 401 425 401 425 444 384 c 1,13,-1
 496 426 l 1,14,-1
 518 395 l 1,15,-1
 469 354 l 1,16,17
 484 331 484 331 487 300.5 c 128,-1,18
 490 270 490 270 483 238 c 0,19,20
 477 208 477 208 461 178.5 c 128,-1,21
 445 149 445 149 420 124 c 1,22,-1
 452 82 l 1,23,-1
 416 52 l 1,24,-1
 383 95 l 1,25,26
 354 73 354 73 321.5 62.5 c 128,-1,27
 289 52 289 52 257 52 c 256,28,29
 225 52 225 52 198 62 c 128,-1,30
 171 72 171 72 151 95 c 1,31,-1
 101 52 l 1,32,-1
 77 82 l 1,33,-1
 126 124 l 1,0,1
150 238 m 256,34,35
 143 207 143 207 148.5 179.5 c 128,-1,36
 154 152 154 152 169.5 131.5 c 128,-1,37
 185 111 185 111 209.5 99 c 128,-1,38
 234 87 234 87 264 87 c 256,39,40
 294 87 294 87 323.5 99 c 128,-1,41
 353 111 353 111 377 131.5 c 128,-1,42
 401 152 401 152 418 179.5 c 128,-1,43
 435 207 435 207 442 238 c 256,44,45
 449 269 449 269 443.5 296.5 c 128,-1,46
 438 324 438 324 422.5 344.5 c 128,-1,47
 407 365 407 365 382.5 377 c 128,-1,48
 358 389 358 389 328 389 c 256,49,50
 298 389 298 389 268.5 377 c 128,-1,51
 239 365 239 365 215 344.5 c 128,-1,52
 191 324 191 324 174 296.5 c 128,-1,53
 157 269 157 269 150 238 c 256,34,35
EndSplineSet
EndChar
StartChar: yen
Encoding: 165 165 104
Width: 400
Flags: W
Fore
112 265 m 1,0,1
 119 301 119 301 155 301 c 2,2,-1
 200 301 l 1,3,-1
 110 475 l 1,4,5
 126 485 126 485 140 481.5 c 128,-1,6
 154 478 154 478 160 465 c 2,7,-1
 258 275 l 1,8,-1
 436 465 l 2,9,10
 448 478 448 478 463.5 481.5 c 128,-1,11
 479 485 479 485 490 475 c 1,12,-1
 326 301 l 1,13,-1
 407 301 l 1,14,15
 399 265 399 265 364 265 c 2,16,-1
 293 265 l 1,17,-1
 271 242 l 1,18,-1
 264 211 l 1,19,-1
 388 211 l 1,20,21
 380 175 380 175 345 175 c 2,22,-1
 257 175 l 1,23,-1
 227 34 l 2,24,25
 218 -6 218 -6 178 -6 c 1,26,-1
 217 175 l 1,27,-1
 93 175 l 1,28,29
 100 211 100 211 136 211 c 2,30,-1
 224 211 l 1,31,-1
 231 242 l 1,32,-1
 219 265 l 1,33,-1
 112 265 l 1,0,1
EndSplineSet
EndChar
StartChar: brokenbar
Encoding: 166 166 105
Width: 154
Flags: W
Fore
164 493 m 2,0,1
 172 527 172 527 206 527 c 1,2,-1
 153 281 l 2,3,4
 147 247 147 247 112 247 c 1,5,-1
 164 493 l 2,0,1
90 142 m 2,6,7
 96 176 96 176 131 176 c 1,8,-1
 79 -70 l 2,9,10
 71 -104 71 -104 37 -104 c 1,11,-1
 90 142 l 2,6,7
EndSplineSet
EndChar
StartChar: section
Encoding: 167 167 106
Width: 393
Flags: W
Fore
381 229 m 0,0,1
 376 204 376 204 361 184.5 c 128,-1,2
 346 165 346 165 324 148 c 1,3,4
 330 140 330 140 334 125 c 128,-1,5
 338 110 338 110 334 92 c 0,6,7
 324 45 324 45 281.5 19.5 c 128,-1,8
 239 -6 239 -6 183 -6 c 0,9,10
 159 -6 159 -6 138 -1 c 128,-1,11
 117 4 117 4 106 12 c 0,12,13
 85 30 85 30 107 58 c 1,14,15
 118 44 118 44 139 36 c 128,-1,16
 160 28 160 28 192 28 c 0,17,18
 232 28 232 28 261 43.5 c 128,-1,19
 290 59 290 59 296 88 c 0,20,21
 302 115 302 115 285.5 131.5 c 128,-1,22
 269 148 269 148 216 165 c 0,23,24
 159 183 159 183 133.5 204.5 c 128,-1,25
 108 226 108 226 116 266 c 0,26,27
 120 283 120 283 132.5 301.5 c 128,-1,28
 145 320 145 320 176 340 c 1,29,30
 168 349 168 349 166 362 c 128,-1,31
 164 375 164 375 167 389 c 0,32,33
 176 431 176 431 216 456 c 128,-1,34
 256 481 256 481 310 481 c 0,35,36
 333 481 333 481 354 476 c 128,-1,37
 375 471 375 471 386 461 c 0,38,39
 393 456 393 456 391 444 c 128,-1,40
 389 432 389 432 381 424 c 1,41,42
 368 433 368 433 347 441.5 c 128,-1,43
 326 450 326 450 298 450 c 0,44,45
 265 450 265 450 238 435 c 128,-1,46
 211 420 211 420 206 395 c 0,47,48
 201 368 201 368 226 354 c 128,-1,49
 251 340 251 340 293 327 c 0,50,51
 315 319 315 319 333 310.5 c 128,-1,52
 351 302 351 302 363 290.5 c 128,-1,53
 375 279 375 279 380 264 c 128,-1,54
 385 249 385 249 381 229 c 0,0,1
340 224 m 0,55,56
 345 244 345 244 331.5 261 c 128,-1,57
 318 278 318 278 279 292 c 0,58,59
 261 298 261 298 238.5 306.5 c 128,-1,60
 216 315 216 315 201 324 c 1,61,62
 181 310 181 310 169 295 c 128,-1,63
 157 280 157 280 154 268 c 0,64,65
 151 251 151 251 164.5 233 c 128,-1,66
 178 215 178 215 229 199 c 0,67,68
 258 188 258 188 274.5 181 c 128,-1,69
 291 174 291 174 302 167 c 1,70,71
 316 179 316 179 326.5 194 c 128,-1,72
 337 209 337 209 340 224 c 0,55,56
EndSplineSet
EndChar
StartChar: dieresis
Encoding: 168 168 107
Width: 215
Flags: W
Fore
100 436 m 256,0,1
 103 450 103 450 115 460 c 128,-1,2
 127 470 127 470 141 470 c 256,3,4
 155 470 155 470 163 460 c 128,-1,5
 171 450 171 450 168 436 c 256,6,7
 165 422 165 422 153 412 c 128,-1,8
 141 402 141 402 127 402 c 256,9,10
 113 402 113 402 105 412 c 128,-1,11
 97 422 97 422 100 436 c 256,0,1
231 436 m 256,12,13
 234 450 234 450 246 460 c 128,-1,14
 258 470 258 470 272 470 c 256,15,16
 286 470 286 470 294 460 c 128,-1,17
 302 450 302 450 299 436 c 256,18,19
 296 422 296 422 284 412 c 128,-1,20
 272 402 272 402 258 402 c 256,21,22
 244 402 244 402 236 412 c 128,-1,23
 228 422 228 422 231 436 c 256,12,13
EndSplineSet
EndChar
StartChar: copyright
Encoding: 169 169 108
Width: 547
Flags: W
Fore
80 237 m 256,0,1
 91 288 91 288 119.5 332.5 c 128,-1,2
 148 377 148 377 188 410 c 128,-1,3
 228 443 228 443 276 462 c 128,-1,4
 324 481 324 481 375 481 c 256,5,6
 426 481 426 481 466 462 c 128,-1,7
 506 443 506 443 532.5 410 c 128,-1,8
 559 377 559 377 568.5 332.5 c 128,-1,9
 578 288 578 288 567 237 c 256,10,11
 556 186 556 186 527.5 142 c 128,-1,12
 499 98 499 98 459 65 c 128,-1,13
 419 32 419 32 370.5 13 c 128,-1,14
 322 -6 322 -6 271 -6 c 256,15,16
 220 -6 220 -6 180 13 c 128,-1,17
 140 32 140 32 114 65 c 128,-1,18
 88 98 88 98 78.5 142 c 128,-1,19
 69 186 69 186 80 237 c 256,0,1
116 236 m 256,20,21
 107 192 107 192 115 154 c 128,-1,22
 123 116 123 116 145 87.5 c 128,-1,23
 167 59 167 59 201 42.5 c 128,-1,24
 235 26 235 26 278 26 c 256,25,26
 321 26 321 26 362.5 42.5 c 128,-1,27
 404 59 404 59 438.5 87.5 c 128,-1,28
 473 116 473 116 497.5 154 c 128,-1,29
 522 192 522 192 531 236 c 256,30,31
 540 280 540 280 532 319 c 128,-1,32
 524 358 524 358 502 387 c 128,-1,33
 480 416 480 416 445.5 432.5 c 128,-1,34
 411 449 411 449 368 449 c 256,35,36
 325 449 325 449 284 432.5 c 128,-1,37
 243 416 243 416 208.5 387 c 128,-1,38
 174 358 174 358 149.5 319 c 128,-1,39
 125 280 125 280 116 236 c 256,20,21
350 352 m 256,40,41
 318 352 318 352 291.5 333 c 128,-1,42
 265 314 265 314 260 289 c 2,43,-1
 238 187 l 2,44,45
 233 161 233 161 251.5 142.5 c 128,-1,46
 270 124 270 124 302 124 c 0,47,48
 318 124 318 124 333.5 129.5 c 128,-1,49
 349 135 349 135 361.5 144 c 128,-1,50
 374 153 374 153 383 165 c 128,-1,51
 392 177 392 177 395 191 c 1,52,53
 412 193 412 193 419.5 184.5 c 128,-1,54
 427 176 427 176 418 158 c 0,55,56
 400 127 400 127 364.5 110.5 c 128,-1,57
 329 94 329 94 295 94 c 0,58,59
 276 94 276 94 257.5 100 c 128,-1,60
 239 106 239 106 225.5 118 c 128,-1,61
 212 130 212 130 205 147.5 c 128,-1,62
 198 165 198 165 203 187 c 2,63,-1
 225 289 l 2,64,65
 229 310 229 310 243 327 c 128,-1,66
 257 344 257 344 275.5 356 c 128,-1,67
 294 368 294 368 315 374.5 c 128,-1,68
 336 381 336 381 356 381 c 0,69,70
 390 381 390 381 418.5 365 c 128,-1,71
 447 349 447 349 452 318 c 0,72,73
 454 299 454 299 442.5 291 c 128,-1,74
 431 283 431 283 415 285 c 1,75,76
 421 311 421 311 401.5 331.5 c 128,-1,77
 382 352 382 352 350 352 c 256,40,41
EndSplineSet
EndChar
StartChar: ordfeminine
Encoding: 170 170 109
Width: 272
Flags: W
Fore
166 236 m 0,0,1
 198 236 198 236 221.5 253.5 c 128,-1,2
 245 271 245 271 250 294 c 0,3,4
 255 318 255 318 239 336 c 128,-1,5
 223 354 223 354 191 354 c 0,6,7
 160 354 160 354 135.5 336 c 128,-1,8
 111 318 111 318 106 294 c 0,9,10
 101 271 101 271 118 253.5 c 128,-1,11
 135 236 135 236 166 236 c 0,0,1
270 390 m 2,12,13
 275 413 275 413 258.5 430.5 c 128,-1,14
 242 448 242 448 211 448 c 0,15,16
 187 448 187 448 162.5 433 c 128,-1,17
 138 418 138 418 123 398 c 1,18,19
 113 406 113 406 112.5 418 c 128,-1,20
 112 430 112 430 123 440 c 0,21,22
 142 459 142 459 166.5 468.5 c 128,-1,23
 191 478 191 478 217 478 c 0,24,25
 236 478 236 478 253.5 472 c 128,-1,26
 271 466 271 466 283.5 454.5 c 128,-1,27
 296 443 296 443 302 426.5 c 128,-1,28
 308 410 308 410 304 390 c 2,29,-1
 272 236 l 2,30,31
 266 206 266 206 231 206 c 1,32,-1
 235 225 l 1,33,34
 244 231 244 231 252 239 c 1,35,-1
 252 242 l 1,36,37
 234 225 234 225 209.5 215.5 c 128,-1,38
 185 206 185 206 159 206 c 0,39,40
 115 206 115 206 89.5 231.5 c 128,-1,41
 64 257 64 257 72 294 c 0,42,43
 76 312 76 312 87.5 328.5 c 128,-1,44
 99 345 99 345 116 357.5 c 128,-1,45
 133 370 133 370 154 377 c 128,-1,46
 175 384 175 384 197 384 c 0,47,48
 223 384 223 384 243 374.5 c 128,-1,49
 263 365 263 365 274 348 c 1,50,-1
 276 351 l 1,51,52
 270 360 270 360 265 365 c 1,53,-1
 270 390 l 2,12,13
EndSplineSet
EndChar
StartChar: logicalnot
Encoding: 172 172 111
Width: 400
Flags: W
Fore
428 275 m 1,0,-1
 402 155 l 2,1,2
 396 121 396 121 361 121 c 1,3,-1
 387 241 l 1,4,-1
 81 241 l 1,5,6
 87 275 87 275 122 275 c 2,7,-1
 428 275 l 1,0,-1
EndSplineSet
EndChar
StartChar: registered
Encoding: 174 174 112
Width: 546
Flags: W
Fore
369 252 m 2,0,1
 386 252 386 252 401 267.5 c 128,-1,2
 416 283 416 283 419 299 c 0,3,4
 423 316 423 316 414.5 331 c 128,-1,5
 406 346 406 346 389 346 c 2,6,-1
 274 346 l 1,7,-1
 254 252 l 1,8,-1
 369 252 l 2,0,1
226 122 m 2,9,10
 221 95 221 95 187 95 c 1,11,-1
 243 360 l 2,12,13
 245 366 245 366 250 370.5 c 128,-1,14
 255 375 255 375 263 375 c 2,15,-1
 395 375 l 2,16,17
 427 375 427 375 443 352.5 c 128,-1,18
 459 330 459 330 452 299 c 0,19,20
 448 282 448 282 436 265 c 128,-1,21
 424 248 424 248 407 237 c 1,22,23
 436 218 436 218 428 175 c 2,24,-1
 416 122 l 2,25,26
 411 95 411 95 377 95 c 1,27,-1
 394 175 l 2,28,29
 399 198 399 198 389.5 210 c 128,-1,30
 380 222 380 222 363 222 c 2,31,-1
 248 222 l 1,32,-1
 226 122 l 2,9,10
80 237 m 256,33,34
 91 288 91 288 119.5 332.5 c 128,-1,35
 148 377 148 377 188 410 c 128,-1,36
 228 443 228 443 276 462 c 128,-1,37
 324 481 324 481 375 481 c 256,38,39
 426 481 426 481 466 462 c 128,-1,40
 506 443 506 443 532.5 410 c 128,-1,41
 559 377 559 377 568.5 332.5 c 128,-1,42
 578 288 578 288 567 237 c 256,43,44
 556 186 556 186 527.5 142 c 128,-1,45
 499 98 499 98 459 65 c 128,-1,46
 419 32 419 32 370.5 13 c 128,-1,47
 322 -6 322 -6 271 -6 c 256,48,49
 220 -6 220 -6 180 13 c 128,-1,50
 140 32 140 32 114 65 c 128,-1,51
 88 98 88 98 78.5 142 c 128,-1,52
 69 186 69 186 80 237 c 256,33,34
116 236 m 256,53,54
 107 192 107 192 115 154 c 128,-1,55
 123 116 123 116 145 87.5 c 128,-1,56
 167 59 167 59 201 42.5 c 128,-1,57
 235 26 235 26 278 26 c 256,58,59
 321 26 321 26 362.5 42.5 c 128,-1,60
 404 59 404 59 438.5 87.5 c 128,-1,61
 473 116 473 116 497.5 154 c 128,-1,62
 522 192 522 192 531 236 c 256,63,64
 540 280 540 280 532 319 c 128,-1,65
 524 358 524 358 502 387 c 128,-1,66
 480 416 480 416 445.5 432.5 c 128,-1,67
 411 449 411 449 368 449 c 256,68,69
 325 449 325 449 284 432.5 c 128,-1,70
 243 416 243 416 208.5 387 c 128,-1,71
 174 358 174 358 149.5 319 c 128,-1,72
 125 280 125 280 116 236 c 256,53,54
EndSplineSet
EndChar
StartChar: macron
Encoding: 175 175 113
Width: 216
Flags: W
Fore
117 422 m 1,0,-1
 124 454 l 1,1,-1
 283 454 l 1,2,-1
 276 422 l 1,3,-1
 117 422 l 1,0,-1
EndSplineSet
EndChar
StartChar: degree
Encoding: 176 176 114
Width: 216
Flags: W
Fore
97 390 m 0,0,1
 101 409 101 409 112 425.5 c 128,-1,2
 123 442 123 442 138 454.5 c 128,-1,3
 153 467 153 467 171.5 474 c 128,-1,4
 190 481 190 481 209 481 c 256,5,6
 228 481 228 481 243 474 c 128,-1,7
 258 467 258 467 268 454.5 c 128,-1,8
 278 442 278 442 281.5 425.5 c 128,-1,9
 285 409 285 409 281 390 c 256,10,11
 277 371 277 371 266.5 354.5 c 128,-1,12
 256 338 256 338 241 325.5 c 128,-1,13
 226 313 226 313 207.5 306 c 128,-1,14
 189 299 189 299 170 299 c 0,15,16
 132 299 132 299 110.5 325.5 c 128,-1,17
 89 352 89 352 97 390 c 0,0,1
134 390 m 256,18,19
 129 365 129 365 141.5 348 c 128,-1,20
 154 331 154 331 177 331 c 256,21,22
 200 331 200 331 219.5 348 c 128,-1,23
 239 365 239 365 244 390 c 256,24,25
 249 415 249 415 237 432 c 128,-1,26
 225 449 225 449 202 449 c 256,27,28
 179 449 179 449 159 432 c 128,-1,29
 139 415 139 415 134 390 c 256,18,19
EndSplineSet
EndChar
StartChar: plusminus
Encoding: 177 177 115
Width: 400
Flags: W
Fore
220 181 m 1,0,-1
 68 181 l 1,1,2
 76 215 76 215 109 215 c 2,3,-1
 227 215 l 1,4,-1
 246 303 l 2,5,6
 253 339 253 339 290 339 c 1,7,-1
 263 215 l 1,8,-1
 415 215 l 1,9,10
 409 181 409 181 374 181 c 2,11,-1
 256 181 l 1,12,-1
 237 93 l 2,13,14
 229 57 229 57 194 57 c 1,15,-1
 220 181 l 1,0,-1
30 -1 m 1,16,17
 33 16 33 16 44.5 25.5 c 128,-1,18
 56 35 56 35 73 35 c 2,19,-1
 377 35 l 1,20,21
 374 18 374 18 362.5 8.5 c 128,-1,22
 351 -1 351 -1 334 -1 c 2,23,-1
 30 -1 l 1,16,17
EndSplineSet
EndChar
StartChar: twosuperior
Encoding: 178 178 116
Width: 278
Flags: W
Fore
262 238 m 2,0,1
 288 238 288 238 282 208 c 1,2,-1
 100 208 l 2,3,4
 94 208 94 208 89.5 211.5 c 128,-1,5
 85 215 85 215 87 222 c 0,6,7
 94 256 94 256 122 285 c 128,-1,8
 150 314 150 314 199 333 c 0,9,10
 232 346 232 346 258 359.5 c 128,-1,11
 284 373 284 373 289 395 c 0,12,13
 294 416 294 416 278 432.5 c 128,-1,14
 262 449 262 449 234 449 c 0,15,16
 207 449 207 449 183.5 432.5 c 128,-1,17
 160 416 160 416 155 395 c 1,18,19
 155 393 155 393 154.5 390 c 128,-1,20
 154 387 154 387 154 379 c 1,21,22
 141 379 141 379 132 388 c 128,-1,23
 123 397 123 397 127 406 c 0,24,25
 134 422 134 422 146.5 435.5 c 128,-1,26
 159 449 159 449 174.5 458.5 c 128,-1,27
 190 468 190 468 207 473 c 128,-1,28
 224 478 224 478 240 478 c 0,29,30
 257 478 257 478 273.5 472.5 c 128,-1,31
 290 467 290 467 302 456.5 c 128,-1,32
 314 446 314 446 319.5 430.5 c 128,-1,33
 325 415 325 415 321 395 c 0,34,35
 318 378 318 378 307 364.5 c 128,-1,36
 296 351 296 351 280.5 340.5 c 128,-1,37
 265 330 265 330 245.5 321.5 c 128,-1,38
 226 313 226 313 206 305 c 0,39,40
 175 293 175 293 154.5 275.5 c 128,-1,41
 134 258 134 258 125 238 c 1,42,-1
 262 238 l 2,0,1
EndSplineSet
EndChar
StartChar: threesuperior
Encoding: 179 179 117
Width: 278
Flags: W
Fore
144 420 m 0,0,1
 152 441 152 441 178.5 459.5 c 128,-1,2
 205 478 205 478 240 478 c 0,3,4
 274 478 274 478 295.5 457.5 c 128,-1,5
 317 437 317 437 310 408 c 0,6,7
 307 392 307 392 296 378 c 128,-1,8
 285 364 285 364 268 354 c 1,9,10
 287 343 287 343 295 325 c 128,-1,11
 303 307 303 307 298 286 c 0,12,13
 291 252 291 252 257.5 228.5 c 128,-1,14
 224 205 224 205 182 205 c 256,15,16
 140 205 140 205 117.5 227.5 c 128,-1,17
 95 250 95 250 99 275 c 0,18,19
 103 302 103 302 137 302 c 1,20,21
 135 297 135 297 134 293.5 c 128,-1,22
 133 290 133 290 132 286 c 0,23,24
 127 264 127 264 143.5 249 c 128,-1,25
 160 234 160 234 188 234 c 0,26,27
 215 234 215 234 237.5 249 c 128,-1,28
 260 264 260 264 265 286 c 0,29,30
 270 307 270 307 253.5 322.5 c 128,-1,31
 237 338 237 338 210 338 c 0,32,33
 194 338 194 338 196 352 c 0,34,35
 198 359 198 359 204 363 c 128,-1,36
 210 367 210 367 217 367 c 0,37,38
 238 367 238 367 256 379 c 128,-1,39
 274 391 274 391 277 408 c 0,40,41
 281 425 281 425 268 437 c 128,-1,42
 255 449 255 449 234 449 c 0,43,44
 212 449 212 449 194.5 437 c 128,-1,45
 177 425 177 425 173 408 c 1,46,47
 173 406 173 406 172.5 402.5 c 128,-1,48
 172 399 172 399 173 394 c 1,49,50
 157 392 157 392 147.5 399 c 128,-1,51
 138 406 138 406 144 420 c 0,0,1
EndSplineSet
EndChar
StartChar: acute
Encoding: 180 180 118
Width: 212
Flags: W
Fore
196 459 m 2,0,1
 212 477 212 477 247 477 c 2,2,-1
 270 477 l 1,3,-1
 166 384 l 2,4,5
 158 378 158 378 148.5 375.5 c 128,-1,6
 139 373 139 373 122 373 c 1,7,-1
 196 459 l 2,0,1
EndSplineSet
EndChar
StartChar: mu
Encoding: 181 181 119
Width: 390
Flags: W
Fore
193 -6 m 256,0,1
 158 -6 158 -6 132 7 c 128,-1,2
 106 20 106 20 93 43 c 1,3,-1
 91 40 l 1,4,5
 95 32 95 32 101 26 c 1,6,-1
 73 -106 l 2,7,8
 65 -142 65 -142 29 -142 c 1,9,-1
 125 309 l 2,10,11
 132 345 132 345 169 345 c 1,12,-1
 118 108 l 2,13,14
 115 92 115 92 119 77.5 c 128,-1,15
 123 63 123 63 134 51.5 c 128,-1,16
 145 40 145 40 162 33.5 c 128,-1,17
 179 27 179 27 200 27 c 256,18,19
 221 27 221 27 240.5 33.5 c 128,-1,20
 260 40 260 40 276 51.5 c 128,-1,21
 292 63 292 63 302.5 77.5 c 128,-1,22
 313 92 313 92 316 108 c 2,23,-1
 359 309 l 2,24,25
 366 345 366 345 403 345 c 1,26,-1
 336 30 l 2,27,28
 328 -6 328 -6 292 -6 c 1,29,-1
 299 26 l 1,30,31
 303 28 303 28 307.5 32.5 c 128,-1,32
 312 37 312 37 315 40 c 1,33,-1
 315 43 l 1,34,35
 292 20 292 20 260 7 c 128,-1,36
 228 -6 228 -6 193 -6 c 256,0,1
EndSplineSet
EndChar
StartChar: paragraph
Encoding: 182 182 120
Width: 371
Flags: W
Fore
299 -56 m 2,0,1
 290 -92 290 -92 253 -92 c 1,2,-1
 368 449 l 1,3,-1
 320 449 l 1,4,-1
 213 -56 l 2,5,6
 204 -92 204 -92 167 -92 c 1,7,-1
 225 180 l 1,8,-1
 221 180 l 2,9,10
 193 180 193 180 166.5 189 c 128,-1,11
 140 198 140 198 121 216 c 128,-1,12
 102 234 102 234 93 260.5 c 128,-1,13
 84 287 84 287 92 323 c 0,14,15
 98 350 98 350 112.5 378 c 128,-1,16
 127 406 127 406 155 429 c 128,-1,17
 183 452 183 452 225.5 466.5 c 128,-1,18
 268 481 268 481 330 481 c 0,19,20
 363 481 363 481 382 479.5 c 128,-1,21
 401 478 401 478 412 476 c 1,22,-1
 299 -56 l 2,0,1
EndSplineSet
EndChar
StartChar: periodcentered
Encoding: 183 183 121
Width: 230
Flags: W
Fore
92 198 m 0,0,1
 97 225 97 225 120 244 c 128,-1,2
 143 263 143 263 170 263 c 256,3,4
 197 263 197 263 212 244 c 128,-1,5
 227 225 227 225 222 198 c 0,6,7
 216 171 216 171 193 152 c 128,-1,8
 170 133 170 133 143 133 c 256,9,10
 116 133 116 133 101 152 c 128,-1,11
 86 171 86 171 92 198 c 0,0,1
EndSplineSet
EndChar
StartChar: cedilla
Encoding: 184 184 122
Width: 175
Flags: W
Fore
132 -80 m 0,0,1
 126 -109 126 -109 99.5 -124.5 c 128,-1,2
 73 -140 73 -140 46 -140 c 0,3,4
 24 -140 24 -140 8 -129 c 0,5,6
 -8 -115 -8 -115 7 -97 c 1,7,8
 24 -113 24 -113 51 -113 c 0,9,10
 65 -113 65 -113 79 -105.5 c 128,-1,11
 93 -98 93 -98 95 -85 c 0,12,13
 99 -67 99 -67 79.5 -59.5 c 128,-1,14
 60 -52 60 -52 33 -54 c 1,15,-1
 86 7 l 1,16,-1
 116 7 l 1,17,-1
 80 -32 l 1,18,19
 106 -32 106 -32 121.5 -46 c 128,-1,20
 137 -60 137 -60 132 -80 c 0,0,1
EndSplineSet
EndChar
StartChar: onesuperior
Encoding: 185 185 123
Width: 278
Flags: W
Fore
254 475 m 1,0,1
 262 475 262 475 267 470 c 128,-1,2
 272 465 272 465 270 458 c 2,3,-1
 223 239 l 2,4,5
 217 205 217 205 182 205 c 1,6,-1
 233 445 l 1,7,-1
 222 445 l 2,8,9
 208 445 208 445 202 453 c 128,-1,10
 196 461 196 461 198 475 c 1,11,-1
 254 475 l 1,12,-1
 254 475 l 1,0,1
EndSplineSet
EndChar
StartChar: ordmasculine
Encoding: 186 186 124
Width: 294
Flags: W
Fore
72 341 m 0,0,1
 78 369 78 369 94 394 c 128,-1,2
 110 419 110 419 132.5 437.5 c 128,-1,3
 155 456 155 456 182 467 c 128,-1,4
 209 478 209 478 237 478 c 0,5,6
 266 478 266 478 289 467 c 128,-1,7
 312 456 312 456 326.5 437.5 c 128,-1,8
 341 419 341 419 346.5 394 c 128,-1,9
 352 369 352 369 346 341 c 0,10,11
 340 314 340 314 324 289.5 c 128,-1,12
 308 265 308 265 285.5 246.5 c 128,-1,13
 263 228 263 228 235.5 217 c 128,-1,14
 208 206 208 206 179 206 c 0,15,16
 151 206 151 206 128.5 217 c 128,-1,17
 106 228 106 228 91.5 246.5 c 128,-1,18
 77 265 77 265 71.5 289.5 c 128,-1,19
 66 314 66 314 72 341 c 0,0,1
106 341 m 256,20,21
 101 319 101 319 105 300 c 128,-1,22
 109 281 109 281 120.5 266.5 c 128,-1,23
 132 252 132 252 148.5 244 c 128,-1,24
 165 236 165 236 186 236 c 0,25,26
 208 236 208 236 228.5 244 c 128,-1,27
 249 252 249 252 266 266.5 c 128,-1,28
 283 281 283 281 295 300 c 128,-1,29
 307 319 307 319 312 341 c 0,30,31
 322 386 322 386 298.5 417 c 128,-1,32
 275 448 275 448 231 448 c 0,33,34
 210 448 210 448 190 439.5 c 128,-1,35
 170 431 170 431 153 416.5 c 128,-1,36
 136 402 136 402 123.5 382.5 c 128,-1,37
 111 363 111 363 106 341 c 256,20,21
EndSplineSet
EndChar
StartChar: onequarter
Encoding: 188 188 126
Width: 567
Flags: W
Fore
258 475 m 2,0,1
 266 475 266 475 271 470 c 128,-1,2
 276 465 276 465 274 458 c 2,3,-1
 227 239 l 2,4,5
 221 205 221 205 186 205 c 1,6,-1
 237 445 l 1,7,-1
 226 445 l 2,8,9
 212 445 212 445 206 453 c 128,-1,10
 200 461 200 461 202 475 c 1,11,-1
 258 475 l 2,0,1
554 94 m 1,12,13
 548 64 548 64 523 64 c 2,14,-1
 505 64 l 1,15,-1
 497 24 l 2,16,17
 491 -3 491 -3 457 -3 c 1,18,-1
 471 64 l 1,19,-1
 339 64 l 2,20,21
 328 64 328 64 325.5 72 c 128,-1,22
 323 80 323 80 331 89 c 2,23,-1
 518 264 l 2,24,25
 528 272 528 272 537.5 268.5 c 128,-1,26
 547 265 547 265 545 254 c 2,27,-1
 511 94 l 1,28,-1
 554 94 l 1,12,13
477 94 m 1,29,-1
 503 212 l 1,30,-1
 376 94 l 1,31,-1
 477 94 l 1,29,-1
486 479 m 2,32,33
 509 511 509 511 538 495 c 1,34,-1
 181 -4 l 2,35,36
 157 -37 157 -37 130 -20 c 1,37,-1
 486 479 l 2,32,33
EndSplineSet
Ligature: 0 0 'frac' one fraction four
Ligature: 0 0 'frac' one slash four
EndChar
StartChar: onehalf
Encoding: 189 189 127
Width: 567
Flags: W
Fore
258 475 m 2,0,1
 266 475 266 475 271 470 c 128,-1,2
 276 465 276 465 274 458 c 2,3,-1
 227 239 l 2,4,5
 221 205 221 205 186 205 c 1,6,-1
 237 445 l 1,7,-1
 226 445 l 2,8,9
 212 445 212 445 206 453 c 128,-1,10
 200 461 200 461 202 475 c 1,11,-1
 258 475 l 2,0,1
503 30 m 2,12,13
 529 30 529 30 523 0 c 1,14,-1
 341 0 l 2,15,16
 335 0 335 0 330.5 3.5 c 128,-1,17
 326 7 326 7 327 14 c 0,18,19
 335 48 335 48 363 77 c 128,-1,20
 391 106 391 106 440 125 c 0,21,22
 473 138 473 138 499 151.5 c 128,-1,23
 525 165 525 165 530 187 c 0,24,25
 535 208 535 208 519 224.5 c 128,-1,26
 503 241 503 241 475 241 c 0,27,28
 448 241 448 241 424.5 224.5 c 128,-1,29
 401 208 401 208 396 187 c 1,30,31
 396 185 396 185 395.5 182 c 128,-1,32
 395 179 395 179 395 171 c 1,33,34
 382 171 382 171 373 180 c 128,-1,35
 364 189 364 189 368 198 c 0,36,37
 375 214 375 214 387.5 227.5 c 128,-1,38
 400 241 400 241 415.5 250.5 c 128,-1,39
 431 260 431 260 448 265 c 128,-1,40
 465 270 465 270 481 270 c 0,41,42
 498 270 498 270 514.5 264.5 c 128,-1,43
 531 259 531 259 543 248.5 c 128,-1,44
 555 238 555 238 560.5 222.5 c 128,-1,45
 566 207 566 207 562 187 c 0,46,47
 554 152 554 152 521 132.5 c 128,-1,48
 488 113 488 113 447 97 c 0,49,50
 416 85 416 85 395 67.5 c 128,-1,51
 374 50 374 50 366 30 c 1,52,-1
 503 30 l 2,12,13
486 479 m 2,53,54
 509 511 509 511 538 495 c 1,55,-1
 181 -4 l 2,56,57
 157 -37 157 -37 130 -20 c 1,58,-1
 486 479 l 2,53,54
EndSplineSet
Ligature: 0 0 'frac' one fraction two
Ligature: 0 0 'frac' one slash two
EndChar
StartChar: threequarters
Encoding: 190 190 128
Width: 567
Flags: W
Fore
554 94 m 1,0,1
 548 64 548 64 523 64 c 2,2,-1
 505 64 l 1,3,-1
 497 24 l 2,4,5
 491 -3 491 -3 457 -3 c 1,6,-1
 471 64 l 1,7,-1
 339 64 l 2,8,9
 328 64 328 64 325.5 72 c 128,-1,10
 323 80 323 80 331 89 c 2,11,-1
 518 264 l 2,12,13
 528 272 528 272 537.5 268.5 c 128,-1,14
 547 265 547 265 545 254 c 2,15,-1
 511 94 l 1,16,-1
 554 94 l 1,0,1
477 94 m 1,17,-1
 503 212 l 1,18,-1
 376 94 l 1,19,-1
 477 94 l 1,17,-1
148 420 m 0,20,21
 156 441 156 441 182.5 459.5 c 128,-1,22
 209 478 209 478 244 478 c 0,23,24
 278 478 278 478 299.5 457.5 c 128,-1,25
 321 437 321 437 314 408 c 0,26,27
 311 392 311 392 300 378 c 128,-1,28
 289 364 289 364 272 354 c 1,29,30
 291 343 291 343 299 325 c 128,-1,31
 307 307 307 307 302 286 c 0,32,33
 295 252 295 252 261.5 228.5 c 128,-1,34
 228 205 228 205 186 205 c 256,35,36
 144 205 144 205 121.5 227.5 c 128,-1,37
 99 250 99 250 103 275 c 0,38,39
 107 302 107 302 141 302 c 1,40,41
 139 297 139 297 138 293.5 c 128,-1,42
 137 290 137 290 136 286 c 0,43,44
 131 264 131 264 147.5 249 c 128,-1,45
 164 234 164 234 192 234 c 0,46,47
 219 234 219 234 241.5 249 c 128,-1,48
 264 264 264 264 269 286 c 0,49,50
 274 307 274 307 257.5 322.5 c 128,-1,51
 241 338 241 338 214 338 c 0,52,53
 198 338 198 338 200 352 c 0,54,55
 202 359 202 359 208 363 c 128,-1,56
 214 367 214 367 221 367 c 0,57,58
 242 367 242 367 260 379 c 128,-1,59
 278 391 278 391 281 408 c 0,60,61
 285 425 285 425 272 437 c 128,-1,62
 259 449 259 449 238 449 c 0,63,64
 216 449 216 449 198.5 437 c 128,-1,65
 181 425 181 425 177 408 c 1,66,67
 177 406 177 406 176.5 402.5 c 128,-1,68
 176 399 176 399 177 394 c 1,69,70
 161 392 161 392 151.5 399 c 128,-1,71
 142 406 142 406 148 420 c 0,20,21
486 479 m 2,72,73
 509 511 509 511 538 495 c 1,74,-1
 181 -4 l 2,75,76
 157 -37 157 -37 130 -20 c 1,77,-1
 486 479 l 2,72,73
EndSplineSet
Ligature: 0 0 'frac' three fraction four
Ligature: 0 0 'frac' three slash four
EndChar
StartChar: questiondown
Encoding: 191 191 129
Width: 334
Flags: W
Fore
195 205 m 2,0,1
 204 243 204 243 241 243 c 1,2,-1
 229 184 l 2,3,4
 221 149 221 149 197.5 127 c 128,-1,5
 174 105 174 105 147 86 c 128,-1,6
 120 67 120 67 96.5 45.5 c 128,-1,7
 73 24 73 24 66 -10 c 0,8,9
 57 -52 57 -52 80 -80 c 128,-1,10
 103 -108 103 -108 148 -108 c 0,11,12
 169 -108 169 -108 189 -101 c 128,-1,13
 209 -94 209 -94 225.5 -81 c 128,-1,14
 242 -68 242 -68 253.5 -50 c 128,-1,15
 265 -32 265 -32 270 -10 c 0,16,17
 272 -4 272 -4 272.5 -0.5 c 128,-1,18
 273 3 273 3 273 9 c 1,19,20
 289 9 289 9 299 -2 c 128,-1,21
 309 -13 309 -13 303 -29 c 0,22,23
 294 -55 294 -55 278 -76 c 128,-1,24
 262 -97 262 -97 240 -111.5 c 128,-1,25
 218 -126 218 -126 192.5 -134 c 128,-1,26
 167 -142 167 -142 140 -142 c 0,27,28
 112 -142 112 -142 88.5 -133 c 128,-1,29
 65 -124 65 -124 49.5 -107 c 128,-1,30
 34 -90 34 -90 28 -65.5 c 128,-1,31
 22 -41 22 -41 28 -10 c 0,32,33
 37 31 37 31 61.5 56.5 c 128,-1,34
 86 82 86 82 112.5 101 c 128,-1,35
 139 120 139 120 162 138.5 c 128,-1,36
 185 157 185 157 191 184 c 2,37,-1
 195 205 l 2,0,1
273 308 m 256,38,39
 270 292 270 292 257 281 c 128,-1,40
 244 270 244 270 228 270 c 256,41,42
 212 270 212 270 203.5 281 c 128,-1,43
 195 292 195 292 198 308 c 256,44,45
 201 324 201 324 214.5 334.5 c 128,-1,46
 228 345 228 345 244 345 c 256,47,48
 260 345 260 345 268 334.5 c 128,-1,49
 276 324 276 324 273 308 c 256,38,39
EndSplineSet
EndChar
StartChar: AE
Encoding: 198 198 135
Width: 603
Flags: W
Fore
407 475 m 1,0,-1
 647 475 l 2,1,2
 683 475 683 475 676 439 c 1,3,-1
 438 439 l 1,4,-1
 420 256 l 1,5,-1
 617 256 l 1,6,7
 609 220 609 220 573 220 c 2,8,-1
 417 220 l 1,9,-1
 399 36 l 1,10,-1
 600 36 l 1,11,12
 592 0 592 0 557 0 c 2,13,-1
 353 0 l 1,14,-1
 369 155 l 1,15,-1
 166 155 l 1,16,-1
 24 -6 l 1,17,18
 11 0 11 0 11.5 15 c 128,-1,19
 12 30 12 30 26 46 c 2,20,-1
 407 475 l 1,0,-1
198 191 m 1,21,-1
 373 191 l 1,22,-1
 398 436 l 1,23,-1
 396 433 l 1,24,-1
 392 413 l 1,25,-1
 198 191 l 1,21,-1
EndSplineSet
EndChar
StartChar: Eth
Encoding: 208 208 145
Width: 484
Flags: W
Fore
347 475 m 2,0,1
 380 475 380 475 411 464.5 c 128,-1,2
 442 454 442 454 465 434.5 c 128,-1,3
 488 415 488 415 499 386 c 128,-1,4
 510 357 510 357 502 320 c 2,5,-1
 467 156 l 2,6,7
 459 120 459 120 436.5 91.5 c 128,-1,8
 414 63 414 63 383 42.5 c 128,-1,9
 352 22 352 22 316.5 11 c 128,-1,10
 281 0 281 0 247 0 c 2,11,-1
 80 0 l 2,12,13
 71 0 71 0 66.5 6 c 128,-1,14
 62 12 62 12 64 20 c 2,15,-1
 106 221 l 1,16,-1
 46 221 l 1,17,18
 54 255 54 255 88 255 c 2,19,-1
 114 255 l 1,20,-1
 156 455 l 2,21,22
 161 475 161 475 180 475 c 2,23,-1
 347 475 l 2,0,1
193 439 m 1,24,-1
 154 255 l 1,25,-1
 267 255 l 1,26,27
 259 221 259 221 225 221 c 2,28,-1
 146 221 l 1,29,-1
 107 36 l 1,30,-1
 254 36 l 2,31,32
 284 36 284 36 313 45.5 c 128,-1,33
 342 55 342 55 366 71.5 c 128,-1,34
 390 88 390 88 406.5 110 c 128,-1,35
 423 132 423 132 428 156 c 2,36,-1
 463 320 l 2,37,38
 468 344 468 344 460.5 366 c 128,-1,39
 453 388 453 388 436.5 404 c 128,-1,40
 420 420 420 420 395 429.5 c 128,-1,41
 370 439 370 439 340 439 c 2,42,-1
 193 439 l 1,24,-1
EndSplineSet
EndChar
StartChar: multiply
Encoding: 215 215 152
Width: 400
Flags: W
Fore
361 75 m 1,0,1
 332 52 332 52 313 75 c 2,2,-1
 121 320 l 1,3,4
 150 343 150 343 169 320 c 2,5,-1
 361 75 l 1,0,1
366 320 m 2,6,7
 394 343 394 343 414 320 c 1,8,-1
 116 75 l 2,9,10
 88 52 88 52 68 75 c 1,11,-1
 366 320 l 2,6,7
EndSplineSet
EndChar
StartChar: Thorn
Encoding: 222 222 159
Width: 395
Flags: W
Fore
414 267 m 0,0,1
 406 232 406 232 386.5 204 c 128,-1,2
 367 176 367 176 337.5 156.5 c 128,-1,3
 308 137 308 137 270 126.5 c 128,-1,4
 232 116 232 116 189 116 c 0,5,6
 174 116 174 116 156 116.5 c 128,-1,7
 138 117 138 117 124 120 c 1,8,-1
 106 33 l 2,9,10
 101 14 101 14 88.5 4 c 128,-1,11
 76 -6 76 -6 58 -6 c 1,12,-1
 153 441 l 2,13,14
 157 459 157 459 170 469.5 c 128,-1,15
 183 480 183 480 201 480 c 1,16,-1
 181 390 l 1,17,18
 203 395 203 395 226.5 396 c 128,-1,19
 250 397 250 397 267 397 c 0,20,21
 358 397 358 397 394 355 c 0,22,23
 425 319 425 319 414 267 c 0,0,1
374 262 m 0,24,25
 380 291 380 291 373.5 310.5 c 128,-1,26
 367 330 367 330 350.5 342 c 128,-1,27
 334 354 334 354 310.5 359 c 128,-1,28
 287 364 287 364 260 364 c 0,29,30
 234 364 234 364 210.5 361.5 c 128,-1,31
 187 359 187 359 174 355 c 1,32,-1
 132 156 l 1,33,34
 149 152 149 152 165.5 151 c 128,-1,35
 182 150 182 150 198 150 c 0,36,37
 272 150 272 150 317.5 179.5 c 128,-1,38
 363 209 363 209 374 262 c 0,24,25
EndSplineSet
EndChar
StartChar: uni00DF
Encoding: 223 223 160
Width: 371
Flags: W
Fore
135 354 m 2,0,1
 147 411 147 411 183.5 446 c 128,-1,2
 220 481 220 481 280 481 c 0,3,4
 305 481 305 481 324.5 471.5 c 128,-1,5
 344 462 344 462 355 446.5 c 128,-1,6
 366 431 366 431 370 409 c 128,-1,7
 374 387 374 387 368 361 c 0,8,9
 361 328 361 328 340 302.5 c 128,-1,10
 319 277 319 277 286 261 c 1,11,12
 328 247 328 247 343.5 214 c 128,-1,13
 359 181 359 181 349 134 c 0,14,15
 335 69 335 69 298 31.5 c 128,-1,16
 261 -6 261 -6 205 -6 c 0,17,18
 192 -6 192 -6 185.5 -4.5 c 128,-1,19
 179 -3 179 -3 173 -1 c 0,20,21
 148 9 148 9 169 39 c 1,22,23
 178 34 178 34 190 30 c 128,-1,24
 202 26 202 26 215 26 c 0,25,26
 250 26 250 26 274 52.5 c 128,-1,27
 298 79 298 79 309 129 c 0,28,29
 321 188 321 188 296 213.5 c 128,-1,30
 271 239 271 239 211 239 c 1,31,-1
 218 271 l 1,32,33
 262 273 262 273 289.5 293 c 128,-1,34
 317 313 317 313 328 363 c 0,35,36
 336 403 336 403 321.5 426 c 128,-1,37
 307 449 307 449 266 449 c 0,38,39
 244 449 244 449 229 441 c 128,-1,40
 214 433 214 433 203 419.5 c 128,-1,41
 192 406 192 406 185 390 c 128,-1,42
 178 374 178 374 174 357 c 2,43,-1
 87 -52 l 2,44,45
 79 -92 79 -92 40 -92 c 1,46,-1
 135 354 l 2,0,1
EndSplineSet
EndChar
StartChar: ae
Encoding: 230 230 167
Width: 594
Flags: W
Fore
318 210 m 1,0,-1
 323 232 l 2,1,2
 330 264 330 264 306.5 288 c 128,-1,3
 283 312 283 312 241 312 c 0,4,5
 208 312 208 312 176.5 293 c 128,-1,6
 145 274 145 274 125 247 c 1,7,8
 115 256 115 256 114.5 270.5 c 128,-1,9
 114 285 114 285 128 297 c 0,10,11
 151 320 151 320 183 332.5 c 128,-1,12
 215 345 215 345 248 345 c 0,13,14
 282 345 282 345 311 330 c 128,-1,15
 340 315 340 315 354 288 c 1,16,17
 377 314 377 314 410.5 329.5 c 128,-1,18
 444 345 444 345 482 345 c 0,19,20
 510 345 510 345 532.5 336 c 128,-1,21
 555 327 555 327 570 311.5 c 128,-1,22
 585 296 585 296 591.5 275.5 c 128,-1,23
 598 255 598 255 593 231 c 2,24,-1
 585 195 l 2,25,26
 583 187 583 187 576.5 182 c 128,-1,27
 570 177 570 177 563 177 c 2,28,-1
 347 177 l 1,29,-1
 332 107 l 2,30,31
 325 75 325 75 348 51 c 128,-1,32
 371 27 371 27 414 27 c 0,33,34
 435 27 435 27 454.5 33.5 c 128,-1,35
 474 40 474 40 490 51.5 c 128,-1,36
 506 63 506 63 516.5 77.5 c 128,-1,37
 527 92 527 92 530 108 c 1,38,39
 541 108 541 108 550 95.5 c 128,-1,40
 559 83 559 83 547 65 c 0,41,42
 525 33 525 33 487.5 13.5 c 128,-1,43
 450 -6 450 -6 407 -6 c 0,44,45
 369 -6 369 -6 342 9.5 c 128,-1,46
 315 25 315 25 303 51 c 1,47,48
 279 24 279 24 243 9 c 128,-1,49
 207 -6 207 -6 173 -6 c 0,50,51
 145 -6 145 -6 122 2 c 128,-1,52
 99 10 99 10 84 24.5 c 128,-1,53
 69 39 69 39 62.5 58.5 c 128,-1,54
 56 78 56 78 61 102 c 256,55,56
 66 126 66 126 81 145.5 c 128,-1,57
 96 165 96 165 117 179.5 c 128,-1,58
 138 194 138 194 164.5 202 c 128,-1,59
 191 210 191 210 219 210 c 2,60,-1
 318 210 l 1,0,-1
212 177 m 2,61,62
 169 177 169 177 136.5 155.5 c 128,-1,63
 104 134 104 134 97 102 c 256,64,65
 90 70 90 70 113.5 48.5 c 128,-1,66
 137 27 137 27 180 27 c 0,67,68
 201 27 201 27 220.5 33.5 c 128,-1,69
 240 40 240 40 256 51 c 128,-1,70
 272 62 272 62 282.5 76.5 c 128,-1,71
 293 91 293 91 296 107 c 2,72,-1
 311 177 l 1,73,-1
 212 177 l 2,61,62
354 210 m 1,74,-1
 552 210 l 1,75,-1
 557 231 l 2,76,77
 560 247 560 247 556 261.5 c 128,-1,78
 552 276 552 276 541 287.5 c 128,-1,79
 530 299 530 299 513 305.5 c 128,-1,80
 496 312 496 312 475 312 c 256,81,82
 454 312 454 312 434.5 305.5 c 128,-1,83
 415 299 415 299 399.5 288 c 128,-1,84
 384 277 384 277 373 262 c 128,-1,85
 362 247 362 247 359 231 c 2,86,-1
 354 210 l 1,74,-1
EndSplineSet
EndChar
StartChar: eth
Encoding: 240 240 177
Width: 418
Flags: W
Fore
183 367 m 1,0,1
 175 398 175 398 208 412 c 2,2,-1
 272 439 l 1,3,4
 256 450 256 450 238.5 459 c 128,-1,5
 221 468 221 468 204 476 c 1,6,-1
 225 507 l 1,7,8
 249 496 249 496 272 484 c 128,-1,9
 295 472 295 472 315 457 c 1,10,-1
 417 500 l 1,11,12
 425 469 425 469 391 455 c 2,13,-1
 342 434 l 1,14,15
 367 410 367 410 385 380 c 128,-1,16
 403 350 403 350 414 313 c 0,17,18
 422 282 422 282 422.5 249 c 128,-1,19
 423 216 423 216 415 178 c 0,20,21
 405 130 405 130 382 95 c 128,-1,22
 359 60 359 60 330 37.5 c 128,-1,23
 301 15 301 15 268 4.5 c 128,-1,24
 235 -6 235 -6 204 -6 c 0,25,26
 167 -6 167 -6 139 7 c 128,-1,27
 111 20 111 20 94 43 c 128,-1,28
 77 66 77 66 71.5 97 c 128,-1,29
 66 128 66 128 74 164 c 0,30,31
 83 206 83 206 105 239.5 c 128,-1,32
 127 273 127 273 155.5 296.5 c 128,-1,33
 184 320 184 320 217 332.5 c 128,-1,34
 250 345 250 345 282 345 c 0,35,36
 318 345 318 345 348.5 329 c 128,-1,37
 379 313 379 313 398 283 c 1,38,-1
 399 286 l 1,39,40
 394 298 394 298 381 311 c 1,41,42
 353 375 353 375 302 417 c 1,43,-1
 183 367 l 1,0,1
375 173 m 256,44,45
 383 209 383 209 379.5 233 c 128,-1,46
 376 257 376 257 365 274 c 1,47,48
 351 288 351 288 330 300.5 c 128,-1,49
 309 313 309 313 275 313 c 0,50,51
 240 313 240 313 212.5 299.5 c 128,-1,52
 185 286 185 286 164 264.5 c 128,-1,53
 143 243 143 243 129.5 216.5 c 128,-1,54
 116 190 116 190 111 165 c 0,55,56
 104 132 104 132 109.5 106 c 128,-1,57
 115 80 115 80 129.5 62 c 128,-1,58
 144 44 144 44 165 35 c 128,-1,59
 186 26 186 26 210 26 c 0,60,61
 238 26 238 26 264.5 35.5 c 128,-1,62
 291 45 291 45 313 63.5 c 128,-1,63
 335 82 335 82 351 109.5 c 128,-1,64
 367 137 367 137 375 173 c 256,44,45
EndSplineSet
EndChar
StartChar: divide
Encoding: 247 247 184
Width: 400
Flags: W
Fore
414 216 m 1,0,1
 411 199 411 199 399.5 189.5 c 128,-1,2
 388 180 388 180 371 180 c 2,3,-1
 68 180 l 1,4,5
 71 197 71 197 82.5 206.5 c 128,-1,6
 94 216 94 216 111 216 c 2,7,-1
 414 216 l 1,0,1
229 315 m 0,8,9
 233 330 233 330 246 341 c 128,-1,10
 259 352 259 352 274 352 c 256,11,12
 289 352 289 352 298 341 c 128,-1,13
 307 330 307 330 303 315 c 0,14,15
 300 300 300 300 287 289 c 128,-1,16
 274 278 274 278 259 278 c 256,17,18
 244 278 244 278 235 289 c 128,-1,19
 226 300 226 300 229 315 c 0,8,9
180 81 m 0,20,21
 183 96 183 96 196.5 107 c 128,-1,22
 210 118 210 118 225 118 c 256,23,24
 240 118 240 118 248.5 107 c 128,-1,25
 257 96 257 96 254 81 c 0,26,27
 250 66 250 66 237 55 c 128,-1,28
 224 44 224 44 209 44 c 256,29,30
 194 44 194 44 185 55 c 128,-1,31
 176 66 176 66 180 81 c 0,20,21
EndSplineSet
EndChar
StartChar: oslash
Encoding: 248 248 185
Width: 431
Flags: W
Fore
355 343 m 2,0,1
 378 375 378 375 407 359 c 1,2,-1
 147 -4 l 2,3,4
 123 -36 123 -36 95 -20 c 1,5,-1
 355 343 l 2,0,1
75 169 m 256,6,7
 83 205 83 205 103.5 237 c 128,-1,8
 124 269 124 269 153 293 c 128,-1,9
 182 317 182 317 217 331 c 128,-1,10
 252 345 252 345 288 345 c 256,11,12
 324 345 324 345 353 331 c 128,-1,13
 382 317 382 317 401 293 c 128,-1,14
 420 269 420 269 427 237 c 128,-1,15
 434 205 434 205 426 169 c 256,16,17
 418 133 418 133 397.5 101 c 128,-1,18
 377 69 377 69 348 45 c 128,-1,19
 319 21 319 21 284 7.5 c 128,-1,20
 249 -6 249 -6 213 -6 c 256,21,22
 177 -6 177 -6 148 7.5 c 128,-1,23
 119 21 119 21 100 45 c 128,-1,24
 81 69 81 69 74 101 c 128,-1,25
 67 133 67 133 75 169 c 256,6,7
111 169 m 256,26,27
 105 139 105 139 110.5 113.5 c 128,-1,28
 116 88 116 88 130.5 68.5 c 128,-1,29
 145 49 145 49 168 38 c 128,-1,30
 191 27 191 27 220 27 c 256,31,32
 249 27 249 27 277 38 c 128,-1,33
 305 49 305 49 328 68.5 c 128,-1,34
 351 88 351 88 367.5 113.5 c 128,-1,35
 384 139 384 139 390 169 c 256,36,37
 396 199 396 199 391 225 c 128,-1,38
 386 251 386 251 371 270.5 c 128,-1,39
 356 290 356 290 333 301 c 128,-1,40
 310 312 310 312 281 312 c 256,41,42
 252 312 252 312 224.5 301 c 128,-1,43
 197 290 197 290 173.5 270.5 c 128,-1,44
 150 251 150 251 133.5 225 c 128,-1,45
 117 199 117 199 111 169 c 256,26,27
EndSplineSet
EndChar
StartChar: thorn
Encoding: 254 254 191
Width: 390
Flags: W
Fore
118 108 m 2,0,1
 115 92 115 92 119 77.5 c 128,-1,2
 123 63 123 63 134 51.5 c 128,-1,3
 145 40 145 40 162 33.5 c 128,-1,4
 179 27 179 27 200 27 c 256,5,6
 221 27 221 27 240.5 33.5 c 128,-1,7
 260 40 260 40 276 51.5 c 128,-1,8
 292 63 292 63 302.5 77.5 c 128,-1,9
 313 92 313 92 316 108 c 2,10,-1
 343 232 l 2,11,12
 350 264 350 264 327 288 c 128,-1,13
 304 312 304 312 261 312 c 0,14,15
 240 312 240 312 220.5 305.5 c 128,-1,16
 201 299 201 299 185 288 c 128,-1,17
 169 277 169 277 158.5 262.5 c 128,-1,18
 148 248 148 248 145 232 c 2,19,-1
 118 108 l 2,0,1
72 -110 m 2,20,21
 66 -142 66 -142 29 -142 c 1,22,-1
 154 445 l 2,23,24
 161 481 161 481 198 481 c 1,25,-1
 162 313 l 1,26,27
 158 311 158 311 153.5 306.5 c 128,-1,28
 149 302 149 302 146 299 c 1,29,-1
 146 296 l 1,30,31
 169 319 169 319 201 332 c 128,-1,32
 233 345 233 345 268 345 c 0,33,34
 296 345 296 345 318.5 336 c 128,-1,35
 341 327 341 327 356 312 c 128,-1,36
 371 297 371 297 377.5 276.5 c 128,-1,37
 384 256 384 256 379 232 c 2,38,-1
 352 108 l 2,39,40
 347 84 347 84 332 63.5 c 128,-1,41
 317 43 317 43 295.5 27.5 c 128,-1,42
 274 12 274 12 247.5 3 c 128,-1,43
 221 -6 221 -6 193 -6 c 0,44,45
 158 -6 158 -6 132 7 c 128,-1,46
 106 20 106 20 93 43 c 1,47,-1
 91 40 l 1,48,49
 95 32 95 32 101 26 c 1,50,-1
 72 -110 l 2,20,21
EndSplineSet
EndChar
StartChar: Lslash
Encoding: 321 321 193
Width: 414
Flags: W
Fore
365 36 m 2,0,1
 401 36 401 36 394 0 c 1,2,-1
 80 0 l 2,3,4
 71 0 71 0 66.5 6 c 128,-1,5
 62 12 62 12 64 20 c 2,6,-1
 102 200 l 1,7,-1
 42 166 l 1,8,9
 30 194 30 194 62 212 c 2,10,-1
 111 240 l 1,11,-1
 153 441 l 2,12,13
 162 481 162 481 202 481 c 1,14,-1
 156 267 l 1,15,-1
 285 341 l 1,16,17
 297 313 297 313 266 295 c 2,18,-1
 148 226 l 1,19,-1
 107 36 l 1,20,-1
 365 36 l 2,0,1
EndSplineSet
EndChar
StartChar: lslash
Encoding: 322 322 194
Width: 160
Flags: W
Fore
156 266 m 1,0,-1
 216 301 l 1,1,2
 228 273 228 273 198 255 c 2,3,-1
 148 226 l 1,4,-1
 107 34 l 2,5,6
 98 -6 98 -6 58 -6 c 1,7,-1
 102 200 l 1,8,-1
 42 166 l 1,9,10
 30 194 30 194 62 212 c 2,11,-1
 111 240 l 1,12,-1
 153 441 l 2,13,14
 162 481 162 481 202 481 c 1,15,-1
 156 266 l 1,0,-1
EndSplineSet
EndChar
StartChar: OE
Encoding: 338 338 195
Width: 799
Flags: W
Fore
479 256 m 1,0,-1
 677 256 l 1,1,2
 669 220 669 220 633 220 c 2,3,-1
 471 220 l 1,4,-1
 456 150 l 2,5,6
 451 126 451 126 458 104 c 128,-1,7
 465 82 465 82 481.5 65.5 c 128,-1,8
 498 49 498 49 522.5 39.5 c 128,-1,9
 547 30 547 30 578 30 c 256,10,11
 609 30 609 30 638 39.5 c 128,-1,12
 667 49 667 49 690.5 65.5 c 128,-1,13
 714 82 714 82 730 104 c 128,-1,14
 746 126 746 126 751 150 c 2,15,16
 753 155 753 155 753.5 160 c 128,-1,17
 754 165 754 165 755 170 c 1,18,19
 771 170 771 170 782 159 c 128,-1,20
 793 148 793 148 782 122 c 0,21,22
 770 92 770 92 747 68 c 128,-1,23
 724 44 724 44 695 27.5 c 128,-1,24
 666 11 666 11 633.5 2.5 c 128,-1,25
 601 -6 601 -6 570 -6 c 0,26,27
 523 -6 523 -6 480.5 15.5 c 128,-1,28
 438 37 438 37 421 78 c 1,29,30
 405 58 405 58 383 42.5 c 128,-1,31
 361 27 361 27 336.5 16 c 128,-1,32
 312 5 312 5 286 -0.5 c 128,-1,33
 260 -6 260 -6 235 -6 c 0,34,35
 202 -6 202 -6 171 4.5 c 128,-1,36
 140 15 140 15 117.5 35 c 128,-1,37
 95 55 95 55 84 84 c 128,-1,38
 73 113 73 113 81 150 c 2,39,-1
 119 326 l 2,40,41
 126 362 126 362 149 390.5 c 128,-1,42
 172 419 172 419 203 439 c 128,-1,43
 234 459 234 459 269.5 470 c 128,-1,44
 305 481 305 481 339 481 c 0,45,46
 388 481 388 481 430 460 c 128,-1,47
 472 439 472 439 489 396 c 1,48,49
 505 416 505 416 527 431.5 c 128,-1,50
 549 447 549 447 573.5 458 c 128,-1,51
 598 469 598 469 624 475 c 128,-1,52
 650 481 650 481 674 481 c 0,53,54
 704 481 704 481 732 473.5 c 128,-1,55
 760 466 760 466 782 450 c 128,-1,56
 804 434 804 434 817.5 410.5 c 128,-1,57
 831 387 831 387 832 355 c 0,58,59
 832 328 832 328 816 317 c 128,-1,60
 800 306 800 306 784 306 c 1,61,62
 786 311 786 311 787 316 c 128,-1,63
 789 326 l 0,64,65
 794 350 794 350 787 372 c 128,-1,66
 780 394 780 394 763.5 410 c 128,-1,67
 747 426 747 426 722 435.5 c 128,-1,68
 697 445 697 445 666 445 c 256,69,70
 635 445 635 445 606.5 435.5 c 128,-1,71
 578 426 578 426 554.5 410 c 128,-1,72
 531 394 531 394 515 372 c 128,-1,73
 499 350 499 350 494 326 c 2,74,-1
 479 256 l 1,0,-1
454 326 m 2,75,76
 459 350 459 350 452 372 c 128,-1,77
 445 394 445 394 428.5 410 c 128,-1,78
 412 426 412 426 387 435.5 c 128,-1,79
 362 445 362 445 331 445 c 256,80,81
 300 445 300 445 271.5 435.5 c 128,-1,82
 243 426 243 426 219.5 410 c 128,-1,83
 196 394 196 394 180 372 c 128,-1,84
 164 350 164 350 159 326 c 2,85,-1
 121 150 l 2,86,87
 116 126 116 126 123 104 c 128,-1,88
 130 82 130 82 146.5 65.5 c 128,-1,89
 163 49 163 49 187.5 39.5 c 128,-1,90
 212 30 212 30 243 30 c 256,91,92
 274 30 274 30 303 39.5 c 128,-1,93
 332 49 332 49 355.5 65.5 c 128,-1,94
 379 82 379 82 395 104 c 128,-1,95
 411 126 411 126 416 150 c 2,96,-1
 454 326 l 2,75,76
EndSplineSet
EndChar
StartChar: oe
Encoding: 339 339 196
Width: 604
Flags: W
Fore
342 107 m 2,0,1
 335 75 335 75 358 51 c 128,-1,2
 381 27 381 27 424 27 c 0,3,4
 445 27 445 27 464.5 33.5 c 128,-1,5
 484 40 484 40 500 51.5 c 128,-1,6
 516 63 516 63 526.5 77.5 c 128,-1,7
 537 92 537 92 540 108 c 1,8,9
 551 108 551 108 560 95.5 c 128,-1,10
 569 83 569 83 557 65 c 0,11,12
 535 33 535 33 497.5 13.5 c 128,-1,13
 460 -6 460 -6 417 -6 c 0,14,15
 379 -6 379 -6 351 9.5 c 128,-1,16
 323 25 323 25 311 51 c 1,17,18
 288 25 288 25 254.5 9.5 c 128,-1,19
 221 -6 221 -6 183 -6 c 0,20,21
 155 -6 155 -6 132 3 c 128,-1,22
 109 12 109 12 94 27 c 128,-1,23
 79 42 79 42 73 62.5 c 128,-1,24
 67 83 67 83 72 107 c 2,25,-1
 99 231 l 2,26,27
 104 255 104 255 119 275.5 c 128,-1,28
 134 296 134 296 155.5 311.5 c 128,-1,29
 177 327 177 327 203.5 336 c 128,-1,30
 230 345 230 345 258 345 c 0,31,32
 296 345 296 345 323.5 329.5 c 128,-1,33
 351 314 351 314 363 288 c 1,34,35
 386 314 386 314 420 329.5 c 128,-1,36
 454 345 454 345 492 345 c 0,37,38
 520 345 520 345 542.5 336 c 128,-1,39
 565 327 565 327 580 311.5 c 128,-1,40
 595 296 595 296 601.5 275.5 c 128,-1,41
 608 255 608 255 603 231 c 2,42,-1
 595 195 l 2,43,44
 593 187 593 187 586.5 182 c 128,-1,45
 580 177 580 177 573 177 c 2,46,-1
 357 177 l 1,47,-1
 342 107 l 2,0,1
251 312 m 256,48,49
 230 312 230 312 210.5 305.5 c 128,-1,50
 191 299 191 299 175 287.5 c 128,-1,51
 159 276 159 276 148.5 261.5 c 128,-1,52
 138 247 138 247 135 231 c 2,53,-1
 108 107 l 2,54,55
 101 75 101 75 124 51 c 128,-1,56
 147 27 147 27 190 27 c 0,57,58
 211 27 211 27 230 33.5 c 128,-1,59
 249 40 249 40 265 50.5 c 128,-1,60
 281 61 281 61 292 75.5 c 128,-1,61
 303 90 303 90 306 107 c 2,62,-1
 333 231 l 2,63,64
 336 247 336 247 332 261.5 c 128,-1,65
 328 276 328 276 317 287.5 c 128,-1,66
 306 299 306 299 289 305.5 c 128,-1,67
 272 312 272 312 251 312 c 256,48,49
364 210 m 1,68,-1
 562 210 l 1,69,-1
 567 231 l 2,70,71
 570 247 570 247 566 261.5 c 128,-1,72
 562 276 562 276 551 287.5 c 128,-1,73
 540 299 540 299 523 305.5 c 128,-1,74
 506 312 506 312 485 312 c 256,75,76
 464 312 464 312 444.5 305.5 c 128,-1,77
 425 299 425 299 409 287.5 c 128,-1,78
 393 276 393 276 382.5 261.5 c 128,-1,79
 372 247 372 247 369 231 c 2,80,-1
 364 210 l 1,68,-1
EndSplineSet
EndChar
StartChar: florin
Encoding: 402 402 202
Width: 382
Flags: W
Fore
442 436 m 1,0,1
 432 442 432 442 418.5 445.5 c 128,-1,2
 405 449 405 449 393 449 c 0,3,4
 370 449 370 449 351 438.5 c 128,-1,5
 332 428 332 428 317 410.5 c 128,-1,6
 302 393 302 393 291 370.5 c 128,-1,7
 280 348 280 348 273 323 c 2,8,-1
 262 289 l 1,9,-1
 366 289 l 1,10,11
 363 274 363 274 352.5 265.5 c 128,-1,12
 342 257 342 257 327 257 c 2,13,-1
 252 257 l 1,14,15
 242 227 242 227 233 199 c 0,16,17
 225 175 225 175 216.5 149 c 128,-1,18
 208 123 208 123 203 105 c 0,19,20
 179 30 179 30 142 -13.5 c 128,-1,21
 105 -57 105 -57 46 -57 c 0,22,23
 32 -57 32 -57 20 -53 c 0,24,25
 9 -48 9 -48 6 -38.5 c 128,-1,26
 3 -29 3 -29 13 -14 c 1,27,28
 24 -21 24 -21 33.5 -23 c 128,-1,29
 43 -25 43 -25 57 -25 c 0,30,31
 76 -25 76 -25 92 -15.5 c 128,-1,32
 108 -6 108 -6 120.5 10 c 128,-1,33
 133 26 133 26 142.5 46.5 c 128,-1,34
 152 67 152 67 159 88 c 2,35,-1
 213 257 l 1,36,-1
 138 257 l 1,37,38
 141 272 141 272 151.5 280.5 c 128,-1,39
 162 289 162 289 177 289 c 2,40,-1
 224 289 l 1,41,42
 226 298 226 298 229.5 306.5 c 128,-1,43
 233 315 233 315 235 324 c 0,44,45
 258 394 258 394 300.5 438 c 128,-1,46
 343 482 343 482 405 482 c 0,47,48
 427 482 427 482 438 475 c 0,49,50
 462 462 462 462 442 436 c 1,0,1
EndSplineSet
EndChar
StartChar: circumflex
Encoding: 710 710 203
Width: 306
Flags: W
Fore
254 478 m 0,0,1
 262 478 262 478 265 473 c 2,2,-1
 331 383 l 1,3,4
 319 375 319 375 306 375 c 128,-1,5
 293 375 293 375 286 383 c 2,6,-1
 246 438 l 1,7,-1
 182 383 l 2,8,9
 172 375 172 375 159 375 c 128,-1,10
 146 375 146 375 137 383 c 1,11,-1
 241 473 l 2,12,13
 248 478 248 478 254 478 c 0,0,1
EndSplineSet
EndChar
StartChar: breve
Encoding: 728 728 205
Width: 300
Flags: W
Fore
229 373 m 0,0,1
 212 373 212 373 194.5 378.5 c 128,-1,2
 177 384 177 384 163.5 394.5 c 128,-1,3
 150 405 150 405 142.5 420.5 c 128,-1,4
 135 436 135 436 138 456 c 0,5,6
 140 466 140 466 151.5 473.5 c 128,-1,7
 163 481 163 481 177 481 c 1,8,9
 170 449 170 449 186.5 428 c 128,-1,10
 203 407 203 407 236 407 c 256,11,12
 269 407 269 407 294.5 428 c 128,-1,13
 320 449 320 449 327 481 c 1,14,15
 341 481 341 481 349 473.5 c 128,-1,16
 357 466 357 466 354 456 c 0,17,18
 349 436 349 436 335 420.5 c 128,-1,19
 321 405 321 405 303 394.5 c 128,-1,20
 285 384 285 384 265 378.5 c 128,-1,21
 245 373 245 373 229 373 c 0,0,1
EndSplineSet
EndChar
StartChar: dotaccent
Encoding: 729 729 206
Width: 158
Flags: W
Fore
141 462 m 0,0,1
 144 476 144 476 156 487 c 128,-1,2
 168 498 168 498 184 498 c 256,3,4
 200 498 200 498 208 487 c 128,-1,5
 216 476 216 476 213 462 c 0,6,7
 210 447 210 447 197.5 436.5 c 128,-1,8
 185 426 185 426 169 426 c 256,9,10
 153 426 153 426 145.5 436.5 c 128,-1,11
 138 447 138 447 141 462 c 0,0,1
EndSplineSet
EndChar
StartChar: ring
Encoding: 730 730 207
Width: 278
Flags: W
Fore
169 461 m 0,0,1
 174 484 174 484 196.5 505 c 128,-1,2
 219 526 219 526 250 526 c 0,3,4
 280 526 280 526 293.5 505 c 128,-1,5
 307 484 307 484 302 461 c 0,6,7
 296 432 296 432 273.5 413.5 c 128,-1,8
 251 395 251 395 222 395 c 0,9,10
 194 395 194 395 179 414 c 128,-1,11
 164 433 164 433 169 461 c 0,0,1
194 461 m 0,12,13
 191 443 191 443 200.5 431 c 128,-1,14
 210 419 210 419 228 419 c 256,15,16
 246 419 246 419 260.5 431 c 128,-1,17
 275 443 275 443 278 461 c 0,18,19
 281 475 281 475 272.5 488.5 c 128,-1,20
 264 502 264 502 245 502 c 0,21,22
 225 502 225 502 211.5 489 c 128,-1,23
 198 476 198 476 194 461 c 0,12,13
EndSplineSet
EndChar
StartChar: tilde
Encoding: 732 732 209
Width: 233
Flags: W
Fore
222 447 m 1,0,1
 229 439 229 439 236.5 433 c 128,-1,2
 244 427 244 427 255 427 c 256,3,4
 266 427 266 427 277 441 c 128,-1,5
 288 455 288 455 284 472 c 1,6,7
 304 478 304 478 310.5 467.5 c 128,-1,8
 317 457 317 457 312 445 c 0,9,10
 304 423 304 423 287.5 409.5 c 128,-1,11
 271 396 271 396 249 396 c 0,12,13
 229 396 229 396 217.5 404 c 128,-1,14
 206 412 206 412 194 423 c 1,15,16
 188 431 188 431 180 437 c 128,-1,17
 172 443 172 443 161 443 c 256,18,19
 150 443 150 443 139 429 c 128,-1,20
 128 415 128 415 132 398 c 1,21,22
 113 391 113 391 106 402 c 128,-1,23
 99 413 99 413 104 425 c 0,24,25
 112 447 112 447 129 460.5 c 128,-1,26
 146 474 146 474 167 474 c 256,27,28
 188 474 188 474 198.5 466 c 128,-1,29
 209 458 209 458 222 447 c 1,0,1
EndSplineSet
EndChar
StartChar: uni0E01
Encoding: 3585 3585 212
Width: 418
Flags: W
Fore
119 193 m 1,0,1
 117 195 117 195 114 206 c 128,-1,2
 111 217 111 217 107 229 c 0,3,4
 103 243 103 243 97 260 c 0,5,6
 95 264 95 264 97 269 c 1,7,8
 103 299 103 299 122.5 323.5 c 128,-1,9
 142 348 142 348 168 365.5 c 128,-1,10
 194 383 194 383 224.5 392.5 c 128,-1,11
 255 402 255 402 284 402 c 0,12,13
 312 402 312 402 338.5 393 c 128,-1,14
 365 384 365 384 384.5 367 c 128,-1,15
 404 350 404 350 413 325 c 128,-1,16
 422 300 422 300 415 269 c 2,17,-1
 365 36 l 2,18,19
 361 18 361 18 347.5 6 c 128,-1,20
 334 -6 334 -6 318 -6 c 1,21,-1
 377 269 l 2,22,23
 381 288 381 288 375 306 c 128,-1,24
 369 324 369 324 355.5 338 c 128,-1,25
 342 352 342 352 322 360 c 128,-1,26
 302 368 302 368 277 368 c 0,27,28
 253 368 253 368 229.5 360.5 c 128,-1,29
 206 353 206 353 187 340 c 128,-1,30
 168 327 168 327 154.5 310 c 128,-1,31
 141 293 141 293 136 274 c 1,32,33
 137 271 137 271 140 260 c 128,-1,34
 143 249 143 249 147 237 c 0,35,36
 151 223 151 223 157 207 c 0,37,38
 158 204 158 204 158 198 c 1,39,-1
 114 -6 l 1,40,41
 98 -6 98 -6 89.5 6 c 128,-1,42
 81 18 81 18 85 36 c 0,43,44
 94 78 94 78 101 111 c 0,45,46
 107 140 107 140 112.5 164.5 c 128,-1,47
 118 189 118 189 119 193 c 1,0,1
EndSplineSet
EndChar
StartChar: uni0E02
Encoding: 3586 3586 213
Width: 401
Flags: W
Fore
379 359 m 2,0,1
 383 376 383 376 396.5 388.5 c 128,-1,2
 410 401 410 401 426 401 c 1,3,-1
 360 91 l 2,4,5
 355 69 355 69 342.5 51 c 128,-1,6
 330 33 330 33 312.5 20.5 c 128,-1,7
 295 8 295 8 274 1 c 128,-1,8
 253 -6 253 -6 232 -6 c 256,9,10
 211 -6 211 -6 193.5 1 c 128,-1,11
 176 8 176 8 164 20.5 c 128,-1,12
 152 33 152 33 147 51 c 128,-1,13
 142 69 142 69 147 91 c 2,14,-1
 151 110 l 2,15,16
 159 147 159 147 182.5 177.5 c 128,-1,17
 206 208 206 208 235 237 c 0,18,19
 263 264 263 264 269 290 c 0,20,21
 276 320 276 320 259 344 c 128,-1,22
 242 368 242 368 212 368 c 0,23,24
 186 368 186 368 164 354.5 c 128,-1,25
 142 341 142 341 129 321 c 1,26,27
 116 311 116 311 110 301 c 1,28,-1
 111 298 l 1,29,30
 119 312 119 312 134 319.5 c 128,-1,31
 149 327 149 327 162 327 c 0,32,33
 188 327 188 327 202.5 310.5 c 128,-1,34
 217 294 217 294 212 269 c 0,35,36
 206 243 206 243 184 225 c 128,-1,37
 162 207 162 207 136 207 c 0,38,39
 104 207 104 207 90 232 c 128,-1,40
 76 257 76 257 83 290 c 0,41,42
 88 313 88 313 101 333.5 c 128,-1,43
 114 354 114 354 132.5 369 c 128,-1,44
 151 384 151 384 173.5 393 c 128,-1,45
 196 402 196 402 219 402 c 256,46,47
 242 402 242 402 260.5 393 c 128,-1,48
 279 384 279 384 291 369 c 128,-1,49
 303 354 303 354 307.5 333.5 c 128,-1,50
 312 313 312 313 307 290 c 0,51,52
 302 270 302 270 288 251 c 128,-1,53
 274 232 274 232 255 213 c 0,54,55
 232 190 232 190 214.5 165.5 c 128,-1,56
 197 141 197 141 189 110 c 2,57,-1
 185 91 l 2,58,59
 179 63 179 63 195 45.5 c 128,-1,60
 211 28 211 28 239 28 c 256,61,62
 267 28 267 28 291.5 45 c 128,-1,63
 316 62 316 62 322 91 c 2,64,-1
 379 359 l 2,0,1
118 269 m 256,65,66
 115 255 115 255 122 246 c 128,-1,67
 129 237 129 237 143 237 c 256,68,69
 157 237 157 237 168 246 c 128,-1,70
 179 255 179 255 182 269 c 256,71,72
 185 283 185 283 177.5 292 c 128,-1,73
 170 301 170 301 156 301 c 256,74,75
 142 301 142 301 131.5 292 c 128,-1,76
 121 283 121 283 118 269 c 256,65,66
EndSplineSet
EndChar
StartChar: uni0E03
Encoding: 3587 3587 214
Width: 401
Flags: W
Fore
118 269 m 256,0,1
 115 255 115 255 122 246 c 128,-1,2
 129 237 129 237 143 237 c 256,3,4
 157 237 157 237 168 246 c 128,-1,5
 179 255 179 255 182 269 c 256,6,7
 185 283 185 283 177.5 292 c 128,-1,8
 170 301 170 301 156 301 c 256,9,10
 142 301 142 301 131.5 292 c 128,-1,11
 121 283 121 283 118 269 c 256,0,1
162 327 m 0,12,13
 188 327 188 327 202.5 310.5 c 128,-1,14
 217 294 217 294 212 269 c 0,15,16
 206 243 206 243 184 225 c 128,-1,17
 162 207 162 207 136 207 c 0,18,19
 104 207 104 207 90 232 c 128,-1,20
 76 257 76 257 83 290 c 0,21,22
 88 310 88 310 97 329.5 c 128,-1,23
 106 349 106 349 120 364 c 0,24,25
 153 402 153 402 189 402 c 0,26,27
 198 402 198 402 204 394 c 128,-1,28
 210 386 210 386 216 379 c 1,29,30
 224 384 224 384 233.5 393 c 128,-1,31
 243 402 243 402 253 402 c 0,32,33
 271 402 271 402 283.5 392 c 128,-1,34
 296 382 296 382 303 366.5 c 128,-1,35
 310 351 310 351 310.5 331 c 128,-1,36
 311 311 311 311 307 290 c 0,37,38
 302 270 302 270 288 251 c 128,-1,39
 274 232 274 232 255 213 c 0,40,41
 232 190 232 190 214.5 165.5 c 128,-1,42
 197 141 197 141 189 110 c 2,43,-1
 185 91 l 2,44,45
 179 63 179 63 195 45.5 c 128,-1,46
 211 28 211 28 239 28 c 256,47,48
 267 28 267 28 291.5 45 c 128,-1,49
 316 62 316 62 322 91 c 2,50,-1
 379 359 l 2,51,52
 383 376 383 376 396.5 388.5 c 128,-1,53
 410 401 410 401 426 401 c 1,54,-1
 360 91 l 2,55,56
 355 69 355 69 342.5 51 c 128,-1,57
 330 33 330 33 312.5 20.5 c 128,-1,58
 295 8 295 8 274 1 c 128,-1,59
 253 -6 253 -6 232 -6 c 256,60,61
 211 -6 211 -6 193.5 1 c 128,-1,62
 176 8 176 8 164 20.5 c 128,-1,63
 152 33 152 33 147 51 c 128,-1,64
 142 69 142 69 147 91 c 2,65,-1
 151 110 l 2,66,67
 159 147 159 147 182.5 177.5 c 128,-1,68
 206 208 206 208 235 237 c 0,69,70
 263 264 263 264 269 290 c 0,71,72
 272 302 272 302 272 314.5 c 128,-1,73
 272 327 272 327 270 338.5 c 128,-1,74
 268 350 268 350 263.5 358 c 128,-1,75
 259 366 259 366 253 369 c 1,76,77
 243 362 243 362 233 354 c 0,78,79
 228 350 228 350 222 345 c 0,80,81
 215 340 215 340 207.5 340 c 128,-1,82
 200 340 200 340 196 345 c 2,83,-1
 175 369 l 1,84,85
 164 365 164 365 151 352.5 c 128,-1,86
 138 340 138 340 128 320 c 1,87,88
 116 311 116 311 110 301 c 1,89,-1
 111 298 l 1,90,91
 119 312 119 312 134 319.5 c 128,-1,92
 149 327 149 327 162 327 c 0,12,13
EndSplineSet
EndChar
StartChar: uni0E04
Encoding: 3588 3588 215
Width: 438
Flags: W
Fore
304 402 m 0,0,1
 332 402 332 402 358 393 c 128,-1,2
 384 384 384 384 403.5 366.5 c 128,-1,3
 423 349 423 349 432 324.5 c 128,-1,4
 441 300 441 300 435 269 c 2,5,-1
 385 36 l 2,6,7
 381 18 381 18 367.5 6 c 128,-1,8
 354 -6 354 -6 338 -6 c 1,9,-1
 397 269 l 2,10,11
 401 288 401 288 395 306 c 128,-1,12
 389 324 389 324 375.5 338 c 128,-1,13
 362 352 362 352 342 360 c 128,-1,14
 322 368 322 368 297 368 c 256,15,16
 272 368 272 368 248 360 c 128,-1,17
 224 352 224 352 205 338 c 128,-1,18
 186 324 186 324 172.5 306 c 128,-1,19
 159 288 159 288 155 269 c 2,20,-1
 119 100 l 1,21,-1
 104 73 l 1,22,-1
 104 70 l 1,23,-1
 217 260 l 2,24,25
 226 277 226 277 244 287.5 c 128,-1,26
 262 298 262 298 282 298 c 0,27,28
 307 298 307 298 321.5 280 c 128,-1,29
 336 262 336 262 331 236 c 0,30,31
 325 210 325 210 302.5 192 c 128,-1,32
 280 174 280 174 255 174 c 0,33,34
 215 174 215 174 212 212 c 1,35,-1
 210 209 l 1,36,37
 210 205 210 205 210.5 200 c 128,-1,38
 211 195 211 195 213 192 c 1,39,-1
 96 -6 l 1,40,41
 80 -6 80 -6 71.5 6 c 128,-1,42
 63 18 63 18 67 36 c 2,43,-1
 117 269 l 2,44,45
 123 299 123 299 142.5 323.5 c 128,-1,46
 162 348 162 348 188 365.5 c 128,-1,47
 214 383 214 383 244.5 392.5 c 128,-1,48
 275 402 275 402 304 402 c 0,0,1
237 236 m 0,49,50
 234 222 234 222 241 213 c 128,-1,51
 248 204 248 204 262 204 c 256,52,53
 276 204 276 204 287 213 c 128,-1,54
 298 222 298 222 301 236 c 0,55,56
 303 250 303 250 296 259 c 128,-1,57
 289 268 289 268 275 268 c 256,58,59
 261 268 261 268 250 259 c 128,-1,60
 239 250 239 250 237 236 c 0,49,50
EndSplineSet
EndChar
StartChar: uni0E05
Encoding: 3589 3589 216
Width: 438
Flags: W
Fore
235 227 m 256,0,1
 232 213 232 213 239 204 c 128,-1,2
 246 195 246 195 260 195 c 256,3,4
 274 195 274 195 285 204 c 128,-1,5
 296 213 296 213 299 227 c 256,6,7
 302 241 302 241 295 250 c 128,-1,8
 288 259 288 259 274 259 c 256,9,10
 260 259 260 259 249 250 c 128,-1,11
 238 241 238 241 235 227 c 256,0,1
215 251 m 2,12,13
 226 268 226 268 243.5 278.5 c 128,-1,14
 261 289 261 289 280 289 c 0,15,16
 306 289 306 289 320 271 c 128,-1,17
 334 253 334 253 329 227 c 256,18,19
 324 201 324 201 302 183 c 128,-1,20
 280 165 280 165 254 165 c 0,21,22
 235 165 235 165 223.5 174.5 c 128,-1,23
 212 184 212 184 210 203 c 1,24,-1
 208 200 l 1,25,26
 208 196 208 196 208.5 191 c 128,-1,27
 209 186 209 186 211 183 c 1,28,-1
 96 -6 l 1,29,30
 80 -6 80 -6 71.5 6 c 128,-1,31
 63 18 63 18 67 36 c 2,32,-1
 121 288 l 2,33,34
 127 315 127 315 141.5 336.5 c 128,-1,35
 156 358 156 358 174 372.5 c 128,-1,36
 192 387 192 387 211.5 394.5 c 128,-1,37
 231 402 231 402 246 402 c 0,38,39
 254 402 254 402 257 397 c 1,40,41
 265 389 265 389 272 383 c 0,42,43
 278 377 278 377 284 371.5 c 128,-1,44
 290 366 290 366 295 361 c 1,45,-1
 349 397 l 2,46,47
 356 402 356 402 362 402 c 0,48,49
 377 402 377 402 393 394.5 c 128,-1,50
 409 387 409 387 421 372.5 c 128,-1,51
 433 358 433 358 439 336.5 c 128,-1,52
 445 315 445 315 439 288 c 2,53,-1
 385 36 l 2,54,55
 381 18 381 18 367.5 6 c 128,-1,56
 354 -6 354 -6 338 -6 c 1,57,-1
 401 288 l 2,58,59
 404 305 404 305 401.5 319 c 128,-1,60
 399 333 399 333 392.5 343 c 128,-1,61
 386 353 386 353 377.5 359 c 128,-1,62
 369 365 369 365 361 367 c 1,63,64
 356 364 356 364 346.5 357 c 128,-1,65
 337 350 337 350 326 343 c 0,66,67
 314 335 314 335 300 326 c 0,68,69
 286 316 286 316 276 326 c 0,70,71
 266 335 266 335 257 343 c 0,72,73
 249 350 249 350 242.5 357 c 128,-1,74
 236 364 236 364 233 367 c 1,75,76
 224 365 224 365 212.5 359 c 128,-1,77
 201 353 201 353 190.5 343 c 128,-1,78
 180 333 180 333 171 319 c 128,-1,79
 162 305 162 305 159 288 c 2,80,-1
 119 100 l 1,81,-1
 104 73 l 1,82,-1
 104 70 l 1,83,-1
 215 251 l 2,12,13
EndSplineSet
EndChar
StartChar: uni0E06
Encoding: 3590 3590 217
Width: 459
Flags: W
Fore
128 320 m 1,0,1
 116 311 116 311 110 301 c 1,2,-1
 111 298 l 1,3,4
 119 312 119 312 134 319.5 c 128,-1,5
 149 327 149 327 162 327 c 0,6,7
 188 327 188 327 202.5 310.5 c 128,-1,8
 217 294 217 294 212 269 c 0,9,10
 206 243 206 243 184 225 c 128,-1,11
 162 207 162 207 136 207 c 0,12,13
 104 207 104 207 90 232 c 128,-1,14
 76 257 76 257 83 290 c 0,15,16
 88 310 88 310 97 329.5 c 128,-1,17
 106 349 106 349 120 364 c 0,18,19
 153 402 153 402 189 402 c 0,20,21
 198 402 198 402 204 394 c 128,-1,22
 210 386 210 386 216 379 c 1,23,24
 224 384 224 384 233.5 393 c 128,-1,25
 243 402 243 402 253 402 c 0,26,27
 271 402 271 402 283.5 392 c 128,-1,28
 296 382 296 382 303 366.5 c 128,-1,29
 310 351 310 351 310.5 331 c 128,-1,30
 311 311 311 311 307 290 c 0,31,32
 302 270 302 270 288 251 c 128,-1,33
 274 232 274 232 255 213 c 0,34,35
 234 193 234 193 214.5 167 c 128,-1,36
 195 141 195 141 190 114 c 0,37,38
 189 111 189 111 188.5 108.5 c 128,-1,39
 188 106 188 106 188 103 c 1,40,-1
 368 34 l 1,41,-1
 437 359 l 2,42,43
 441 376 441 376 454.5 388.5 c 128,-1,44
 468 401 468 401 484 401 c 1,45,-1
 406 36 l 2,46,47
 402 18 402 18 388.5 6 c 128,-1,48
 375 -6 375 -6 359 -6 c 1,49,-1
 180 63 l 1,50,-1
 179 58 l 2,51,52
 173 31 173 31 150 12.5 c 128,-1,53
 127 -6 127 -6 101 -6 c 0,54,55
 74 -6 74 -6 59.5 12.5 c 128,-1,56
 45 31 45 31 51 58 c 0,57,58
 56 84 56 84 78.5 103 c 128,-1,59
 101 122 101 122 128 122 c 0,60,61
 133 122 133 122 140.5 120.5 c 128,-1,62
 148 119 148 119 152 116 c 1,63,64
 161 151 161 151 184 179.5 c 128,-1,65
 207 208 207 208 235 237 c 0,66,67
 263 264 263 264 269 290 c 0,68,69
 272 302 272 302 272 314.5 c 128,-1,70
 272 327 272 327 270 338.5 c 128,-1,71
 268 350 268 350 263.5 358 c 128,-1,72
 259 366 259 366 253 369 c 1,73,74
 243 362 243 362 233 354 c 0,75,76
 228 350 228 350 222 345 c 0,77,78
 215 340 215 340 207.5 340 c 128,-1,79
 200 340 200 340 196 345 c 2,80,-1
 175 369 l 1,81,82
 164 365 164 365 151 352.5 c 128,-1,83
 138 340 138 340 128 320 c 1,0,1
118 269 m 256,84,85
 115 255 115 255 122 246 c 128,-1,86
 129 237 129 237 143 237 c 256,87,88
 157 237 157 237 168 246 c 128,-1,89
 179 255 179 255 182 269 c 256,90,91
 185 283 185 283 177.5 292 c 128,-1,92
 170 301 170 301 156 301 c 256,93,94
 142 301 142 301 131.5 292 c 128,-1,95
 121 283 121 283 118 269 c 256,84,85
81 58 m 256,96,97
 78 44 78 44 86 34 c 128,-1,98
 94 24 94 24 108 24 c 256,99,100
 122 24 122 24 134 34 c 128,-1,101
 146 44 146 44 149 58 c 256,102,103
 152 72 152 72 144 82 c 128,-1,104
 136 92 136 92 122 92 c 256,105,106
 108 92 108 92 96 82 c 128,-1,107
 84 72 84 72 81 58 c 256,96,97
EndSplineSet
EndChar
StartChar: uni0E07
Encoding: 3591 3591 218
Width: 362
Flags: W
Fore
325 402 m 256,0,1
 351 402 351 402 365 384 c 128,-1,2
 379 366 379 366 374 340 c 2,3,-1
 309 36 l 2,4,5
 305 18 305 18 291.5 6 c 128,-1,6
 278 -6 278 -6 262 -6 c 1,7,-1
 93 240 l 2,8,9
 84 251 84 251 87 266 c 128,-1,10
 90 281 90 281 104 292 c 1,11,-1
 282 34 l 1,12,-1
 283 37 l 1,13,-1
 274 51 l 1,14,15
 280 79 280 79 288 118 c 128,-1,16
 296 157 296 157 304 193 c 0,17,18
 313 235 313 235 323 279 c 1,19,20
 335 285 335 285 342 295 c 1,21,-1
 342 298 l 1,22,23
 326 279 326 279 299 279 c 0,24,25
 273 279 273 279 259 296.5 c 128,-1,26
 245 314 245 314 250 340 c 256,27,28
 255 366 255 366 277 384 c 128,-1,29
 299 402 299 402 325 402 c 256,0,1
305 308 m 0,30,31
 319 308 319 308 330 317.5 c 128,-1,32
 341 327 341 327 344 340 c 0,33,34
 347 354 347 354 340 363 c 128,-1,35
 333 372 333 372 319 372 c 0,36,37
 306 372 306 372 294.5 363 c 128,-1,38
 283 354 283 354 280 340 c 0,39,40
 277 327 277 327 284.5 317.5 c 128,-1,41
 292 308 292 308 305 308 c 0,30,31
EndSplineSet
EndChar
StartChar: uni0E08
Encoding: 3592 3592 219
Width: 390
Flags: W
Fore
198 237 m 256,0,1
 195 223 195 223 202 214 c 128,-1,2
 209 205 209 205 223 205 c 256,3,4
 237 205 237 205 248 214 c 128,-1,5
 259 223 259 223 262 237 c 256,6,7
 265 251 265 251 258 260 c 128,-1,8
 251 269 251 269 237 269 c 256,9,10
 223 269 223 269 212 260 c 128,-1,11
 201 251 201 251 198 237 c 256,0,1
264 189 m 1,12,13
 271 196 271 196 275 206 c 1,14,-1
 275 209 l 1,15,16
 266 192 266 192 250.5 183.5 c 128,-1,17
 235 175 235 175 217 175 c 0,18,19
 191 175 191 175 177 193 c 128,-1,20
 163 211 163 211 168 237 c 256,21,22
 173 263 173 263 195 281 c 128,-1,23
 217 299 217 299 243 299 c 0,24,25
 264 299 264 299 277.5 286.5 c 128,-1,26
 291 274 291 274 293 255 c 2,27,-1
 316 67 l 1,28,-1
 317 70 l 1,29,-1
 314 106 l 1,30,-1
 349 269 l 2,31,32
 353 289 353 289 348 307 c 128,-1,33
 343 325 343 325 330 338.5 c 128,-1,34
 317 352 317 352 297.5 360 c 128,-1,35
 278 368 278 368 254 368 c 256,36,37
 230 368 230 368 207 360 c 128,-1,38
 184 352 184 352 165.5 338.5 c 128,-1,39
 147 325 147 325 134 307 c 128,-1,40
 121 289 121 289 117 269 c 0,41,42
 115 263 115 263 114.5 259.5 c 128,-1,43
 114 256 114 256 114 250 c 1,44,45
 98 250 98 250 88 261 c 128,-1,46
 78 272 78 272 84 288 c 0,47,48
 93 312 93 312 111 333 c 128,-1,49
 129 354 129 354 152.5 369.5 c 128,-1,50
 176 385 176 385 203.5 393.5 c 128,-1,51
 231 402 231 402 261 402 c 0,52,53
 293 402 293 402 319 391.5 c 128,-1,54
 345 381 345 381 362 363 c 128,-1,55
 379 345 379 345 386 321 c 128,-1,56
 393 297 393 297 387 269 c 2,57,-1
 337 36 l 2,58,59
 333 19 333 19 319.5 6.5 c 128,-1,60
 306 -6 306 -6 290 -6 c 1,61,-1
 264 189 l 1,12,13
EndSplineSet
EndChar
StartChar: uni0E09
Encoding: 3593 3593 220
Width: 415
Flags: W
Fore
152 123 m 1,0,1
 165 130 165 130 171 139 c 1,2,-1
 171 142 l 1,3,4
 155 123 155 123 128 123 c 0,5,6
 102 123 102 123 88 141 c 128,-1,7
 74 159 74 159 79 185 c 256,8,9
 84 211 84 211 106 229 c 128,-1,10
 128 247 128 247 154 247 c 256,11,12
 180 247 180 247 194 229 c 128,-1,13
 208 211 208 211 203 185 c 2,14,-1
 171 36 l 1,15,-1
 296 104 l 2,16,17
 310 112 310 112 320 123.5 c 128,-1,18
 330 135 330 135 332 145 c 2,19,-1
 359 269 l 2,20,21
 363 288 363 288 357 306 c 128,-1,22
 351 324 351 324 337.5 338 c 128,-1,23
 324 352 324 352 304 360 c 128,-1,24
 284 368 284 368 259 368 c 256,25,26
 234 368 234 368 210 360 c 128,-1,27
 186 352 186 352 167 338 c 128,-1,28
 148 324 148 324 134.5 306 c 128,-1,29
 121 288 121 288 117 269 c 1,30,31
 96 268 96 268 90 281.5 c 128,-1,32
 84 295 84 295 95 312 c 0,33,34
 108 333 108 333 128 349.5 c 128,-1,35
 148 366 148 366 171 378 c 128,-1,36
 194 390 194 390 218.5 396 c 128,-1,37
 243 402 243 402 266 402 c 0,38,39
 293 402 293 402 319.5 393 c 128,-1,40
 346 384 346 384 365.5 367 c 128,-1,41
 385 350 385 350 394.5 325 c 128,-1,42
 404 300 404 300 397 269 c 2,43,-1
 370 145 l 2,44,45
 367 131 367 131 360 120 c 1,46,47
 380 115 380 115 391 98 c 128,-1,48
 402 81 402 81 397 58 c 0,49,50
 391 31 391 31 368 12.5 c 128,-1,51
 345 -6 345 -6 319 -6 c 0,52,53
 294 -6 294 -6 279.5 10.5 c 128,-1,54
 265 27 265 27 267 51 c 1,55,-1
 162 -6 l 1,56,57
 146 -6 146 -6 137.5 6.5 c 128,-1,58
 129 19 129 19 133 36 c 2,59,-1
 152 123 l 1,0,1
109 185 m 256,60,61
 106 171 106 171 113 162 c 128,-1,62
 120 153 120 153 134 153 c 256,63,64
 148 153 148 153 159 162 c 128,-1,65
 170 171 170 171 173 185 c 256,66,67
 176 199 176 199 169 208 c 128,-1,68
 162 217 162 217 148 217 c 256,69,70
 134 217 134 217 123 208 c 128,-1,71
 112 199 112 199 109 185 c 256,60,61
299 58 m 256,72,73
 296 44 296 44 304 34 c 128,-1,74
 312 24 312 24 326 24 c 256,75,76
 340 24 340 24 352 34 c 128,-1,77
 364 44 364 44 367 58 c 256,78,79
 370 72 370 72 362 82 c 128,-1,80
 354 92 354 92 340 92 c 256,81,82
 326 92 326 92 314 82 c 128,-1,83
 302 72 302 72 299 58 c 256,72,73
EndSplineSet
EndChar
StartChar: uni0E0A
Encoding: 3594 3594 221
Width: 401
Flags: W
Fore
151 110 m 2,0,1
 159 147 159 147 182.5 177.5 c 128,-1,2
 206 208 206 208 235 237 c 0,3,4
 263 264 263 264 269 290 c 0,5,6
 276 320 276 320 259 344 c 128,-1,7
 242 368 242 368 212 368 c 0,8,9
 186 368 186 368 164 354.5 c 128,-1,10
 142 341 142 341 129 321 c 1,11,12
 116 311 116 311 110 301 c 1,13,-1
 111 298 l 1,14,15
 119 312 119 312 134 319.5 c 128,-1,16
 149 327 149 327 162 327 c 0,17,18
 188 327 188 327 202.5 310.5 c 128,-1,19
 217 294 217 294 212 269 c 0,20,21
 206 243 206 243 184 225 c 128,-1,22
 162 207 162 207 136 207 c 0,23,24
 104 207 104 207 90 232 c 128,-1,25
 76 257 76 257 83 290 c 0,26,27
 88 313 88 313 101 333.5 c 128,-1,28
 114 354 114 354 132.5 369 c 128,-1,29
 151 384 151 384 173.5 393 c 128,-1,30
 196 402 196 402 219 402 c 256,31,32
 242 402 242 402 260.5 393 c 128,-1,33
 279 384 279 384 291 369 c 128,-1,34
 303 354 303 354 307.5 333.5 c 128,-1,35
 312 313 312 313 307 290 c 0,36,37
 302 270 302 270 288 251 c 128,-1,38
 274 232 274 232 255 213 c 0,39,40
 232 190 232 190 214.5 165.5 c 128,-1,41
 197 141 197 141 189 110 c 2,42,-1
 185 91 l 2,43,44
 179 63 179 63 195 45.5 c 128,-1,45
 211 28 211 28 239 28 c 256,46,47
 267 28 267 28 291.5 45 c 128,-1,48
 316 62 316 62 322 91 c 2,49,-1
 349 217 l 2,50,51
 357 254 357 254 352 269 c 128,-1,52
 347 284 347 284 333 289 c 0,53,54
 320 292 320 292 323 303 c 0,55,56
 325 314 325 314 339 317 c 0,57,58
 351 320 351 320 362 328.5 c 128,-1,59
 373 337 373 337 382 348 c 128,-1,60
 391 359 391 359 397.5 371.5 c 128,-1,61
 404 384 404 384 406 395 c 2,62,63
 408 401 408 401 408.5 404.5 c 128,-1,64
 409 408 409 408 408 414 c 1,65,66
 424 414 424 414 433.5 403 c 128,-1,67
 443 392 443 392 438 377 c 0,68,69
 429 354 429 354 411 332.5 c 128,-1,70
 393 311 393 311 373 303 c 1,71,72
 388 291 388 291 390.5 269 c 128,-1,73
 393 247 393 247 387 217 c 2,74,-1
 360 91 l 2,75,76
 355 69 355 69 342.5 51 c 128,-1,77
 330 33 330 33 312.5 20.5 c 128,-1,78
 295 8 295 8 274 1 c 128,-1,79
 253 -6 253 -6 232 -6 c 256,80,81
 211 -6 211 -6 193.5 1 c 128,-1,82
 176 8 176 8 164 20.5 c 128,-1,83
 152 33 152 33 147 51 c 128,-1,84
 142 69 142 69 147 91 c 2,85,-1
 151 110 l 2,0,1
118 269 m 256,86,87
 115 255 115 255 122 246 c 128,-1,88
 129 237 129 237 143 237 c 256,89,90
 157 237 157 237 168 246 c 128,-1,91
 179 255 179 255 182 269 c 256,92,93
 185 283 185 283 177.5 292 c 128,-1,94
 170 301 170 301 156 301 c 256,95,96
 142 301 142 301 131.5 292 c 128,-1,97
 121 283 121 283 118 269 c 256,86,87
EndSplineSet
EndChar
StartChar: uni0E0B
Encoding: 3595 3595 222
Width: 401
Flags: W
Fore
151 110 m 2,0,1
 159 147 159 147 182.5 177.5 c 128,-1,2
 206 208 206 208 235 237 c 0,3,4
 263 264 263 264 269 290 c 0,5,6
 272 302 272 302 272 314.5 c 128,-1,7
 272 327 272 327 270 338.5 c 128,-1,8
 268 350 268 350 263.5 358 c 128,-1,9
 259 366 259 366 253 369 c 1,10,11
 243 362 243 362 233 354 c 0,12,13
 228 350 228 350 222 345 c 0,14,15
 215 340 215 340 207.5 340 c 128,-1,16
 200 340 200 340 196 345 c 2,17,-1
 175 369 l 1,18,19
 164 365 164 365 151 352.5 c 128,-1,20
 138 340 138 340 128 320 c 1,21,22
 116 311 116 311 110 301 c 1,23,-1
 111 298 l 1,24,25
 119 312 119 312 134 319.5 c 128,-1,26
 149 327 149 327 162 327 c 0,27,28
 188 327 188 327 202.5 310.5 c 128,-1,29
 217 294 217 294 212 269 c 0,30,31
 206 243 206 243 184 225 c 128,-1,32
 162 207 162 207 136 207 c 0,33,34
 104 207 104 207 90 232 c 128,-1,35
 76 257 76 257 83 290 c 0,36,37
 88 310 88 310 97 329.5 c 128,-1,38
 106 349 106 349 120 364 c 0,39,40
 153 402 153 402 189 402 c 0,41,42
 198 402 198 402 204 394 c 128,-1,43
 210 386 210 386 216 379 c 1,44,45
 224 384 224 384 233.5 393 c 128,-1,46
 243 402 243 402 253 402 c 0,47,48
 271 402 271 402 283.5 392 c 128,-1,49
 296 382 296 382 303 366.5 c 128,-1,50
 310 351 310 351 310.5 331 c 128,-1,51
 311 311 311 311 307 290 c 0,52,53
 302 270 302 270 288 251 c 128,-1,54
 274 232 274 232 255 213 c 0,55,56
 232 190 232 190 214.5 165.5 c 128,-1,57
 197 141 197 141 189 110 c 2,58,-1
 185 91 l 2,59,60
 179 63 179 63 195 45.5 c 128,-1,61
 211 28 211 28 239 28 c 256,62,63
 267 28 267 28 291.5 45 c 128,-1,64
 316 62 316 62 322 91 c 2,65,-1
 349 217 l 2,66,67
 357 254 357 254 352 269 c 128,-1,68
 347 284 347 284 333 289 c 0,69,70
 320 292 320 292 323 303 c 0,71,72
 325 314 325 314 339 317 c 0,73,74
 351 320 351 320 362 328.5 c 128,-1,75
 373 337 373 337 382 348 c 128,-1,76
 391 359 391 359 397.5 371.5 c 128,-1,77
 404 384 404 384 406 395 c 2,78,79
 408 401 408 401 408.5 404.5 c 128,-1,80
 409 408 409 408 408 414 c 1,81,82
 424 414 424 414 433.5 403 c 128,-1,83
 443 392 443 392 438 377 c 0,84,85
 429 354 429 354 411 332.5 c 128,-1,86
 393 311 393 311 373 303 c 1,87,88
 388 291 388 291 390.5 269 c 128,-1,89
 393 247 393 247 387 217 c 2,90,-1
 360 91 l 2,91,92
 355 69 355 69 342.5 51 c 128,-1,93
 330 33 330 33 312.5 20.5 c 128,-1,94
 295 8 295 8 274 1 c 128,-1,95
 253 -6 253 -6 232 -6 c 256,96,97
 211 -6 211 -6 193.5 1 c 128,-1,98
 176 8 176 8 164 20.5 c 128,-1,99
 152 33 152 33 147 51 c 128,-1,100
 142 69 142 69 147 91 c 2,101,-1
 151 110 l 2,0,1
118 269 m 256,102,103
 115 255 115 255 122 246 c 128,-1,104
 129 237 129 237 143 237 c 256,105,106
 157 237 157 237 168 246 c 128,-1,107
 179 255 179 255 182 269 c 256,108,109
 185 283 185 283 177.5 292 c 128,-1,110
 170 301 170 301 156 301 c 256,111,112
 142 301 142 301 131.5 292 c 128,-1,113
 121 283 121 283 118 269 c 256,102,103
EndSplineSet
EndChar
StartChar: uni0E0C
Encoding: 3596 3596 223
Width: 603
Flags: W
Fore
141 118 m 1,0,1
 130 112 130 112 121 102 c 1,2,-1
 122 99 l 1,3,4
 131 110 131 110 141 114 c 128,-1,5
 151 118 151 118 165 118 c 0,6,7
 191 118 191 118 205 100 c 128,-1,8
 219 82 219 82 213 56 c 0,9,10
 208 30 208 30 186 12 c 128,-1,11
 164 -6 164 -6 138 -6 c 256,12,13
 112 -6 112 -6 98 12 c 128,-1,14
 84 30 84 30 89 56 c 2,15,-1
 119 193 l 1,16,17
 117 195 117 195 114 206 c 128,-1,18
 111 217 111 217 107 229 c 0,19,20
 103 243 103 243 97 260 c 0,21,22
 95 264 95 264 97 269 c 1,23,24
 103 299 103 299 122.5 323.5 c 128,-1,25
 142 348 142 348 168 365.5 c 128,-1,26
 194 383 194 383 224.5 392.5 c 128,-1,27
 255 402 255 402 284 402 c 0,28,29
 312 402 312 402 338.5 393 c 128,-1,30
 365 384 365 384 384.5 367 c 128,-1,31
 404 350 404 350 413 325 c 128,-1,32
 422 300 422 300 415 269 c 2,33,-1
 378 96 l 1,34,-1
 512 33 l 1,35,-1
 581 359 l 2,36,37
 585 376 585 376 598.5 388.5 c 128,-1,38
 612 401 612 401 628 401 c 1,39,-1
 550 36 l 2,40,41
 546 18 546 18 532.5 6 c 128,-1,42
 519 -6 519 -6 503 -6 c 1,43,-1
 369 56 l 1,44,45
 364 30 364 30 342 12 c 128,-1,46
 320 -6 320 -6 294 -6 c 256,47,48
 268 -6 268 -6 254 12 c 128,-1,49
 240 30 240 30 245 56 c 0,50,51
 251 82 251 82 273 100 c 128,-1,52
 295 118 295 118 321 118 c 0,53,54
 328 118 328 118 334 116 c 128,-1,55
 340 114 340 114 345 112 c 1,56,57
 344 116 344 116 345 120 c 2,58,-1
 377 269 l 2,59,60
 381 288 381 288 375 306 c 128,-1,61
 369 324 369 324 355.5 338 c 128,-1,62
 342 352 342 352 322 360 c 128,-1,63
 302 368 302 368 277 368 c 0,64,65
 253 368 253 368 229.5 360.5 c 128,-1,66
 206 353 206 353 187 340 c 128,-1,67
 168 327 168 327 154.5 310 c 128,-1,68
 141 293 141 293 136 274 c 1,69,70
 137 271 137 271 140 260 c 128,-1,71
 143 249 143 249 147 237 c 0,72,73
 151 223 151 223 157 207 c 0,74,75
 158 204 158 204 158 198 c 1,76,-1
 141 118 l 1,0,1
275 56 m 0,77,78
 273 42 273 42 280 33 c 128,-1,79
 287 24 287 24 301 24 c 256,80,81
 315 24 315 24 326 33 c 128,-1,82
 337 42 337 42 339 56 c 0,83,84
 342 70 342 70 335 79 c 128,-1,85
 328 88 328 88 314 88 c 256,86,87
 300 88 300 88 289 79 c 128,-1,88
 278 70 278 70 275 56 c 0,77,78
158 88 m 256,89,90
 144 88 144 88 133 79 c 128,-1,91
 122 70 122 70 119 56 c 0,92,93
 117 42 117 42 124 33 c 128,-1,94
 131 24 131 24 145 24 c 256,95,96
 159 24 159 24 170 33 c 128,-1,97
 181 42 181 42 183 56 c 0,98,99
 186 70 186 70 179 79 c 128,-1,100
 172 88 172 88 158 88 c 256,89,90
EndSplineSet
EndChar
StartChar: uni0E0D
Encoding: 3597 3597 224
Width: 583
Flags: W
Fore
158 88 m 256,0,1
 144 88 144 88 133 79 c 128,-1,2
 122 70 122 70 119 56 c 0,3,4
 117 42 117 42 124 33 c 128,-1,5
 131 24 131 24 145 24 c 256,6,7
 159 24 159 24 170 33 c 128,-1,8
 181 42 181 42 183 56 c 0,9,10
 186 70 186 70 179 79 c 128,-1,11
 172 88 172 88 158 88 c 256,0,1
165 118 m 0,12,13
 191 118 191 118 205 100 c 128,-1,14
 219 82 219 82 213 56 c 0,15,16
 208 30 208 30 186 12 c 128,-1,17
 164 -6 164 -6 138 -6 c 256,18,19
 112 -6 112 -6 98 12 c 128,-1,20
 84 30 84 30 89 56 c 2,21,-1
 119 193 l 1,22,23
 117 195 117 195 114 206 c 128,-1,24
 111 217 111 217 107 229 c 0,25,26
 103 243 103 243 97 260 c 0,27,28
 95 264 95 264 97 269 c 1,29,30
 103 297 103 297 119.5 321.5 c 128,-1,31
 136 346 136 346 159.5 364 c 128,-1,32
 183 382 183 382 212.5 392 c 128,-1,33
 242 402 242 402 274 402 c 256,34,35
 306 402 306 402 331 392 c 128,-1,36
 356 382 356 382 372.5 364 c 128,-1,37
 389 346 389 346 395.5 321.5 c 128,-1,38
 402 297 402 297 396 269 c 2,39,-1
 358 91 l 2,40,41
 353 65 353 65 369.5 48.5 c 128,-1,42
 386 32 386 32 418 32 c 0,43,44
 449 32 449 32 474 48.5 c 128,-1,45
 499 65 499 65 504 91 c 2,46,-1
 561 359 l 2,47,48
 565 376 565 376 578.5 388.5 c 128,-1,49
 592 401 592 401 608 401 c 1,50,-1
 542 91 l 2,51,52
 537 69 537 69 524 51 c 128,-1,53
 511 33 511 33 492.5 20.5 c 128,-1,54
 474 8 474 8 452.5 1 c 128,-1,55
 431 -6 431 -6 410 -6 c 0,56,57
 390 -6 390 -6 371.5 0.5 c 128,-1,58
 353 7 353 7 340 19.5 c 128,-1,59
 327 32 327 32 321 50 c 128,-1,60
 315 68 315 68 320 91 c 2,61,-1
 358 269 l 2,62,63
 362 291 362 291 356.5 309 c 128,-1,64
 351 327 351 327 338.5 340 c 128,-1,65
 326 353 326 353 307.5 360.5 c 128,-1,66
 289 368 289 368 267 368 c 0,67,68
 247 368 247 368 226.5 361.5 c 128,-1,69
 206 355 206 355 188.5 343 c 128,-1,70
 171 331 171 331 157 313.5 c 128,-1,71
 143 296 143 296 136 274 c 1,72,73
 137 271 137 271 140 260 c 128,-1,74
 143 249 143 249 147 237 c 0,75,76
 151 223 151 223 157 207 c 0,77,78
 158 204 158 204 158 198 c 1,79,-1
 141 118 l 1,80,81
 130 112 130 112 121 102 c 1,82,-1
 122 99 l 1,83,84
 131 110 131 110 141 114 c 128,-1,85
 151 118 151 118 165 118 c 0,12,13
319 -86 m 0,86,87
 317 -98 317 -98 323.5 -106.5 c 128,-1,88
 330 -115 330 -115 342 -115 c 256,89,90
 354 -115 354 -115 364.5 -106.5 c 128,-1,91
 375 -98 375 -98 377 -86 c 0,92,93
 380 -74 380 -74 373 -65.5 c 128,-1,94
 366 -57 366 -57 354 -57 c 256,95,96
 342 -57 342 -57 332 -65.5 c 128,-1,97
 322 -74 322 -74 319 -86 c 0,86,87
379 -144 m 0,98,99
 398 -144 398 -144 415 -133.5 c 128,-1,100
 432 -123 432 -123 444 -106.5 c 128,-1,101
 456 -90 456 -90 462.5 -69.5 c 128,-1,102
 469 -49 469 -49 468 -30 c 1,103,104
 486 -30 486 -30 494.5 -40 c 128,-1,105
 503 -50 503 -50 499 -66 c 0,106,107
 495 -87 495 -87 483.5 -107 c 128,-1,108
 472 -127 472 -127 455 -143 c 128,-1,109
 438 -159 438 -159 417 -168.5 c 128,-1,110
 396 -178 396 -178 372 -178 c 0,111,112
 353 -178 353 -178 336.5 -171 c 128,-1,113
 320 -164 320 -164 308.5 -152 c 128,-1,114
 297 -140 297 -140 292 -123 c 128,-1,115
 287 -106 287 -106 291 -86 c 0,116,117
 296 -63 296 -63 316 -46 c 128,-1,118
 336 -29 336 -29 360 -29 c 0,119,120
 383 -29 383 -29 396.5 -46 c 128,-1,121
 410 -63 410 -63 405 -86 c 256,122,123
 400 -109 400 -109 380 -124 c 128,-1,124
 360 -139 360 -139 337 -139 c 1,125,-1
 334 -140 l 1,126,127
 347 -142 347 -142 357 -139 c 1,128,129
 367 -144 367 -144 379 -144 c 0,98,99
EndSplineSet
Substitution: 0 65534 'L026' uni0E0D.alt1
Substitution: 0 65534 'L026' uni0E0D.alt1
EndChar
StartChar: uni0E0E
Encoding: 3598 3598 225
AltUni: 63259
Width: 437
Flags: W
Fore
131 -150 m 0,0,1
 148 -151 148 -151 164 -141.5 c 128,-1,2
 180 -132 180 -132 199 -112 c 1,3,4
 185 -101 185 -101 171 -97 c 128,-1,5
 157 -93 157 -93 143 -95 c 0,6,7
 133 -97 133 -97 122.5 -102.5 c 128,-1,8
 112 -108 112 -108 108 -123 c 0,9,10
 103 -148 103 -148 131 -150 c 0,0,1
71 56 m 0,11,12
 69 42 69 42 76 33 c 128,-1,13
 83 24 83 24 97 24 c 256,14,15
 111 24 111 24 122 33 c 128,-1,16
 133 42 133 42 135 56 c 0,17,18
 138 70 138 70 131 79 c 128,-1,19
 124 88 124 88 110 88 c 256,20,21
 96 88 96 88 85 79 c 128,-1,22
 74 70 74 70 71 56 c 0,11,12
156 191 m 1,23,24
 154 194 154 194 147.5 205 c 128,-1,25
 141 216 141 216 134 227 c 2,26,-1
 116 257 l 1,27,28
 114 264 114 264 115 269 c 0,29,30
 121 299 121 299 140.5 324 c 128,-1,31
 160 349 160 349 186 366 c 128,-1,32
 212 383 212 383 242.5 392.5 c 128,-1,33
 273 402 273 402 302 402 c 0,34,35
 330 402 330 402 356.5 393 c 128,-1,36
 383 384 383 384 402.5 367 c 128,-1,37
 422 350 422 350 431 325 c 128,-1,38
 440 300 440 300 433 269 c 2,39,-1
 360 -75 l 2,40,41
 358 -83 358 -83 354 -90 c 128,-1,42
 350 -97 350 -97 345 -101 c 2,43,-1
 255 -176 l 2,44,45
 248 -182 248 -182 240 -180 c 0,46,47
 232 -179 232 -179 231 -171 c 0,48,49
 229 -159 229 -159 225.5 -149.5 c 128,-1,50
 222 -140 222 -140 217 -132 c 1,51,52
 166 -183 166 -183 118 -180 c 0,53,54
 93 -178 93 -178 80.5 -162.5 c 128,-1,55
 68 -147 68 -147 73 -123 c 0,56,57
 78 -100 78 -100 96.5 -84.5 c 128,-1,58
 115 -69 115 -69 142 -65 c 0,59,60
 180 -60 180 -60 214 -82 c 2,61,-1
 220 -87 l 1,62,63
 229 -75 229 -75 237 -62.5 c 128,-1,64
 245 -50 245 -50 253 -37 c 1,65,66
 264 -42 264 -42 266.5 -53.5 c 128,-1,67
 269 -65 269 -65 261 -77 c 0,68,69
 256 -85 256 -85 250.5 -92 c 128,-1,70
 245 -99 245 -99 240 -106 c 1,71,72
 245 -113 245 -113 250 -122 c 128,-1,73
 255 -131 255 -131 258 -142 c 1,74,-1
 318 -93 l 1,75,-1
 395 269 l 2,76,77
 399 288 399 288 393.5 306 c 128,-1,78
 388 324 388 324 374.5 338 c 128,-1,79
 361 352 361 352 340.5 360 c 128,-1,80
 320 368 320 368 295 368 c 0,81,82
 271 368 271 368 248 360.5 c 128,-1,83
 225 353 225 353 206 340 c 128,-1,84
 187 327 187 327 173 310 c 128,-1,85
 159 293 159 293 154 274 c 1,86,87
 156 270 156 270 162 259.5 c 128,-1,88
 168 249 168 249 175 238 c 0,89,90
 183 225 183 225 193 209 c 0,91,92
 196 204 196 204 195 197 c 2,93,-1
 165 56 l 2,94,95
 160 30 160 30 138 12 c 128,-1,96
 116 -6 116 -6 90 -6 c 256,97,98
 64 -6 64 -6 50 12 c 128,-1,99
 36 30 36 30 41 56 c 0,100,101
 47 82 47 82 69 100 c 128,-1,102
 91 118 91 118 117 118 c 0,103,104
 144 118 144 118 152 99 c 1,105,-1
 153 102 l 1,106,107
 150 112 150 112 141 118 c 1,108,-1
 156 191 l 1,23,24
EndSplineSet
Substitution: 0 65534 'L026' uni0E0E.alt1
Substitution: 0 65534 'L026' uni0E0E.alt1
EndChar
StartChar: uni0E0F
Encoding: 3599 3599 226
AltUni: 63260
Width: 436
Flags: W
Fore
117 118 m 0,0,1
 144 118 144 118 152 99 c 1,2,-1
 153 102 l 1,3,4
 150 112 150 112 141 118 c 1,5,-1
 156 191 l 1,6,7
 154 194 154 194 147.5 205 c 128,-1,8
 141 216 141 216 134 227 c 2,9,-1
 116 257 l 1,10,11
 114 264 114 264 115 269 c 0,12,13
 121 299 121 299 140.5 324 c 128,-1,14
 160 349 160 349 186 366 c 128,-1,15
 212 383 212 383 242.5 392.5 c 128,-1,16
 273 402 273 402 302 402 c 0,17,18
 330 402 330 402 356.5 393 c 128,-1,19
 383 384 383 384 402.5 367 c 128,-1,20
 422 350 422 350 431 325 c 128,-1,21
 440 300 440 300 433 269 c 2,22,-1
 353 -108 l 1,23,24
 351 -113 351 -113 347.5 -119.5 c 128,-1,25
 344 -126 344 -126 339 -130 c 2,26,-1
 283 -176 l 2,27,28
 278 -181 278 -181 271.5 -181 c 128,-1,29
 265 -181 265 -181 262 -176 c 2,30,-1
 234 -140 l 1,31,-1
 190 -176 l 2,32,33
 183 -182 183 -182 175 -180 c 0,34,35
 167 -179 167 -179 166 -171 c 0,36,37
 163 -148 163 -148 152 -132 c 1,38,39
 101 -183 101 -183 53 -180 c 0,40,41
 28 -178 28 -178 15.5 -162.5 c 128,-1,42
 3 -147 3 -147 8 -123 c 0,43,44
 13 -100 13 -100 31.5 -84.5 c 128,-1,45
 50 -69 50 -69 77 -65 c 0,46,47
 115 -60 115 -60 149 -82 c 2,48,-1
 155 -87 l 1,49,50
 161 -79 161 -79 167.5 -70 c 128,-1,51
 174 -61 174 -61 180 -51 c 0,52,53
 181 -49 181 -49 183.5 -44.5 c 128,-1,54
 186 -40 186 -40 188 -37 c 1,55,56
 199 -42 199 -42 201.5 -53.5 c 128,-1,57
 204 -65 204 -65 196 -77 c 0,58,59
 191 -85 191 -85 185.5 -92 c 128,-1,60
 180 -99 180 -99 175 -106 c 1,61,62
 180 -113 180 -113 186 -123 c 128,-1,63
 192 -133 192 -133 195 -144 c 1,64,-1
 232 -113 l 2,65,66
 246 -103 246 -103 253 -113 c 2,67,-1
 280 -146 l 1,68,-1
 312 -121 l 1,69,-1
 395 269 l 2,70,71
 399 288 399 288 393.5 306 c 128,-1,72
 388 324 388 324 374.5 338 c 128,-1,73
 361 352 361 352 340.5 360 c 128,-1,74
 320 368 320 368 295 368 c 0,75,76
 271 368 271 368 248 360.5 c 128,-1,77
 225 353 225 353 206 340 c 128,-1,78
 187 327 187 327 173 310 c 128,-1,79
 159 293 159 293 154 274 c 1,80,81
 156 270 156 270 162 259.5 c 128,-1,82
 168 249 168 249 175 238 c 0,83,84
 183 225 183 225 193 209 c 0,85,86
 196 204 196 204 195 197 c 2,87,-1
 165 56 l 2,88,89
 160 30 160 30 138 12 c 128,-1,90
 116 -6 116 -6 90 -6 c 256,91,92
 64 -6 64 -6 50 12 c 128,-1,93
 36 30 36 30 41 56 c 0,94,95
 47 82 47 82 69 100 c 128,-1,96
 91 118 91 118 117 118 c 0,0,1
66 -150 m 0,97,98
 83 -151 83 -151 99 -141.5 c 128,-1,99
 115 -132 115 -132 134 -112 c 1,100,101
 120 -101 120 -101 106 -97 c 128,-1,102
 92 -93 92 -93 78 -95 c 0,103,104
 68 -97 68 -97 57.5 -102.5 c 128,-1,105
 47 -108 47 -108 43 -123 c 0,106,107
 38 -148 38 -148 66 -150 c 0,97,98
71 56 m 0,108,109
 69 42 69 42 76 33 c 128,-1,110
 83 24 83 24 97 24 c 256,111,112
 111 24 111 24 122 33 c 128,-1,113
 133 42 133 42 135 56 c 0,114,115
 138 70 138 70 131 79 c 128,-1,116
 124 88 124 88 110 88 c 256,117,118
 96 88 96 88 85 79 c 128,-1,119
 74 70 74 70 71 56 c 0,108,109
EndSplineSet
Substitution: 0 65534 'L026' uni0E0F.alt1
Substitution: 0 65534 'L026' uni0E0F.alt1
EndChar
StartChar: uni0E10
Encoding: 3600 3600 227
Width: 385
Flags: W
Fore
253 -129 m 1,0,1
 262 -125 262 -125 268 -118 c 1,2,-1
 268 -115 l 1,3,4
 260 -123 260 -123 251 -126 c 128,-1,5
 242 -129 242 -129 230 -129 c 0,6,7
 209 -129 209 -129 196 -114 c 128,-1,8
 183 -99 183 -99 188 -76 c 0,9,10
 193 -54 193 -54 212 -38.5 c 128,-1,11
 231 -23 231 -23 253 -23 c 256,12,13
 275 -23 275 -23 287 -38.5 c 128,-1,14
 299 -54 299 -54 294 -76 c 2,15,-1
 281 -138 l 2,16,17
 279 -150 279 -150 271 -157 c 0,18,19
 269 -159 269 -159 262 -165 c 128,-1,20
 255 -171 255 -171 247 -178 c 2,21,-1
 227 -196 l 2,22,23
 222 -200 222 -200 217 -200 c 256,24,25
 212 -200 212 -200 209 -196 c 2,26,-1
 188 -167 l 1,27,-1
 155 -196 l 2,28,29
 150 -200 150 -200 144 -200 c 0,30,31
 137 -200 137 -200 135 -192 c 0,32,33
 133 -182 133 -182 131 -174.5 c 128,-1,34
 129 -167 129 -167 124 -160 c 1,35,36
 112 -177 112 -177 90.5 -188.5 c 128,-1,37
 69 -200 69 -200 49 -200 c 256,38,39
 29 -200 29 -200 18.5 -186 c 128,-1,40
 8 -172 8 -172 12 -152 c 0,41,42
 17 -130 17 -130 34.5 -116.5 c 128,-1,43
 52 -103 52 -103 73 -103 c 0,44,45
 89 -103 89 -103 103 -107 c 128,-1,46
 117 -111 117 -111 128 -121 c 1,47,48
 133 -114 133 -114 139.5 -103.5 c 128,-1,49
 146 -93 146 -93 154 -76 c 1,50,51
 164 -81 164 -81 165.5 -90 c 128,-1,52
 167 -99 167 -99 162 -110 c 0,53,54
 155 -125 155 -125 143 -138 c 1,55,56
 153 -150 153 -150 160 -169 c 1,57,-1
 188 -144 l 2,58,59
 192 -140 192 -140 198 -140 c 0,60,61
 202 -140 202 -140 206 -144 c 1,62,-1
 225 -171 l 1,63,-1
 249 -150 l 1,64,-1
 253 -129 l 1,0,1
55 -175 m 0,65,66
 81 -175 81 -175 110 -143 c 1,67,68
 99 -133 99 -133 88.5 -130.5 c 128,-1,69
 78 -128 78 -128 67 -128 c 0,70,71
 59 -128 59 -128 49.5 -133.5 c 128,-1,72
 40 -139 40 -139 37 -152 c 0,73,74
 35 -162 35 -162 40 -168.5 c 128,-1,75
 45 -175 45 -175 55 -175 c 0,65,66
216 -76 m 256,76,77
 214 -87 214 -87 219.5 -94 c 128,-1,78
 225 -101 225 -101 236 -101 c 256,79,80
 247 -101 247 -101 255.5 -94 c 128,-1,81
 264 -87 264 -87 266 -76 c 256,82,83
 268 -65 268 -65 263 -58 c 128,-1,84
 258 -51 258 -51 247 -51 c 256,85,86
 236 -51 236 -51 227 -58 c 128,-1,87
 218 -65 218 -65 216 -76 c 256,76,77
163 141 m 0,88,89
 161 127 161 127 168 118 c 128,-1,90
 175 109 175 109 189 109 c 256,91,92
 203 109 203 109 214 118 c 128,-1,93
 225 127 225 127 227 141 c 0,94,95
 230 155 230 155 223 164 c 128,-1,96
 216 173 216 173 202 173 c 256,97,98
 188 173 188 173 177 164 c 128,-1,99
 166 155 166 155 163 141 c 0,88,89
409 396 m 1,100,101
 423 389 423 389 424 376 c 128,-1,102
 425 363 425 363 415 349 c 2,103,-1
 379 299 l 2,104,105
 369 286 369 286 359 287 c 128,-1,106
 349 288 349 288 347 299 c 0,107,108
 342 329 342 329 317 348.5 c 128,-1,109
 292 368 292 368 258 368 c 0,110,111
 220 368 220 368 189.5 348.5 c 128,-1,112
 159 329 159 329 144 297 c 1,113,-1
 337 248 l 2,114,115
 349 245 349 245 355.5 233.5 c 128,-1,116
 362 222 362 222 358 207 c 2,117,-1
 322 36 l 2,118,119
 318 18 318 18 304.5 6 c 128,-1,120
 291 -6 291 -6 275 -6 c 1,121,-1
 240 104 l 1,122,123
 245 110 245 110 248 120 c 1,124,-1
 248 123 l 1,125,126
 237 100 237 100 219 89.5 c 128,-1,127
 201 79 201 79 182 79 c 0,128,129
 156 79 156 79 142 97 c 128,-1,130
 128 115 128 115 133 141 c 0,131,132
 139 167 139 167 161 185 c 128,-1,133
 183 203 183 203 209 203 c 0,134,135
 226 203 226 203 239 194 c 128,-1,136
 252 185 252 185 257 170 c 0,137,138
 259 165 259 165 265 145.5 c 128,-1,139
 271 126 271 126 278 103 c 0,140,141
 286 77 286 77 296 45 c 1,142,-1
 298 48 l 1,143,-1
 291 70 l 1,144,-1
 322 214 l 1,145,-1
 112 269 l 2,146,147
 106 271 106 271 102.5 276 c 128,-1,148
 99 281 99 281 101 289 c 0,149,150
 109 313 109 313 125.5 334 c 128,-1,151
 142 355 142 355 164 370 c 128,-1,152
 186 385 186 385 212 393.5 c 128,-1,153
 238 402 238 402 265 402 c 0,154,155
 308 402 308 402 338.5 380 c 128,-1,156
 369 358 369 358 377 326 c 1,157,-1
 378 329 l 1,158,159
 378 337 378 337 372 348 c 1,160,-1
 409 396 l 1,100,101
EndSplineSet
Substitution: 0 65534 'L026' uni0E10.alt1
Substitution: 0 65534 'L026' uni0E10.alt1
EndChar
StartChar: uni0E11
Encoding: 3601 3601 228
Width: 487
Flags: W
Fore
128 320 m 1,0,1
 116 311 116 311 110 301 c 1,2,-1
 111 298 l 1,3,4
 119 312 119 312 134 319.5 c 128,-1,5
 149 327 149 327 162 327 c 0,6,7
 188 327 188 327 202.5 310.5 c 128,-1,8
 217 294 217 294 212 269 c 0,9,10
 206 243 206 243 184 225 c 128,-1,11
 162 207 162 207 136 207 c 0,12,13
 104 207 104 207 90 232 c 128,-1,14
 76 257 76 257 83 290 c 0,15,16
 88 310 88 310 97 329.5 c 128,-1,17
 106 349 106 349 120 364 c 0,18,19
 153 402 153 402 189 402 c 0,20,21
 198 402 198 402 204 394 c 128,-1,22
 210 386 210 386 216 379 c 1,23,24
 224 384 224 384 233.5 393 c 128,-1,25
 243 402 243 402 253 402 c 0,26,27
 271 402 271 402 283.5 392 c 128,-1,28
 296 382 296 382 303 366.5 c 128,-1,29
 310 351 310 351 310.5 331 c 128,-1,30
 311 311 311 311 307 290 c 0,31,32
 302 270 302 270 288 251 c 128,-1,33
 274 232 274 232 255 213 c 0,34,35
 231 190 231 190 218.5 166 c 128,-1,36
 206 142 206 142 199 110 c 2,37,-1
 191 74 l 1,38,-1
 173 48 l 1,39,-1
 173 45 l 1,40,-1
 427 392 l 2,41,42
 433 402 433 402 446 402 c 0,43,44
 476 402 476 402 490 384 c 128,-1,45
 504 366 504 366 498 336 c 2,46,-1
 434 36 l 2,47,48
 430 18 430 18 416.5 6 c 128,-1,49
 403 -6 403 -6 387 -6 c 1,50,-1
 460 336 l 2,51,52
 465 361 465 361 444 364 c 1,53,-1
 174 -6 l 1,54,55
 158 -6 158 -6 149.5 6 c 128,-1,56
 141 18 141 18 145 36 c 2,57,-1
 161 110 l 2,58,59
 169 147 169 147 186.5 177 c 128,-1,60
 204 207 204 207 235 237 c 0,61,62
 263 264 263 264 269 290 c 0,63,64
 272 302 272 302 272 314.5 c 128,-1,65
 272 327 272 327 270 338.5 c 128,-1,66
 268 350 268 350 263.5 358 c 128,-1,67
 259 366 259 366 253 369 c 1,68,69
 243 362 243 362 233 354 c 0,70,71
 228 350 228 350 222 345 c 0,72,73
 215 340 215 340 207.5 340 c 128,-1,74
 200 340 200 340 196 345 c 2,75,-1
 175 369 l 1,76,77
 164 365 164 365 151 352.5 c 128,-1,78
 138 340 138 340 128 320 c 1,0,1
118 269 m 256,79,80
 115 255 115 255 122 246 c 128,-1,81
 129 237 129 237 143 237 c 256,82,83
 157 237 157 237 168 246 c 128,-1,84
 179 255 179 255 182 269 c 256,85,86
 185 283 185 283 177.5 292 c 128,-1,87
 170 301 170 301 156 301 c 256,88,89
 142 301 142 301 131.5 292 c 128,-1,90
 121 283 121 283 118 269 c 256,79,80
EndSplineSet
EndChar
StartChar: uni0E12
Encoding: 3602 3602 229
Width: 622
Flags: W
Fore
235 227 m 256,0,1
 232 213 232 213 239 204 c 128,-1,2
 246 195 246 195 260 195 c 256,3,4
 274 195 274 195 285 204 c 128,-1,5
 296 213 296 213 299 227 c 256,6,7
 302 241 302 241 295 250 c 128,-1,8
 288 259 288 259 274 259 c 256,9,10
 260 259 260 259 249 250 c 128,-1,11
 238 241 238 241 235 227 c 256,0,1
292 58 m 256,12,13
 289 44 289 44 297 34 c 128,-1,14
 305 24 305 24 319 24 c 256,15,16
 333 24 333 24 345 34 c 128,-1,17
 357 44 357 44 360 58 c 256,18,19
 363 72 363 72 355 82 c 128,-1,20
 347 92 347 92 333 92 c 256,21,22
 319 92 319 92 307 82 c 128,-1,23
 295 72 295 72 292 58 c 256,12,13
254 166 m 1,24,25
 228 166 228 166 214 183.5 c 128,-1,26
 200 201 200 201 205 227 c 256,27,28
 210 253 210 253 232 271 c 128,-1,29
 254 289 254 289 280 289 c 0,30,31
 305 289 305 289 319.5 271 c 128,-1,32
 334 253 334 253 329 227 c 0,33,34
 323 204 323 204 305 187 c 2,35,-1
 96 -6 l 1,36,37
 80 -6 80 -6 71.5 6 c 128,-1,38
 63 18 63 18 67 36 c 2,39,-1
 121 288 l 2,40,41
 127 315 127 315 141.5 336.5 c 128,-1,42
 156 358 156 358 174 372.5 c 128,-1,43
 192 387 192 387 211.5 394.5 c 128,-1,44
 231 402 231 402 246 402 c 0,45,46
 254 402 254 402 257 397 c 1,47,48
 265 389 265 389 272 383 c 0,49,50
 278 377 278 377 284 371.5 c 128,-1,51
 290 366 290 366 295 361 c 1,52,-1
 349 397 l 2,53,54
 356 402 356 402 362 402 c 0,55,56
 377 402 377 402 393 394.5 c 128,-1,57
 409 387 409 387 421 372.5 c 128,-1,58
 433 358 433 358 439 336.5 c 128,-1,59
 445 315 445 315 439 288 c 2,60,-1
 399 99 l 1,61,-1
 530 32 l 1,62,-1
 600 359 l 2,63,64
 604 376 604 376 617.5 388.5 c 128,-1,65
 631 401 631 401 647 401 c 1,66,-1
 569 36 l 2,67,68
 565 18 565 18 551.5 6 c 128,-1,69
 538 -6 538 -6 522 -6 c 1,70,-1
 390 60 l 1,71,72
 384 31 384 31 361.5 12.5 c 128,-1,73
 339 -6 339 -6 312 -6 c 0,74,75
 286 -6 286 -6 271 12.5 c 128,-1,76
 256 31 256 31 262 58 c 0,77,78
 267 84 267 84 290 103 c 128,-1,79
 313 122 313 122 339 122 c 0,80,81
 353 122 353 122 364 116 c 1,82,-1
 401 288 l 2,83,84
 404 305 404 305 401.5 319 c 128,-1,85
 399 333 399 333 392.5 343 c 128,-1,86
 386 353 386 353 377.5 359 c 128,-1,87
 369 365 369 365 361 367 c 1,88,89
 356 364 356 364 346.5 357 c 128,-1,90
 337 350 337 350 326 343 c 0,91,92
 314 335 314 335 300 326 c 0,93,94
 286 316 286 316 276 326 c 0,95,96
 266 335 266 335 257 343 c 0,97,98
 249 350 249 350 242.5 357 c 128,-1,99
 236 364 236 364 233 367 c 1,100,101
 224 365 224 365 212.5 359 c 128,-1,102
 201 353 201 353 190.5 343 c 128,-1,103
 180 333 180 333 171 319 c 128,-1,104
 162 305 162 305 159 288 c 2,105,-1
 109 52 l 1,106,-1
 91 35 l 1,107,-1
 91 32 l 1,108,-1
 236 165 l 1,109,110
 240 164 240 164 244 163.5 c 128,-1,111
 248 163 248 163 254 163 c 1,112,-1
 254 166 l 1,24,25
EndSplineSet
EndChar
StartChar: uni0E13
Encoding: 3603 3603 230
Width: 600
Flags: W
Fore
119 56 m 0,0,1
 117 42 117 42 124 33 c 128,-1,2
 131 24 131 24 145 24 c 256,3,4
 159 24 159 24 170 33 c 128,-1,5
 181 42 181 42 183 56 c 0,6,7
 186 70 186 70 179 79 c 128,-1,8
 172 88 172 88 158 88 c 256,9,10
 144 88 144 88 133 79 c 128,-1,11
 122 70 122 70 119 56 c 0,0,1
484 58 m 256,12,13
 481 44 481 44 489 34 c 128,-1,14
 497 24 497 24 511 24 c 256,15,16
 525 24 525 24 537 34 c 128,-1,17
 549 44 549 44 552 58 c 256,18,19
 555 72 555 72 547 82 c 128,-1,20
 539 92 539 92 525 92 c 256,21,22
 511 92 511 92 499 82 c 128,-1,23
 487 72 487 72 484 58 c 256,12,13
165 118 m 0,24,25
 191 118 191 118 205 100 c 128,-1,26
 219 82 219 82 213 56 c 0,27,28
 208 30 208 30 186 12 c 128,-1,29
 164 -6 164 -6 138 -6 c 256,30,31
 112 -6 112 -6 98 12 c 128,-1,32
 84 30 84 30 89 56 c 2,33,-1
 119 193 l 1,34,35
 117 195 117 195 114 206 c 128,-1,36
 111 217 111 217 107 229 c 0,37,38
 103 243 103 243 97 260 c 0,39,40
 95 264 95 264 97 269 c 1,41,42
 103 297 103 297 119.5 321.5 c 128,-1,43
 136 346 136 346 160 364 c 128,-1,44
 184 382 184 382 213.5 392 c 128,-1,45
 243 402 243 402 275 402 c 256,46,47
 307 402 307 402 332 392 c 128,-1,48
 357 382 357 382 373.5 364 c 128,-1,49
 390 346 390 346 396.5 321.5 c 128,-1,50
 403 297 403 297 397 269 c 2,51,-1
 347 35 l 1,52,-1
 482 105 l 2,53,54
 502 116 502 116 509 126 c 128,-1,55
 516 136 516 136 518 146 c 2,56,-1
 563 359 l 2,57,58
 567 376 567 376 580.5 388.5 c 128,-1,59
 594 401 594 401 610 401 c 1,60,-1
 556 146 l 2,61,62
 554 139 554 139 551.5 132 c 128,-1,63
 549 125 549 125 546 120 c 1,64,65
 566 115 566 115 576.5 98 c 128,-1,66
 587 81 587 81 582 58 c 0,67,68
 576 31 576 31 553 12.5 c 128,-1,69
 530 -6 530 -6 504 -6 c 256,70,71
 478 -6 478 -6 463.5 11.5 c 128,-1,72
 449 29 449 29 453 53 c 1,73,-1
 338 -6 l 1,74,75
 322 -6 322 -6 313.5 6 c 128,-1,76
 305 18 305 18 309 36 c 2,77,-1
 359 269 l 2,78,79
 363 289 363 289 359.5 306.5 c 128,-1,80
 356 324 356 324 343 337 c 0,81,82
 331 351 331 351 311.5 359.5 c 128,-1,83
 292 368 292 368 268 368 c 256,84,85
 244 368 244 368 221 359.5 c 128,-1,86
 198 351 198 351 179 337 c 0,87,88
 163 325 163 325 152 308 c 128,-1,89
 141 291 141 291 136 274 c 1,90,91
 137 271 137 271 140 260 c 128,-1,92
 143 249 143 249 147 237 c 0,93,94
 151 223 151 223 157 207 c 0,95,96
 158 204 158 204 158 198 c 1,97,-1
 141 118 l 1,98,99
 130 112 130 112 121 102 c 1,100,-1
 122 99 l 1,101,102
 131 110 131 110 141 114 c 128,-1,103
 151 118 151 118 165 118 c 0,24,25
EndSplineSet
EndChar
StartChar: uni0E14
Encoding: 3604 3604 231
Width: 438
Flags: W
Fore
237 237 m 256,0,1
 234 223 234 223 241 214 c 128,-1,2
 248 205 248 205 262 205 c 256,3,4
 276 205 276 205 287 214 c 128,-1,5
 298 223 298 223 301 237 c 256,6,7
 304 251 304 251 297 260 c 128,-1,8
 290 269 290 269 276 269 c 256,9,10
 262 269 262 269 251 260 c 128,-1,11
 240 251 240 251 237 237 c 256,0,1
109 54 m 1,12,-1
 91 36 l 1,13,-1
 92 33 l 1,14,-1
 239 175 l 1,15,16
 243 174 243 174 247 173.5 c 128,-1,17
 251 173 251 173 257 173 c 1,18,-1
 257 176 l 1,19,20
 231 176 231 176 216.5 193.5 c 128,-1,21
 202 211 202 211 207 237 c 256,22,23
 212 263 212 263 234 281 c 128,-1,24
 256 299 256 299 282 299 c 256,25,26
 308 299 308 299 322 281 c 128,-1,27
 336 263 336 263 331 237 c 0,28,29
 326 215 326 215 309 198 c 2,30,-1
 96 -6 l 1,31,32
 80 -6 80 -6 71.5 6 c 128,-1,33
 63 18 63 18 67 36 c 2,34,-1
 117 269 l 2,35,36
 122 296 122 296 140 320.5 c 128,-1,37
 158 345 158 345 185 364 c 0,38,39
 211 382 211 382 241.5 392 c 128,-1,40
 272 402 272 402 304 402 c 0,41,42
 335 402 335 402 361.5 392 c 128,-1,43
 388 382 388 382 407 364 c 0,44,45
 427 345 427 345 433.5 320.5 c 128,-1,46
 440 296 440 296 435 269 c 2,47,-1
 385 36 l 2,48,49
 381 18 381 18 367.5 6 c 128,-1,50
 354 -6 354 -6 338 -6 c 1,51,-1
 397 269 l 2,52,53
 401 288 401 288 395 306 c 128,-1,54
 389 324 389 324 375.5 338 c 128,-1,55
 362 352 362 352 342 360 c 128,-1,56
 322 368 322 368 297 368 c 256,57,58
 272 368 272 368 248 360 c 128,-1,59
 224 352 224 352 205 338 c 128,-1,60
 186 324 186 324 172.5 306 c 128,-1,61
 159 288 159 288 155 269 c 2,62,-1
 109 54 l 1,12,-1
EndSplineSet
EndChar
StartChar: uni0E15
Encoding: 3605 3605 232
Width: 438
Flags: W
Fore
235 227 m 256,0,1
 232 213 232 213 239 204 c 128,-1,2
 246 195 246 195 260 195 c 256,3,4
 274 195 274 195 285 204 c 128,-1,5
 296 213 296 213 299 227 c 256,6,7
 302 241 302 241 295 250 c 128,-1,8
 288 259 288 259 274 259 c 256,9,10
 260 259 260 259 249 250 c 128,-1,11
 238 241 238 241 235 227 c 256,0,1
109 52 m 1,12,-1
 91 35 l 1,13,-1
 91 32 l 1,14,-1
 236 165 l 1,15,16
 240 164 240 164 244 163.5 c 128,-1,17
 248 163 248 163 254 163 c 1,18,-1
 254 166 l 1,19,20
 228 166 228 166 214 183.5 c 128,-1,21
 200 201 200 201 205 227 c 256,22,23
 210 253 210 253 232 271 c 128,-1,24
 254 289 254 289 280 289 c 0,25,26
 305 289 305 289 319.5 271 c 128,-1,27
 334 253 334 253 329 227 c 0,28,29
 323 204 323 204 305 187 c 2,30,-1
 96 -6 l 1,31,32
 80 -6 80 -6 71.5 6 c 128,-1,33
 63 18 63 18 67 36 c 2,34,-1
 121 288 l 2,35,36
 127 315 127 315 141.5 336.5 c 128,-1,37
 156 358 156 358 174 372.5 c 128,-1,38
 192 387 192 387 211.5 394.5 c 128,-1,39
 231 402 231 402 246 402 c 0,40,41
 254 402 254 402 257 397 c 1,42,43
 265 389 265 389 272 383 c 0,44,45
 278 377 278 377 284 371.5 c 128,-1,46
 290 366 290 366 295 361 c 1,47,-1
 349 397 l 2,48,49
 356 402 356 402 362 402 c 0,50,51
 377 402 377 402 393 394.5 c 128,-1,52
 409 387 409 387 421 372.5 c 128,-1,53
 433 358 433 358 439 336.5 c 128,-1,54
 445 315 445 315 439 288 c 2,55,-1
 385 36 l 2,56,57
 381 18 381 18 367.5 6 c 128,-1,58
 354 -6 354 -6 338 -6 c 1,59,-1
 401 288 l 2,60,61
 404 305 404 305 401.5 319 c 128,-1,62
 399 333 399 333 392.5 343 c 128,-1,63
 386 353 386 353 377.5 359 c 128,-1,64
 369 365 369 365 361 367 c 1,65,66
 356 364 356 364 346.5 357 c 128,-1,67
 337 350 337 350 326 343 c 0,68,69
 314 335 314 335 300 326 c 0,70,71
 286 316 286 316 276 326 c 0,72,73
 266 335 266 335 257 343 c 0,74,75
 249 350 249 350 242.5 357 c 128,-1,76
 236 364 236 364 233 367 c 1,77,78
 224 365 224 365 212.5 359 c 128,-1,79
 201 353 201 353 190.5 343 c 128,-1,80
 180 333 180 333 171 319 c 128,-1,81
 162 305 162 305 159 288 c 2,82,-1
 109 52 l 1,12,-1
EndSplineSet
EndChar
StartChar: uni0E16
Encoding: 3606 3606 233
Width: 418
Flags: W
Fore
119 56 m 0,0,1
 117 42 117 42 124 33 c 128,-1,2
 131 24 131 24 145 24 c 256,3,4
 159 24 159 24 170 33 c 128,-1,5
 181 42 181 42 183 56 c 0,6,7
 186 70 186 70 179 79 c 128,-1,8
 172 88 172 88 158 88 c 256,9,10
 144 88 144 88 133 79 c 128,-1,11
 122 70 122 70 119 56 c 0,0,1
165 118 m 0,12,13
 191 118 191 118 205 100 c 128,-1,14
 219 82 219 82 213 56 c 0,15,16
 208 30 208 30 186 12 c 128,-1,17
 164 -6 164 -6 138 -6 c 256,18,19
 112 -6 112 -6 98 12 c 128,-1,20
 84 30 84 30 89 56 c 2,21,-1
 119 193 l 1,22,23
 117 195 117 195 114 206 c 128,-1,24
 111 217 111 217 107 229 c 0,25,26
 103 243 103 243 97 260 c 0,27,28
 95 264 95 264 97 269 c 1,29,30
 103 299 103 299 122.5 323.5 c 128,-1,31
 142 348 142 348 168 365.5 c 128,-1,32
 194 383 194 383 224.5 392.5 c 128,-1,33
 255 402 255 402 284 402 c 0,34,35
 312 402 312 402 338.5 393 c 128,-1,36
 365 384 365 384 384.5 367 c 128,-1,37
 404 350 404 350 413 325 c 128,-1,38
 422 300 422 300 415 269 c 2,39,-1
 365 36 l 2,40,41
 361 18 361 18 347.5 6 c 128,-1,42
 334 -6 334 -6 318 -6 c 1,43,-1
 377 269 l 2,44,45
 381 288 381 288 375 306 c 128,-1,46
 369 324 369 324 355.5 338 c 128,-1,47
 342 352 342 352 322 360 c 128,-1,48
 302 368 302 368 277 368 c 0,49,50
 253 368 253 368 229.5 360.5 c 128,-1,51
 206 353 206 353 187 340 c 128,-1,52
 168 327 168 327 154.5 310 c 128,-1,53
 141 293 141 293 136 274 c 1,54,55
 137 271 137 271 140 260 c 128,-1,56
 143 249 143 249 147 237 c 0,57,58
 151 223 151 223 157 207 c 0,59,60
 158 204 158 204 158 198 c 1,61,-1
 141 118 l 1,62,63
 130 112 130 112 121 102 c 1,64,-1
 122 99 l 1,65,66
 131 110 131 110 141 114 c 128,-1,67
 151 118 151 118 165 118 c 0,12,13
EndSplineSet
EndChar
StartChar: uni0E17
Encoding: 3607 3607 234
Width: 465
Flags: W
Fore
175 278 m 1,0,1
 188 285 188 285 194 294 c 1,2,-1
 194 297 l 1,3,4
 178 278 178 278 151 278 c 0,5,6
 125 278 125 278 111 296 c 128,-1,7
 97 314 97 314 102 340 c 256,8,9
 107 366 107 366 129 384 c 128,-1,10
 151 402 151 402 177 402 c 256,11,12
 203 402 203 402 217 384 c 128,-1,13
 231 366 231 366 226 340 c 2,14,-1
 174 98 l 1,15,-1
 155 64 l 1,16,-1
 155 61 l 1,17,18
 210 152 210 152 254 224 c 0,19,20
 273 255 273 255 290.5 284 c 128,-1,21
 308 313 308 313 322.5 336.5 c 128,-1,22
 337 360 337 360 345.5 374.5 c 128,-1,23
 354 389 354 389 355 390 c 0,24,25
 362 402 362 402 376 402 c 0,26,27
 430 402 430 402 454 372 c 0,28,29
 466 358 466 358 468.5 336.5 c 128,-1,30
 471 315 471 315 466 288 c 2,31,-1
 412 36 l 2,32,33
 408 18 408 18 394.5 6 c 128,-1,34
 381 -6 381 -6 365 -6 c 1,35,-1
 428 288 l 2,36,37
 443 360 443 360 377 364 c 1,38,-1
 152 -6 l 1,39,40
 136 -6 136 -6 127.5 6 c 128,-1,41
 119 18 119 18 123 36 c 2,42,-1
 175 278 l 1,0,1
132 340 m 256,43,44
 129 326 129 326 136 317 c 128,-1,45
 143 308 143 308 157 308 c 256,46,47
 171 308 171 308 182 317 c 128,-1,48
 193 326 193 326 196 340 c 256,49,50
 199 354 199 354 192 363 c 128,-1,51
 185 372 185 372 171 372 c 256,52,53
 157 372 157 372 146 363 c 128,-1,54
 135 354 135 354 132 340 c 256,43,44
EndSplineSet
EndChar
StartChar: uni0E18
Encoding: 3608 3608 235
Width: 385
Flags: W
Fore
351 126 m 2,0,1
 339 69 339 69 297 31.5 c 128,-1,2
 255 -6 255 -6 190 -6 c 0,3,4
 126 -6 126 -6 100 32 c 128,-1,5
 74 70 74 70 86 126 c 2,6,-1
 100 190 l 2,7,8
 104 207 104 207 117.5 219.5 c 128,-1,9
 131 232 131 232 147 232 c 1,10,-1
 124 126 l 2,11,12
 115 82 115 82 134.5 55 c 128,-1,13
 154 28 154 28 197 28 c 0,14,15
 239 28 239 28 271 54 c 128,-1,16
 303 80 303 80 313 126 c 2,17,-1
 331 211 l 1,18,-1
 112 269 l 2,19,20
 106 271 106 271 102.5 276 c 128,-1,21
 99 281 99 281 101 289 c 0,22,23
 109 313 109 313 125.5 334 c 128,-1,24
 142 355 142 355 164 370 c 128,-1,25
 186 385 186 385 212 393.5 c 128,-1,26
 238 402 238 402 265 402 c 0,27,28
 308 402 308 402 338.5 380 c 128,-1,29
 369 358 369 358 377 326 c 1,30,-1
 378 329 l 1,31,32
 378 337 378 337 372 348 c 1,33,-1
 409 396 l 1,34,35
 423 389 423 389 424 376 c 128,-1,36
 425 363 425 363 415 349 c 2,37,-1
 379 299 l 2,38,39
 369 286 369 286 359 287 c 128,-1,40
 349 288 349 288 347 299 c 0,41,42
 342 329 342 329 317 348.5 c 128,-1,43
 292 368 292 368 258 368 c 0,44,45
 220 368 220 368 189.5 348.5 c 128,-1,46
 159 329 159 329 144 297 c 1,47,-1
 347 245 l 2,48,49
 359 242 359 242 365 230.5 c 128,-1,50
 371 219 371 219 368 204 c 2,51,-1
 351 126 l 2,0,1
EndSplineSet
EndChar
StartChar: uni0E19
Encoding: 3609 3609 236
Width: 471
Flags: W
Fore
175 278 m 1,0,1
 188 285 188 285 194 294 c 1,2,-1
 194 297 l 1,3,4
 178 278 178 278 151 278 c 0,5,6
 125 278 125 278 111 296 c 128,-1,7
 97 314 97 314 102 340 c 256,8,9
 107 366 107 366 129 384 c 128,-1,10
 151 402 151 402 177 402 c 256,11,12
 203 402 203 402 217 384 c 128,-1,13
 231 366 231 366 226 340 c 2,14,-1
 161 33 l 1,15,-1
 350 107 l 2,16,17
 368 115 368 115 377.5 127 c 128,-1,18
 387 139 387 139 389 149 c 2,19,-1
 434 359 l 2,20,21
 438 376 438 376 451.5 388.5 c 128,-1,22
 465 401 465 401 481 401 c 1,23,-1
 427 149 l 2,24,25
 425 141 425 141 422 134.5 c 128,-1,26
 419 128 419 128 414 121 c 1,27,28
 435 116 435 116 446.5 98.5 c 128,-1,29
 458 81 458 81 453 58 c 0,30,31
 447 32 447 32 424 13 c 128,-1,32
 401 -6 401 -6 375 -6 c 0,33,34
 348 -6 348 -6 333.5 13 c 128,-1,35
 319 32 319 32 325 61 c 1,36,-1
 152 -6 l 1,37,38
 136 -6 136 -6 127.5 6 c 128,-1,39
 119 18 119 18 123 36 c 2,40,-1
 175 278 l 1,0,1
132 340 m 256,41,42
 129 326 129 326 136 317 c 128,-1,43
 143 308 143 308 157 308 c 256,44,45
 171 308 171 308 182 317 c 128,-1,46
 193 326 193 326 196 340 c 256,47,48
 199 354 199 354 192 363 c 128,-1,49
 185 372 185 372 171 372 c 256,50,51
 157 372 157 372 146 363 c 128,-1,52
 135 354 135 354 132 340 c 256,41,42
355 58 m 256,53,54
 352 44 352 44 360 34 c 128,-1,55
 368 24 368 24 382 24 c 256,56,57
 396 24 396 24 408 34 c 128,-1,58
 420 44 420 44 423 58 c 256,59,60
 426 72 426 72 418 82 c 128,-1,61
 410 92 410 92 396 92 c 256,62,63
 382 92 382 92 370 82 c 128,-1,64
 358 72 358 72 355 58 c 256,53,54
EndSplineSet
EndChar
StartChar: uni0E1A
Encoding: 3610 3610 237
Width: 455
Flags: W
Fore
132 340 m 256,0,1
 129 326 129 326 136 317 c 128,-1,2
 143 308 143 308 157 308 c 256,3,4
 171 308 171 308 182 317 c 128,-1,5
 193 326 193 326 196 340 c 256,6,7
 199 354 199 354 192 363 c 128,-1,8
 185 372 185 372 171 372 c 256,9,10
 157 372 157 372 146 363 c 128,-1,11
 135 354 135 354 132 340 c 256,0,1
151 278 m 0,12,13
 125 278 125 278 111 296 c 128,-1,14
 97 314 97 314 102 340 c 256,15,16
 107 366 107 366 129 384 c 128,-1,17
 151 402 151 402 177 402 c 256,18,19
 203 402 203 402 217 384 c 128,-1,20
 231 366 231 366 226 340 c 2,21,-1
 180 127 l 2,22,23
 172 85 172 85 193.5 56.5 c 128,-1,24
 215 28 215 28 260 28 c 0,25,26
 282 28 282 28 302.5 35.5 c 128,-1,27
 323 43 323 43 339.5 56.5 c 128,-1,28
 356 70 356 70 367.5 88 c 128,-1,29
 379 106 379 106 383 127 c 2,30,-1
 433 359 l 2,31,32
 437 376 437 376 450.5 388.5 c 128,-1,33
 464 401 464 401 480 401 c 1,34,-1
 421 127 l 2,35,36
 415 97 415 97 399 72.5 c 128,-1,37
 383 48 383 48 360.5 30.5 c 128,-1,38
 338 13 338 13 310.5 3.5 c 128,-1,39
 283 -6 283 -6 253 -6 c 0,40,41
 224 -6 224 -6 200.5 3.5 c 128,-1,42
 177 13 177 13 162 30.5 c 128,-1,43
 147 48 147 48 141.5 72.5 c 128,-1,44
 136 97 136 97 142 127 c 2,45,-1
 175 278 l 1,46,47
 188 285 188 285 194 294 c 1,48,-1
 194 297 l 1,49,50
 178 278 178 278 151 278 c 0,12,13
EndSplineSet
EndChar
StartChar: uni0E1B
Encoding: 3611 3611 238
Width: 465
Flags: W
Fore
132 340 m 256,0,1
 129 326 129 326 136 317 c 128,-1,2
 143 308 143 308 157 308 c 256,3,4
 171 308 171 308 182 317 c 128,-1,5
 193 326 193 326 196 340 c 256,6,7
 199 354 199 354 192 363 c 128,-1,8
 185 372 185 372 171 372 c 256,9,10
 157 372 157 372 146 363 c 128,-1,11
 135 354 135 354 132 340 c 256,0,1
151 278 m 0,12,13
 125 278 125 278 111 296 c 128,-1,14
 97 314 97 314 102 340 c 256,15,16
 107 366 107 366 129 384 c 128,-1,17
 151 402 151 402 177 402 c 256,18,19
 203 402 203 402 217 384 c 128,-1,20
 231 366 231 366 226 340 c 2,21,-1
 180 127 l 2,22,23
 172 85 172 85 194.5 56.5 c 128,-1,24
 217 28 217 28 265 28 c 0,25,26
 289 28 289 28 310 35.5 c 128,-1,27
 331 43 331 43 348.5 56.5 c 128,-1,28
 366 70 366 70 377.5 88 c 128,-1,29
 389 106 389 106 393 127 c 2,30,-1
 477 522 l 2,31,32
 481 539 481 539 494.5 551.5 c 128,-1,33
 508 564 508 564 524 564 c 1,34,-1
 431 127 l 2,35,36
 425 97 425 97 408 72.5 c 128,-1,37
 391 48 391 48 367.5 30.5 c 128,-1,38
 344 13 344 13 315.5 3.5 c 128,-1,39
 287 -6 287 -6 258 -6 c 0,40,41
 230 -6 230 -6 206 3.5 c 128,-1,42
 182 13 182 13 165.5 30.5 c 128,-1,43
 149 48 149 48 142.5 72.5 c 128,-1,44
 136 97 136 97 142 127 c 2,45,-1
 175 278 l 1,46,47
 188 285 188 285 194 294 c 1,48,-1
 194 297 l 1,49,50
 178 278 178 278 151 278 c 0,12,13
EndSplineSet
EndChar
StartChar: uni0E1C
Encoding: 3612 3612 239
Width: 420
Flags: W
Fore
162 340 m 256,0,1
 159 326 159 326 166 317 c 128,-1,2
 173 308 173 308 187 308 c 256,3,4
 201 308 201 308 212 317 c 128,-1,5
 223 326 223 326 226 340 c 256,6,7
 229 354 229 354 222 363 c 128,-1,8
 215 372 215 372 201 372 c 256,9,10
 187 372 187 372 176 363 c 128,-1,11
 165 354 165 354 162 340 c 256,0,1
342 42 m 1,12,-1
 344 45 l 1,13,-1
 336 70 l 1,14,-1
 398 359 l 2,15,16
 402 376 402 376 415.5 388.5 c 128,-1,17
 429 401 429 401 445 401 c 1,18,-1
 367 36 l 2,19,20
 363 18 363 18 349.5 6 c 128,-1,21
 336 -6 336 -6 320 -6 c 1,22,-1
 250 190 l 1,23,-1
 96 -6 l 1,24,25
 80 -6 80 -6 71.5 6 c 128,-1,26
 63 18 63 18 67 36 c 2,27,-1
 132 340 l 2,28,29
 137 366 137 366 159 384 c 128,-1,30
 181 402 181 402 207 402 c 256,31,32
 233 402 233 402 247 384 c 128,-1,33
 261 366 261 366 256 340 c 256,34,35
 251 314 251 314 229 296 c 128,-1,36
 207 278 207 278 181 278 c 0,37,38
 154 278 154 278 146 297 c 1,39,-1
 144 294 l 1,40,41
 149 283 149 283 157 278 c 1,42,-1
 112 70 l 1,43,-1
 94 45 l 1,44,-1
 94 42 l 1,45,-1
 242 229 l 2,46,47
 245 234 245 234 250 236 c 128,-1,48
 255 238 255 238 260 238 c 0,49,50
 271 238 271 238 274 229 c 2,51,-1
 342 42 l 1,12,-1
EndSplineSet
EndChar
StartChar: uni0E1D
Encoding: 3613 3613 240
Width: 420
Flags: W
Fore
162 340 m 256,0,1
 159 326 159 326 166 317 c 128,-1,2
 173 308 173 308 187 308 c 256,3,4
 201 308 201 308 212 317 c 128,-1,5
 223 326 223 326 226 340 c 256,6,7
 229 354 229 354 222 363 c 128,-1,8
 215 372 215 372 201 372 c 256,9,10
 187 372 187 372 176 363 c 128,-1,11
 165 354 165 354 162 340 c 256,0,1
342 42 m 1,12,-1
 344 45 l 1,13,-1
 336 70 l 1,14,-1
 432 522 l 2,15,16
 436 539 436 539 449.5 551.5 c 128,-1,17
 463 564 463 564 479 564 c 1,18,-1
 367 36 l 2,19,20
 363 18 363 18 349.5 6 c 128,-1,21
 336 -6 336 -6 320 -6 c 1,22,-1
 250 190 l 1,23,-1
 96 -6 l 1,24,25
 80 -6 80 -6 71.5 6 c 128,-1,26
 63 18 63 18 67 36 c 2,27,-1
 132 340 l 2,28,29
 137 366 137 366 159 384 c 128,-1,30
 181 402 181 402 207 402 c 256,31,32
 233 402 233 402 247 384 c 128,-1,33
 261 366 261 366 256 340 c 256,34,35
 251 314 251 314 229 296 c 128,-1,36
 207 278 207 278 181 278 c 0,37,38
 154 278 154 278 146 297 c 1,39,-1
 144 294 l 1,40,41
 149 283 149 283 157 278 c 1,42,-1
 112 70 l 1,43,-1
 94 45 l 1,44,-1
 94 42 l 1,45,-1
 242 229 l 2,46,47
 245 234 245 234 250 236 c 128,-1,48
 255 238 255 238 260 238 c 0,49,50
 271 238 271 238 274 229 c 2,51,-1
 342 42 l 1,12,-1
EndSplineSet
EndChar
StartChar: uni0E1E
Encoding: 3614 3614 241
Width: 474
Flags: W
Fore
132 340 m 256,0,1
 129 326 129 326 136 317 c 128,-1,2
 143 308 143 308 157 308 c 256,3,4
 171 308 171 308 182 317 c 128,-1,5
 193 326 193 326 196 340 c 256,6,7
 199 354 199 354 192 363 c 128,-1,8
 185 372 185 372 171 372 c 256,9,10
 157 372 157 372 146 363 c 128,-1,11
 135 354 135 354 132 340 c 256,0,1
151 278 m 0,12,13
 125 278 125 278 111 296 c 128,-1,14
 97 314 97 314 102 340 c 256,15,16
 107 366 107 366 129 384 c 128,-1,17
 151 402 151 402 177 402 c 256,18,19
 203 402 203 402 217 384 c 128,-1,20
 231 366 231 366 226 340 c 2,21,-1
 175 100 l 1,22,-1
 157 67 l 1,23,-1
 157 64 l 1,24,-1
 319 343 l 2,25,26
 328 355 328 355 340 355 c 0,27,28
 353 355 353 355 355 343 c 2,29,-1
 399 64 l 1,30,-1
 401 67 l 1,31,-1
 397 100 l 1,32,-1
 452 359 l 2,33,34
 456 376 456 376 469.5 388.5 c 128,-1,35
 483 401 483 401 499 401 c 1,36,-1
 421 36 l 2,37,38
 417 18 417 18 403.5 6 c 128,-1,39
 390 -6 390 -6 374 -6 c 1,40,-1
 327 292 l 1,41,-1
 152 -6 l 1,42,43
 136 -6 136 -6 127.5 6 c 128,-1,44
 119 18 119 18 123 36 c 2,45,-1
 175 278 l 1,46,47
 188 285 188 285 194 294 c 1,48,-1
 194 297 l 1,49,50
 178 278 178 278 151 278 c 0,12,13
EndSplineSet
EndChar
StartChar: uni0E1F
Encoding: 3615 3615 242
Width: 474
Flags: W
Fore
132 340 m 256,0,1
 129 326 129 326 136 317 c 128,-1,2
 143 308 143 308 157 308 c 256,3,4
 171 308 171 308 182 317 c 128,-1,5
 193 326 193 326 196 340 c 256,6,7
 199 354 199 354 192 363 c 128,-1,8
 185 372 185 372 171 372 c 256,9,10
 157 372 157 372 146 363 c 128,-1,11
 135 354 135 354 132 340 c 256,0,1
151 278 m 0,12,13
 125 278 125 278 111 296 c 128,-1,14
 97 314 97 314 102 340 c 256,15,16
 107 366 107 366 129 384 c 128,-1,17
 151 402 151 402 177 402 c 256,18,19
 203 402 203 402 217 384 c 128,-1,20
 231 366 231 366 226 340 c 2,21,-1
 175 100 l 1,22,-1
 157 67 l 1,23,-1
 157 64 l 1,24,-1
 319 343 l 2,25,26
 328 355 328 355 340 355 c 0,27,28
 353 355 353 355 355 343 c 2,29,-1
 399 64 l 1,30,-1
 401 67 l 1,31,-1
 397 100 l 1,32,-1
 486 522 l 2,33,34
 490 539 490 539 503.5 551.5 c 128,-1,35
 517 564 517 564 533 564 c 1,36,-1
 421 36 l 2,37,38
 417 18 417 18 403.5 6 c 128,-1,39
 390 -6 390 -6 374 -6 c 1,40,-1
 327 292 l 1,41,-1
 152 -6 l 1,42,43
 136 -6 136 -6 127.5 6 c 128,-1,44
 119 18 119 18 123 36 c 2,45,-1
 175 278 l 1,46,47
 188 285 188 285 194 294 c 1,48,-1
 194 297 l 1,49,50
 178 278 178 278 151 278 c 0,12,13
EndSplineSet
EndChar
StartChar: uni0E20
Encoding: 3616 3616 243
Width: 436
Flags: W
Fore
117 118 m 0,0,1
 144 118 144 118 152 99 c 1,2,-1
 153 102 l 1,3,4
 150 112 150 112 141 118 c 1,5,-1
 156 191 l 1,6,7
 154 194 154 194 147.5 205 c 128,-1,8
 141 216 141 216 134 227 c 2,9,-1
 116 257 l 1,10,11
 114 264 114 264 115 269 c 0,12,13
 121 299 121 299 140.5 324 c 128,-1,14
 160 349 160 349 186 366 c 128,-1,15
 212 383 212 383 242.5 392.5 c 128,-1,16
 273 402 273 402 302 402 c 0,17,18
 330 402 330 402 356.5 393 c 128,-1,19
 383 384 383 384 402.5 367 c 128,-1,20
 422 350 422 350 431 325 c 128,-1,21
 440 300 440 300 433 269 c 2,22,-1
 383 36 l 2,23,24
 379 18 379 18 365.5 6 c 128,-1,25
 352 -6 352 -6 336 -6 c 1,26,-1
 395 269 l 2,27,28
 399 288 399 288 393.5 306 c 128,-1,29
 388 324 388 324 374.5 338 c 128,-1,30
 361 352 361 352 340.5 360 c 128,-1,31
 320 368 320 368 295 368 c 0,32,33
 271 368 271 368 248 360.5 c 128,-1,34
 225 353 225 353 206 340 c 128,-1,35
 187 327 187 327 173 310 c 128,-1,36
 159 293 159 293 154 274 c 1,37,38
 156 270 156 270 162 259.5 c 128,-1,39
 168 249 168 249 175 238 c 0,40,41
 183 225 183 225 193 209 c 0,42,43
 196 204 196 204 195 197 c 2,44,-1
 165 56 l 2,45,46
 160 30 160 30 138 12 c 128,-1,47
 116 -6 116 -6 90 -6 c 256,48,49
 64 -6 64 -6 50 12 c 128,-1,50
 36 30 36 30 41 56 c 0,51,52
 47 82 47 82 69 100 c 128,-1,53
 91 118 91 118 117 118 c 0,0,1
71 56 m 0,54,55
 69 42 69 42 76 33 c 128,-1,56
 83 24 83 24 97 24 c 256,57,58
 111 24 111 24 122 33 c 128,-1,59
 133 42 133 42 135 56 c 0,60,61
 138 70 138 70 131 79 c 128,-1,62
 124 88 124 88 110 88 c 256,63,64
 96 88 96 88 85 79 c 128,-1,65
 74 70 74 70 71 56 c 0,54,55
EndSplineSet
EndChar
